<svg id="mermaid-1587247945533" width="5844.125" xmlns="http://www.w3.org/2000/svg" height="245" viewBox="-10 -10 3902.75 225"><style>#mermaid-1587247945533 .label{font-family:'trebuchet ms', verdana, arial;font-family:var(--mermaid-font-family);color:#333}#mermaid-1587247945533 .label text{fill:#333}#mermaid-1587247945533 .node rect,#mermaid-1587247945533 .node circle,#mermaid-1587247945533 .node ellipse,#mermaid-1587247945533 .node polygon,#mermaid-1587247945533 .node path{fill:#ECECFF;stroke:#9370db;stroke-width:1px}#mermaid-1587247945533 .node .label{text-align:center}#mermaid-1587247945533 .node.clickable{cursor:pointer}#mermaid-1587247945533 .arrowheadPath{fill:#333}#mermaid-1587247945533 .edgePath .path{stroke:#333;stroke-width:1.5px}#mermaid-1587247945533 .edgeLabel{background-color:#e8e8e8;text-align:center}#mermaid-1587247945533 .cluster rect{fill:#ffffde;stroke:#aa3;stroke-width:1px}#mermaid-1587247945533 .cluster text{fill:#333}#mermaid-1587247945533 div.mermaidTooltip{position:absolute;text-align:center;max-width:200px;padding:2px;font-family:'trebuchet ms', verdana, arial;font-family:var(--mermaid-font-family);font-size:12px;background:#ffffde;border:1px solid #aa3;border-radius:2px;pointer-events:none;z-index:100}#mermaid-1587247945533 .actor{stroke:#ccf;fill:#ECECFF}#mermaid-1587247945533 text.actor{fill:#000;stroke:none}#mermaid-1587247945533 .actor-line{stroke:grey}#mermaid-1587247945533 .messageLine0{stroke-width:1.5;stroke-dasharray:'2 2';stroke:#333}#mermaid-1587247945533 .messageLine1{stroke-width:1.5;stroke-dasharray:'2 2';stroke:#333}#mermaid-1587247945533 #arrowhead{fill:#333}#mermaid-1587247945533 .sequenceNumber{fill:#fff}#mermaid-1587247945533 #sequencenumber{fill:#333}#mermaid-1587247945533 #crosshead path{fill:#333 !important;stroke:#333 !important}#mermaid-1587247945533 .messageText{fill:#333;stroke:none}#mermaid-1587247945533 .labelBox{stroke:#ccf;fill:#ECECFF}#mermaid-1587247945533 .labelText{fill:#000;stroke:none}#mermaid-1587247945533 .loopText{fill:#000;stroke:none}#mermaid-1587247945533 .loopLine{stroke-width:2;stroke-dasharray:'2 2';stroke:#ccf}#mermaid-1587247945533 .note{stroke:#aa3;fill:#fff5ad}#mermaid-1587247945533 .noteText{fill:black;stroke:none;font-family:'trebuchet ms', verdana, arial;font-family:var(--mermaid-font-family);font-size:14px}#mermaid-1587247945533 .activation0{fill:#f4f4f4;stroke:#666}#mermaid-1587247945533 .activation1{fill:#f4f4f4;stroke:#666}#mermaid-1587247945533 .activation2{fill:#f4f4f4;stroke:#666}#mermaid-1587247945533 .mermaid-main-font{font-family:"trebuchet ms", verdana, arial;font-family:var(--mermaid-font-family)}#mermaid-1587247945533 .section{stroke:none;opacity:0.2}#mermaid-1587247945533 .section0{fill:rgba(102,102,255,0.49)}#mermaid-1587247945533 .section2{fill:#fff400}#mermaid-1587247945533 .section1,#mermaid-1587247945533 .section3{fill:#fff;opacity:0.2}#mermaid-1587247945533 .sectionTitle0{fill:#333}#mermaid-1587247945533 .sectionTitle1{fill:#333}#mermaid-1587247945533 .sectionTitle2{fill:#333}#mermaid-1587247945533 .sectionTitle3{fill:#333}#mermaid-1587247945533 .sectionTitle{text-anchor:start;font-size:11px;text-height:14px;font-family:'trebuchet ms', verdana, arial;font-family:var(--mermaid-font-family)}#mermaid-1587247945533 .grid .tick{stroke:#d3d3d3;opacity:0.8;shape-rendering:crispEdges}#mermaid-1587247945533 .grid .tick text{font-family:'trebuchet ms', verdana, arial;font-family:var(--mermaid-font-family)}#mermaid-1587247945533 .grid path{stroke-width:0}#mermaid-1587247945533 .today{fill:none;stroke:red;stroke-width:2px}#mermaid-1587247945533 .task{stroke-width:2}#mermaid-1587247945533 .taskText{text-anchor:middle;font-family:'trebuchet ms', verdana, arial;font-family:var(--mermaid-font-family)}#mermaid-1587247945533 .taskText:not([font-size]){font-size:11px}#mermaid-1587247945533 .taskTextOutsideRight{fill:#000;text-anchor:start;font-size:11px;font-family:'trebuchet ms', verdana, arial;font-family:var(--mermaid-font-family)}#mermaid-1587247945533 .taskTextOutsideLeft{fill:#000;text-anchor:end;font-size:11px}#mermaid-1587247945533 .task.clickable{cursor:pointer}#mermaid-1587247945533 .taskText.clickable{cursor:pointer;fill:#003163 !important;font-weight:bold}#mermaid-1587247945533 .taskTextOutsideLeft.clickable{cursor:pointer;fill:#003163 !important;font-weight:bold}#mermaid-1587247945533 .taskTextOutsideRight.clickable{cursor:pointer;fill:#003163 !important;font-weight:bold}#mermaid-1587247945533 .taskText0,#mermaid-1587247945533 .taskText1,#mermaid-1587247945533 .taskText2,#mermaid-1587247945533 .taskText3{fill:#fff}#mermaid-1587247945533 .task0,#mermaid-1587247945533 .task1,#mermaid-1587247945533 .task2,#mermaid-1587247945533 .task3{fill:#8a90dd;stroke:#534fbc}#mermaid-1587247945533 .taskTextOutside0,#mermaid-1587247945533 .taskTextOutside2{fill:#000}#mermaid-1587247945533 .taskTextOutside1,#mermaid-1587247945533 .taskTextOutside3{fill:#000}#mermaid-1587247945533 .active0,#mermaid-1587247945533 .active1,#mermaid-1587247945533 .active2,#mermaid-1587247945533 .active3{fill:#bfc7ff;stroke:#534fbc}#mermaid-1587247945533 .activeText0,#mermaid-1587247945533 .activeText1,#mermaid-1587247945533 .activeText2,#mermaid-1587247945533 .activeText3{fill:#000 !important}#mermaid-1587247945533 .done0,#mermaid-1587247945533 .done1,#mermaid-1587247945533 .done2,#mermaid-1587247945533 .done3{stroke:grey;fill:#d3d3d3;stroke-width:2}#mermaid-1587247945533 .doneText0,#mermaid-1587247945533 .doneText1,#mermaid-1587247945533 .doneText2,#mermaid-1587247945533 .doneText3{fill:#000 !important}#mermaid-1587247945533 .crit0,#mermaid-1587247945533 .crit1,#mermaid-1587247945533 .crit2,#mermaid-1587247945533 .crit3{stroke:#f88;fill:red;stroke-width:2}#mermaid-1587247945533 .activeCrit0,#mermaid-1587247945533 .activeCrit1,#mermaid-1587247945533 .activeCrit2,#mermaid-1587247945533 .activeCrit3{stroke:#f88;fill:#bfc7ff;stroke-width:2}#mermaid-1587247945533 .doneCrit0,#mermaid-1587247945533 .doneCrit1,#mermaid-1587247945533 .doneCrit2,#mermaid-1587247945533 .doneCrit3{stroke:#f88;fill:#d3d3d3;stroke-width:2;cursor:pointer;shape-rendering:crispEdges}#mermaid-1587247945533 .milestone{transform:rotate(45deg) scale(0.8, 0.8)}#mermaid-1587247945533 .milestoneText{font-style:italic}#mermaid-1587247945533 .doneCritText0,#mermaid-1587247945533 .doneCritText1,#mermaid-1587247945533 .doneCritText2,#mermaid-1587247945533 .doneCritText3{fill:#000 !important}#mermaid-1587247945533 .activeCritText0,#mermaid-1587247945533 .activeCritText1,#mermaid-1587247945533 .activeCritText2,#mermaid-1587247945533 .activeCritText3{fill:#000 !important}#mermaid-1587247945533 .titleText{text-anchor:middle;font-size:18px;fill:#000;font-family:'trebuchet ms', verdana, arial;font-family:var(--mermaid-font-family)}#mermaid-1587247945533 g.classGroup text{fill:#9370db;stroke:none;font-family:'trebuchet ms', verdana, arial;font-family:var(--mermaid-font-family);font-size:10px}#mermaid-1587247945533 g.classGroup text .title{font-weight:bolder}#mermaid-1587247945533 g.clickable{cursor:pointer}#mermaid-1587247945533 g.classGroup rect{fill:#ECECFF;stroke:#9370db}#mermaid-1587247945533 g.classGroup line{stroke:#9370db;stroke-width:1}#mermaid-1587247945533 .classLabel .box{stroke:none;stroke-width:0;fill:#ECECFF;opacity:0.5}#mermaid-1587247945533 .classLabel .label{fill:#9370db;font-size:10px}#mermaid-1587247945533 .relation{stroke:#9370db;stroke-width:1;fill:none}#mermaid-1587247945533 .dashed-line{stroke-dasharray:3}#mermaid-1587247945533 #compositionStart{fill:#9370db;stroke:#9370db;stroke-width:1}#mermaid-1587247945533 #compositionEnd{fill:#9370db;stroke:#9370db;stroke-width:1}#mermaid-1587247945533 #aggregationStart{fill:#ECECFF;stroke:#9370db;stroke-width:1}#mermaid-1587247945533 #aggregationEnd{fill:#ECECFF;stroke:#9370db;stroke-width:1}#mermaid-1587247945533 #dependencyStart{fill:#9370db;stroke:#9370db;stroke-width:1}#mermaid-1587247945533 #dependencyEnd{fill:#9370db;stroke:#9370db;stroke-width:1}#mermaid-1587247945533 #extensionStart{fill:#9370db;stroke:#9370db;stroke-width:1}#mermaid-1587247945533 #extensionEnd{fill:#9370db;stroke:#9370db;stroke-width:1}#mermaid-1587247945533 .commit-id,#mermaid-1587247945533 .commit-msg,#mermaid-1587247945533 .branch-label{fill:lightgrey;color:lightgrey;font-family:'trebuchet ms', verdana, arial;font-family:var(--mermaid-font-family)}#mermaid-1587247945533 .pieTitleText{text-anchor:middle;font-size:25px;fill:#000;font-family:'trebuchet ms', verdana, arial;font-family:var(--mermaid-font-family)}#mermaid-1587247945533 .slice{font-family:'trebuchet ms', verdana, arial;font-family:var(--mermaid-font-family)}#mermaid-1587247945533 g.stateGroup text{fill:#9370db;stroke:none;font-size:10px;font-family:'trebuchet ms', verdana, arial;font-family:var(--mermaid-font-family)}#mermaid-1587247945533 g.stateGroup text{fill:#9370db;stroke:none;font-size:10px}#mermaid-1587247945533 g.stateGroup .state-title{font-weight:bolder;fill:#000}#mermaid-1587247945533 g.stateGroup rect{fill:#ECECFF;stroke:#9370db}#mermaid-1587247945533 g.stateGroup line{stroke:#9370db;stroke-width:1}#mermaid-1587247945533 .transition{stroke:#9370db;stroke-width:1;fill:none}#mermaid-1587247945533 .stateGroup .composit{fill:white;border-bottom:1px}#mermaid-1587247945533 .stateGroup .alt-composit{fill:#e0e0e0;border-bottom:1px}#mermaid-1587247945533 .state-note{stroke:#aa3;fill:#fff5ad}#mermaid-1587247945533 .state-note text{fill:black;stroke:none;font-size:10px}#mermaid-1587247945533 .stateLabel .box{stroke:none;stroke-width:0;fill:#ECECFF;opacity:0.5}#mermaid-1587247945533 .stateLabel text{fill:#000;font-size:10px;font-weight:bold;font-family:'trebuchet ms', verdana, arial;font-family:var(--mermaid-font-family)}:root{--mermaid-font-family: '"trebuchet ms", verdana, arial';--mermaid-font-family: "Comic Sans MS", "Comic Sans", cursive}:root { --mermaid-font-family: "trebuchet ms", verdana, arial;}</style><style>#mermaid-1587247945533 {    color: rgb(0, 0, 0);    font: 16px "trebuchet ms", verdana, arial;  }</style><g></g><defs><marker id="extensionStart" class="extension" refX="0" refY="7" markerWidth="190" markerHeight="240" orient="auto"><path d="M 1,7 L18,13 V 1 Z"></path></marker></defs><defs><marker id="extensionEnd" refX="19" refY="7" markerWidth="20" markerHeight="28" orient="auto"><path d="M 1,1 V 13 L18,7 Z"></path></marker></defs><defs><marker id="compositionStart" class="extension" refX="0" refY="7" markerWidth="190" markerHeight="240" orient="auto"><path d="M 18,7 L9,13 L1,7 L9,1 Z"></path></marker></defs><defs><marker id="compositionEnd" refX="19" refY="7" markerWidth="20" markerHeight="28" orient="auto"><path d="M 18,7 L9,13 L1,7 L9,1 Z"></path></marker></defs><defs><marker id="aggregationStart" class="extension" refX="0" refY="7" markerWidth="190" markerHeight="240" orient="auto"><path d="M 18,7 L9,13 L1,7 L9,1 Z"></path></marker></defs><defs><marker id="aggregationEnd" refX="19" refY="7" markerWidth="20" markerHeight="28" orient="auto"><path d="M 18,7 L9,13 L1,7 L9,1 Z"></path></marker></defs><defs><marker id="dependencyStart" class="extension" refX="0" refY="7" markerWidth="190" markerHeight="240" orient="auto"><path d="M 5,7 L9,13 L1,7 L9,1 Z"></path></marker></defs><defs><marker id="dependencyEnd" refX="19" refY="7" markerWidth="20" markerHeight="28" orient="auto"><path d="M 18,7 L9,13 L14,7 L9,1 Z"></path></marker></defs><g id="classid-NullLiteral-0" class="classGroup " transform="translate(3133.75,170 )"><rect x="0" y="0" width="64" height="35"></rect><text y="15" x="0"><tspan class="title" x="5">NullLiteral</tspan></text><line x1="0" y1="24" y2="24" x2="64"></line><text x="5" y="34" fill="white" class="classText"></text><line x1="0" y1="29" y2="29" x2="64"></line><text x="5" y="44" fill="white" class="classText"></text></g><g id="classid-ObjectExpression-1" class="classGroup " transform="translate(1755.75,170 )"><rect x="0" y="0" width="97" height="35"></rect><text y="15" x="0"><tspan class="title" x="5">ObjectExpression</tspan></text><line x1="0" y1="24" y2="24" x2="97"></line><text x="5" y="34" fill="white" class="classText"></text><line x1="0" y1="29" y2="29" x2="97"></line><text x="5" y="44" fill="white" class="classText"></text></g><g id="classid-TemplateElement-2" class="classGroup " transform="translate(3247.75,170 )"><rect x="0" y="0" width="100" height="35"></rect><text y="15" x="0"><tspan class="title" x="5">TemplateElement</tspan></text><line x1="0" y1="24" y2="24" x2="100"></line><text x="5" y="34" fill="white" class="classText"></text><line x1="0" y1="29" y2="29" x2="100"></line><text x="5" y="44" fill="white" class="classText"></text></g><g id="classid-IfStatement-3" class="classGroup " transform="translate(99.75,170 )"><rect x="0" y="0" width="71" height="35"></rect><text y="15" x="0"><tspan class="title" x="5">IfStatement</tspan></text><line x1="0" y1="24" y2="24" x2="71"></line><text x="5" y="34" fill="white" class="classText"></text><line x1="0" y1="29" y2="29" x2="71"></line><text x="5" y="44" fill="white" class="classText"></text></g><g id="classid-ClassDeclaration-4" class="classGroup " transform="translate(1102.75,170 )"><rect x="0" y="0" width="93" height="35"></rect><text y="15" x="0"><tspan class="title" x="5">ClassDeclaration</tspan></text><line x1="0" y1="24" y2="24" x2="93"></line><text x="5" y="34" fill="white" class="classText"></text><line x1="0" y1="29" y2="29" x2="93"></line><text x="5" y="44" fill="white" class="classText"></text></g><g id="classid-BooleanLiteral-5" class="classGroup " transform="translate(3397.75,170 )"><rect x="0" y="0" width="84" height="35"></rect><text y="15" x="0"><tspan class="title" x="5">BooleanLiteral</tspan></text><line x1="0" y1="24" y2="24" x2="84"></line><text x="5" y="34" fill="white" class="classText"></text><line x1="0" y1="29" y2="29" x2="84"></line><text x="5" y="44" fill="white" class="classText"></text></g><g id="classid-ClassMethod-6" class="classGroup " transform="translate(0,85 )"><rect x="0" y="0" width="73" height="35"></rect><text y="15" x="0"><tspan class="title" x="5">ClassMethod</tspan></text><line x1="0" y1="24" y2="24" x2="73"></line><text x="5" y="34" fill="white" class="classText"></text><line x1="0" y1="29" y2="29" x2="73"></line><text x="5" y="44" fill="white" class="classText"></text></g><g id="classid-NumericLiteral-7" class="classGroup " transform="translate(3531.75,170 )"><rect x="0" y="0" width="87" height="35"></rect><text y="15" x="0"><tspan class="title" x="5">NumericLiteral</tspan></text><line x1="0" y1="24" y2="24" x2="87"></line><text x="5" y="34" fill="white" class="classText"></text><line x1="0" y1="29" y2="29" x2="87"></line><text x="5" y="44" fill="white" class="classText"></text></g><g id="classid-CommentLine-8" class="classGroup " transform="translate(123,85 )"><rect x="0" y="0" width="81" height="35"></rect><text y="15" x="0"><tspan class="title" x="5">CommentLine</tspan></text><line x1="0" y1="24" y2="24" x2="81"></line><text x="5" y="34" fill="white" class="classText"></text><line x1="0" y1="29" y2="29" x2="81"></line><text x="5" y="44" fill="white" class="classText"></text></g><g id="classid-BreakStatement-9" class="classGroup " transform="translate(220.75,170 )"><rect x="0" y="0" width="94" height="35"></rect><text y="15" x="0"><tspan class="title" x="5">BreakStatement</tspan></text><line x1="0" y1="24" y2="24" x2="94"></line><text x="5" y="34" fill="white" class="classText"></text><line x1="0" y1="29" y2="29" x2="94"></line><text x="5" y="44" fill="white" class="classText"></text></g><g id="classid-ClassBody-10" class="classGroup " transform="translate(254,85 )"><rect x="0" y="0" width="60" height="35"></rect><text y="15" x="0"><tspan class="title" x="5">ClassBody</tspan></text><line x1="0" y1="24" y2="24" x2="60"></line><text x="5" y="34" fill="white" class="classText"></text><line x1="0" y1="29" y2="29" x2="60"></line><text x="5" y="44" fill="white" class="classText"></text></g><g id="classid-VariableDeclarator-11" class="classGroup " transform="translate(364,85 )"><rect x="0" y="0" width="105" height="35"></rect><text y="15" x="0"><tspan class="title" x="5">VariableDeclarator</tspan></text><line x1="0" y1="24" y2="24" x2="105"></line><text x="5" y="34" fill="white" class="classText"></text><line x1="0" y1="29" y2="29" x2="105"></line><text x="5" y="44" fill="white" class="classText"></text></g><g id="classid-BlockStatement-12" class="classGroup " transform="translate(364.75,170 )"><rect x="0" y="0" width="91" height="35"></rect><text y="15" x="0"><tspan class="title" x="5">BlockStatement</tspan></text><line x1="0" y1="24" y2="24" x2="91"></line><text x="5" y="34" fill="white" class="classText"></text><line x1="0" y1="29" y2="29" x2="91"></line><text x="5" y="44" fill="white" class="classText"></text></g><g id="classid-CallExpression-13" class="classGroup " transform="translate(1902.75,170 )"><rect x="0" y="0" width="83" height="35"></rect><text y="15" x="0"><tspan class="title" x="5">CallExpression</tspan></text><line x1="0" y1="24" y2="24" x2="83"></line><text x="5" y="34" fill="white" class="classText"></text><line x1="0" y1="29" y2="29" x2="83"></line><text x="5" y="44" fill="white" class="classText"></text></g><g id="classid-AssignmentExpression-14" class="classGroup " transform="translate(2035.75,170 )"><rect x="0" y="0" width="125" height="35"></rect><text y="15" x="0"><tspan class="title" x="5">AssignmentExpression</tspan></text><line x1="0" y1="24" y2="24" x2="125"></line><text x="5" y="34" fill="white" class="classText"></text><line x1="0" y1="29" y2="29" x2="125"></line><text x="5" y="44" fill="white" class="classText"></text></g><g id="classid-SwitchStatement-15" class="classGroup " transform="translate(505.75,170 )"><rect x="0" y="0" width="98" height="35"></rect><text y="15" x="0"><tspan class="title" x="5">SwitchStatement</tspan></text><line x1="0" y1="24" y2="24" x2="98"></line><text x="5" y="34" fill="white" class="classText"></text><line x1="0" y1="29" y2="29" x2="98"></line><text x="5" y="44" fill="white" class="classText"></text></g><g id="classid-File-16" class="classGroup " transform="translate(519,85 )"><rect x="0" y="0" width="27" height="35"></rect><text y="15" x="0"><tspan class="title" x="5">File</tspan></text><line x1="0" y1="24" y2="24" x2="27"></line><text x="5" y="34" fill="white" class="classText"></text><line x1="0" y1="29" y2="29" x2="27"></line><text x="5" y="44" fill="white" class="classText"></text></g><g id="classid-ForStatement-17" class="classGroup " transform="translate(653.75,170 )"><rect x="0" y="0" width="80" height="35"></rect><text y="15" x="0"><tspan class="title" x="5">ForStatement</tspan></text><line x1="0" y1="24" y2="24" x2="80"></line><text x="5" y="34" fill="white" class="classText"></text><line x1="0" y1="29" y2="29" x2="80"></line><text x="5" y="44" fill="white" class="classText"></text></g><g id="classid-ArrayExpression-18" class="classGroup " transform="translate(2210.75,170 )"><rect x="0" y="0" width="94" height="35"></rect><text y="15" x="0"><tspan class="title" x="5">ArrayExpression</tspan></text><line x1="0" y1="24" y2="24" x2="94"></line><text x="5" y="34" fill="white" class="classText"></text><line x1="0" y1="29" y2="29" x2="94"></line><text x="5" y="44" fill="white" class="classText"></text></g><g id="classid-Statement-19" class="classGroup " transform="translate(596,85 )"><rect x="0" y="0" width="64" height="35"></rect><text y="15" x="0"><tspan class="title" x="5">Statement</tspan></text><line x1="0" y1="24" y2="24" x2="64"></line><text x="5" y="34" fill="white" class="classText"></text><line x1="0" y1="29" y2="29" x2="64"></line><text x="5" y="44" fill="white" class="classText"></text></g><g id="classid-Program-20" class="classGroup " transform="translate(893.25,85 )"><rect x="0" y="0" width="54" height="35"></rect><text y="15" x="0"><tspan class="title" x="5">Program</tspan></text><line x1="0" y1="24" y2="24" x2="54"></line><text x="5" y="34" fill="white" class="classText"></text><line x1="0" y1="29" y2="29" x2="54"></line><text x="5" y="44" fill="white" class="classText"></text></g><g id="classid-ExpressionStatement-21" class="classGroup " transform="translate(783.75,170 )"><rect x="0" y="0" width="119" height="35"></rect><text y="15" x="0"><tspan class="title" x="5">ExpressionStatement</tspan></text><line x1="0" y1="24" y2="24" x2="119"></line><text x="5" y="34" fill="white" class="classText"></text><line x1="0" y1="29" y2="29" x2="119"></line><text x="5" y="44" fill="white" class="classText"></text></g><g id="classid-SwitchCase-22" class="classGroup " transform="translate(1055.75,85 )"><rect x="0" y="0" width="67" height="35"></rect><text y="15" x="0"><tspan class="title" x="5">SwitchCase</tspan></text><line x1="0" y1="24" y2="24" x2="67"></line><text x="5" y="34" fill="white" class="classText"></text><line x1="0" y1="29" y2="29" x2="67"></line><text x="5" y="44" fill="white" class="classText"></text></g><g id="classid-ExportDefaultDeclaration-23" class="classGroup " transform="translate(1245.75,170 )"><rect x="0" y="0" width="138" height="35"></rect><text y="15" x="0"><tspan class="title" x="5">ExportDefaultDeclaration</tspan></text><line x1="0" y1="24" y2="24" x2="138"></line><text x="5" y="34" fill="white" class="classText"></text><line x1="0" y1="29" y2="29" x2="138"></line><text x="5" y="44" fill="white" class="classText"></text></g><g id="classid-ObjectProperty-24" class="classGroup " transform="translate(1172.75,85 )"><rect x="0" y="0" width="86" height="35"></rect><text y="15" x="0"><tspan class="title" x="5">ObjectProperty</tspan></text><line x1="0" y1="24" y2="24" x2="86"></line><text x="5" y="34" fill="white" class="classText"></text><line x1="0" y1="29" y2="29" x2="86"></line><text x="5" y="44" fill="white" class="classText"></text></g><g id="classid-Parser-25" class="classGroup " transform="translate(875,0 )"><rect x="0" y="0" width="43" height="35"></rect><text y="15" x="0"><tspan class="title" x="5">Parser</tspan></text><line x1="0" y1="24" y2="24" x2="43"></line><text x="5" y="34" fill="white" class="classText"></text><line x1="0" y1="29" y2="29" x2="43"></line><text x="5" y="44" fill="white" class="classText"></text></g><g id="classid-Identifier-26" class="classGroup " transform="translate(1308.75,85 )"><rect x="0" y="0" width="57" height="35"></rect><text y="15" x="0"><tspan class="title" x="5">Identifier</tspan></text><line x1="0" y1="24" y2="24" x2="57"></line><text x="5" y="34" fill="white" class="classText"></text><line x1="0" y1="29" y2="29" x2="57"></line><text x="5" y="44" fill="white" class="classText"></text></g><g id="classid-TemplateLiteral-27" class="classGroup " transform="translate(3668.75,170 )"><rect x="0" y="0" width="90" height="35"></rect><text y="15" x="0"><tspan class="title" x="5">TemplateLiteral</tspan></text><line x1="0" y1="24" y2="24" x2="90"></line><text x="5" y="34" fill="white" class="classText"></text><line x1="0" y1="29" y2="29" x2="90"></line><text x="5" y="44" fill="white" class="classText"></text></g><g id="classid-VariableDeclaration-28" class="classGroup " transform="translate(1433.75,170 )"><rect x="0" y="0" width="110" height="35"></rect><text y="15" x="0"><tspan class="title" x="5">VariableDeclaration</tspan></text><line x1="0" y1="24" y2="24" x2="110"></line><text x="5" y="34" fill="white" class="classText"></text><line x1="0" y1="29" y2="29" x2="110"></line><text x="5" y="44" fill="white" class="classText"></text></g><g id="classid-UpdateExpression-29" class="classGroup " transform="translate(2354.75,170 )"><rect x="0" y="0" width="101" height="35"></rect><text y="15" x="0"><tspan class="title" x="5">UpdateExpression</tspan></text><line x1="0" y1="24" y2="24" x2="101"></line><text x="5" y="34" fill="white" class="classText"></text><line x1="0" y1="29" y2="29" x2="101"></line><text x="5" y="44" fill="white" class="classText"></text></g><g id="classid-StringLiteral-30" class="classGroup " transform="translate(3808.75,170 )"><rect x="0" y="0" width="74" height="35"></rect><text y="15" x="0"><tspan class="title" x="5">StringLiteral</tspan></text><line x1="0" y1="24" y2="24" x2="74"></line><text x="5" y="34" fill="white" class="classText"></text><line x1="0" y1="29" y2="29" x2="74"></line><text x="5" y="44" fill="white" class="classText"></text></g><g id="classid-ReturnStatement-31" class="classGroup " transform="translate(952.75,170 )"><rect x="0" y="0" width="100" height="35"></rect><text y="15" x="0"><tspan class="title" x="5">ReturnStatement</tspan></text><line x1="0" y1="24" y2="24" x2="100"></line><text x="5" y="34" fill="white" class="classText"></text><line x1="0" y1="29" y2="29" x2="100"></line><text x="5" y="44" fill="white" class="classText"></text></g><g id="classid-BinaryExpression-32" class="classGroup " transform="translate(2505.75,170 )"><rect x="0" y="0" width="99" height="35"></rect><text y="15" x="0"><tspan class="title" x="5">BinaryExpression</tspan></text><line x1="0" y1="24" y2="24" x2="99"></line><text x="5" y="34" fill="white" class="classText"></text><line x1="0" y1="29" y2="29" x2="99"></line><text x="5" y="44" fill="white" class="classText"></text></g><g id="classid-ConditionalExpression-33" class="classGroup " transform="translate(2654.75,170 )"><rect x="0" y="0" width="122" height="35"></rect><text y="15" x="0"><tspan class="title" x="5">ConditionalExpression</tspan></text><line x1="0" y1="24" y2="24" x2="122"></line><text x="5" y="34" fill="white" class="classText"></text><line x1="0" y1="29" y2="29" x2="122"></line><text x="5" y="44" fill="white" class="classText"></text></g><g id="classid-Declaration-34" class="classGroup " transform="translate(1449.25,85 )"><rect x="0" y="0" width="68" height="35"></rect><text y="15" x="0"><tspan class="title" x="5">Declaration</tspan></text><line x1="0" y1="24" y2="24" x2="68"></line><text x="5" y="34" fill="white" class="classText"></text><line x1="0" y1="29" y2="29" x2="68"></line><text x="5" y="44" fill="white" class="classText"></text></g><g id="classid-MemberExpression-35" class="classGroup " transform="translate(2826.75,170 )"><rect x="0" y="0" width="107" height="35"></rect><text y="15" x="0"><tspan class="title" x="5">MemberExpression</tspan></text><line x1="0" y1="24" y2="24" x2="107"></line><text x="5" y="34" fill="white" class="classText"></text><line x1="0" y1="29" y2="29" x2="107"></line><text x="5" y="44" fill="white" class="classText"></text></g><g id="classid-FunctionDeclaration-36" class="classGroup " transform="translate(1593.75,170 )"><rect x="0" y="0" width="112" height="35"></rect><text y="15" x="0"><tspan class="title" x="5">FunctionDeclaration</tspan></text><line x1="0" y1="24" y2="24" x2="112"></line><text x="5" y="34" fill="white" class="classText"></text><line x1="0" y1="29" y2="29" x2="112"></line><text x="5" y="44" fill="white" class="classText"></text></g><g id="classid-LogicalExpression-37" class="classGroup " transform="translate(2983.75,170 )"><rect x="0" y="0" width="100" height="35"></rect><text y="15" x="0"><tspan class="title" x="5">LogicalExpression</tspan></text><line x1="0" y1="24" y2="24" x2="100"></line><text x="5" y="34" fill="white" class="classText"></text><line x1="0" y1="29" y2="29" x2="100"></line><text x="5" y="44" fill="white" class="classText"></text></g><g id="classid-Node-38" class="classGroup " transform="translate(968,0 )"><rect x="0" y="0" width="36" height="35"></rect><text y="15" x="0"><tspan class="title" x="5">Node</tspan></text><line x1="0" y1="24" y2="24" x2="36"></line><text x="5" y="34" fill="white" class="classText"></text><line x1="0" y1="29" y2="29" x2="36"></line><text x="5" y="44" fill="white" class="classText"></text></g><g id="classid-Expression-39" class="classGroup " transform="translate(2372.75,85 )"><rect x="0" y="0" width="65" height="35"></rect><text y="15" x="0"><tspan class="title" x="5">Expression</tspan></text><line x1="0" y1="24" y2="24" x2="65"></line><text x="5" y="34" fill="white" class="classText"></text><line x1="0" y1="29" y2="29" x2="65"></line><text x="5" y="44" fill="white" class="classText"></text></g><g id="classid-Literal-40" class="classGroup " transform="translate(3603,85 )"><rect x="0" y="0" width="43" height="35"></rect><text y="15" x="0"><tspan class="title" x="5">Literal</tspan></text><line x1="0" y1="24" y2="24" x2="43"></line><text x="5" y="34" fill="white" class="classText"></text><line x1="0" y1="29" y2="29" x2="43"></line><text x="5" y="44" fill="white" class="classText"></text></g><g id="classid-CommentBlock-41" class="classGroup " transform="translate(3696,85 )"><rect x="0" y="0" width="87" height="35"></rect><text y="15" x="0"><tspan class="title" x="5">CommentBlock</tspan></text><line x1="0" y1="24" y2="24" x2="87"></line><text x="5" y="34" fill="white" class="classText"></text><line x1="0" y1="29" y2="29" x2="87"></line><text x="5" y="44" fill="white" class="classText"></text></g><path d="M3603,104.49182561307902L3530.125,111.24318801089919C3457.25,117.99455040871935,3311.5,131.49727520435968,3238.625,142.4153042688465C3165.75,153.33333333333334,3165.75,161.66666666666666,3165.75,165.83333333333334L3165.75,170" id="edge0" class="relation" marker-start="url(#extensionStart)"></path><path d="M2372.75,104.79825291181365L2278,111.49854409317804C2183.25,118.19883527454243,1993.75,131.59941763727122,1899,142.46637548530228C1804.25,153.33333333333334,1804.25,161.66666666666666,1804.25,165.83333333333334L1804.25,170" id="edge1" class="relation" marker-start="url(#extensionStart)"></path><path d="M3603,105.296480489671L3552.125,111.91373374139249C3501.25,118.53098699311401,3399.5,131.765493496557,3348.625,142.54941341494518C3297.75,153.33333333333334,3297.75,161.66666666666666,3297.75,165.83333333333334L3297.75,170" id="edge2" class="relation" marker-start="url(#extensionStart)"></path><path d="M596,105.26002029426687L519.2083333333334,111.88335024522239C442.4166666666667,118.50668019617791,288.8333333333333,131.75334009808896,212.04166666666666,142.54333671571115C135.25,153.33333333333334,135.25,161.66666666666666,135.25,165.83333333333334L135.25,170" id="edge3" class="relation" marker-start="url(#extensionStart)"></path><path d="M1449.25,106.82634730538922L1399.25,113.188622754491C1349.25,119.55089820359281,1249.25,132.2754491017964,1199.25,142.80439121756487C1149.25,153.33333333333334,1149.25,161.66666666666666,1149.25,165.83333333333334L1149.25,170" id="edge4" class="relation" marker-start="url(#extensionStart)"></path><path d="M3603,107.44587280108254L3575.7916666666665,113.70489400090212C3548.5833333333335,119.9639152007217,3494.1666666666665,132.48195760036086,3466.9583333333335,142.90764546684707C3439.75,153.33333333333334,3439.75,161.66666666666666,3439.75,165.83333333333334L3439.75,170" id="edge5" class="relation" marker-start="url(#extensionStart)"></path><path d="M968,18.305687203791468L812.75,25.25473933649289C657.5,32.20379146919431,347,46.10189573459716,191.75,57.217614533965246C36.5,68.33333333333333,36.5,76.66666666666667,36.5,80.83333333333333L36.5,85" id="edge6" class="relation" marker-start="url(#extensionStart)"></path><path d="M3604.220588235294,120L3599.392156862745,124.16666666666667C3594.563725490196,128.33333333333334,3584.906862745098,136.66666666666666,3580.078431372549,145C3575.25,153.33333333333334,3575.25,161.66666666666666,3575.25,165.83333333333334L3575.25,170" id="edge7" class="relation" marker-start="url(#extensionStart)"></path><path d="M968,18.430091185410333L833.9166666666666,25.358409321175277C699.8333333333334,32.28672745694022,431.6666666666667,46.14336372847011,297.5833333333333,57.238348530901725C163.5,68.33333333333333,163.5,76.66666666666667,163.5,80.83333333333333L163.5,85" id="edge8" class="relation" marker-start="url(#extensionStart)"></path><path d="M596,106.27515614156836L541.2916666666666,112.72929678464031C486.5833333333333,119.18343742771224,377.1666666666667,132.09171871385612,322.4583333333333,142.71252602359473C267.75,153.33333333333334,267.75,161.66666666666666,267.75,165.83333333333334L267.75,170" id="edge9" class="relation" marker-start="url(#extensionStart)"></path><path d="M968,18.58974358974359L854,25.49145299145299C740,32.39316239316239,512,46.1965811965812,398,57.26495726495727C284,68.33333333333333,284,76.66666666666667,284,80.83333333333333L284,85" id="edge10" class="relation" marker-start="url(#extensionStart)"></path><path d="M968,18.84328358208955L876.0833333333334,25.70273631840796C784.1666666666666,32.56218905472637,600.3333333333334,46.28109452736319,508.4166666666667,57.30721393034826C416.5,68.33333333333333,416.5,76.66666666666667,416.5,80.83333333333333L416.5,85" id="edge11" class="relation" marker-start="url(#extensionStart)"></path><path d="M596,108.74569460390356L565.0416666666666,114.7880788365863C534.0833333333334,120.83046306926904,472.1666666666667,132.9152315346345,441.2083333333333,143.12428243398392C410.25,153.33333333333334,410.25,161.66666666666666,410.25,165.83333333333334L410.25,170" id="edge12" class="relation" marker-start="url(#extensionStart)"></path><path d="M2372.75,105.49620390455532L2301.3333333333335,112.08016992046277C2229.9166666666665,118.66413593637022,2087.0833333333335,131.8320679681851,2015.6666666666667,142.58270065075922C1944.25,153.33333333333334,1944.25,161.66666666666666,1944.25,165.83333333333334L1944.25,170" id="edge13" class="relation" marker-start="url(#extensionStart)"></path><path d="M2372.75,106.99918566775244L2327,113.33265472312705C2281.25,119.66612377850163,2189.75,132.3330618892508,2144,142.8331976112921C2098.25,153.33333333333334,2098.25,161.66666666666666,2098.25,165.83333333333334L2098.25,170" id="edge14" class="relation" marker-start="url(#extensionStart)"></path><path d="M597.8382352941177,120L590.656862745098,124.16666666666667C583.4754901960785,128.33333333333334,569.1127450980392,136.66666666666666,561.9313725490196,145C554.75,153.33333333333334,554.75,161.66666666666666,554.75,165.83333333333334L554.75,170" id="edge15" class="relation" marker-start="url(#extensionStart)"></path><path d="M968,19.186879823594268L895.4166666666666,25.98906651966189C822.8333333333334,32.79125321572951,677.6666666666666,46.395626607864756,605.0833333333334,57.36447997059904C532.5,68.33333333333333,532.5,76.66666666666667,532.5,80.83333333333333L532.5,85" id="edge16" class="relation" marker-start="url(#extensionStart)"></path><path d="M655.0735294117648,120L661.5196078431374,124.16666666666667C667.9656862745098,128.33333333333334,680.8578431372549,136.66666666666666,687.3039215686275,145C693.75,153.33333333333334,693.75,161.66666666666666,693.75,165.83333333333334L693.75,170" id="edge17" class="relation" marker-start="url(#extensionStart)"></path><path d="M2372.75,111.86440677966101L2353.5833333333335,117.38700564971752C2334.4166666666665,122.909604519774,2296.0833333333335,133.954802259887,2276.9166666666665,143.6440677966102C2257.75,153.33333333333334,2257.75,161.66666666666666,2257.75,165.83333333333334L2257.75,170" id="edge18" class="relation" marker-start="url(#extensionStart)"></path><path d="M968,19.636871508379887L911.3333333333334,26.36405959031657C854.6666666666666,33.09124767225325,741.3333333333334,46.54562383612663,684.6666666666666,57.43947858472998C628,68.33333333333333,628,76.66666666666667,628,80.83333333333333L628,85" id="edge19" class="relation" marker-start="url(#extensionStart)"></path><path d="M968,29.134980988593156L960.0416666666666,34.27915082382763C952.0833333333334,39.42332065906211,936.1666666666666,49.71166032953105,928.2083333333334,59.02249683143219C920.25,68.33333333333333,920.25,76.66666666666667,920.25,80.83333333333333L920.25,85" id="edge20" class="relation" marker-start="url(#extensionStart)"></path><path d="M660,108.81823461091754L690.5416666666666,114.84852884243128C721.0833333333334,120.87882307394504,782.1666666666666,132.93941153697253,812.7083333333334,143.13637243515294C843.25,153.33333333333334,843.25,161.66666666666666,843.25,165.83333333333334L843.25,170" id="edge21" class="relation" marker-start="url(#extensionStart)"></path><path d="M1004,24.909200968523002L1018.2083333333334,30.75766747376917C1032.4166666666667,36.60613397901533,1060.8333333333333,48.30306698950767,1075.0416666666667,58.3182001614205C1089.25,68.33333333333333,1089.25,76.66666666666667,1089.25,80.83333333333333L1089.25,85" id="edge22" class="relation" marker-start="url(#extensionStart)"></path><path d="M1449.25,111.07566765578635L1426.8333333333333,116.72972304648863C1404.4166666666667,122.38377843719088,1359.5833333333333,133.69188921859543,1337.1666666666667,143.5126112759644C1314.75,153.33333333333334,1314.75,161.66666666666666,1314.75,165.83333333333334L1314.75,170" id="edge23" class="relation" marker-start="url(#extensionStart)"></path><path d="M1004,20.829706202393908L1039.2916666666667,27.358088501994924C1074.5833333333333,33.88647080159594,1145.1666666666667,46.94323540079797,1180.4583333333333,57.63828436706566C1215.75,68.33333333333333,1215.75,76.66666666666667,1215.75,80.83333333333333L1215.75,85" id="edge24" class="relation" marker-start="url(#extensionStart)"></path><path d="M1004,19.677935943060497L1059.5416666666667,26.398279952550414C1115.0833333333333,33.11862396204033,1226.1666666666667,46.559311981020166,1281.7083333333333,57.44632265717675C1337.25,68.33333333333333,1337.25,76.66666666666667,1337.25,80.83333333333333L1337.25,85" id="edge25" class="relation" marker-start="url(#extensionStart)"></path><path d="M3646,112.73809523809524L3657.2916666666665,118.11507936507935C3668.5833333333335,123.4920634920635,3691.1666666666665,134.24603174603175,3702.4583333333335,143.78968253968253C3713.75,153.33333333333334,3713.75,161.66666666666666,3713.75,165.83333333333334L3713.75,170" id="edge26" class="relation" marker-start="url(#extensionStart)"></path><path d="M1485.514705882353,120L1486.0539215686276,124.16666666666667C1486.593137254902,128.33333333333334,1487.671568627451,136.66666666666666,1488.2107843137255,145C1488.75,153.33333333333334,1488.75,161.66666666666666,1488.75,165.83333333333334L1488.75,170" id="edge27" class="relation" marker-start="url(#extensionStart)"></path><path d="M2405.25,120L2405.25,124.16666666666667C2405.25,128.33333333333334,2405.25,136.66666666666666,2405.25,145C2405.25,153.33333333333334,2405.25,161.66666666666666,2405.25,165.83333333333334L2405.25,170" id="edge28" class="relation" marker-start="url(#extensionStart)"></path><path d="M3646,106.62994350282486L3679.2916666666665,113.02495291902072C3712.5833333333335,119.41996233521657,3779.1666666666665,132.20998116760828,3812.4583333333335,142.7716572504708C3845.75,153.33333333333334,3845.75,161.66666666666666,3845.75,165.83333333333334L3845.75,170" id="edge29" class="relation" marker-start="url(#extensionStart)"></path><path d="M660,106.12908605737158L717.125,112.60757171447631C774.25,119.08605737158105,888.5,132.04302868579052,945.625,142.68818100956193C1002.75,153.33333333333334,1002.75,161.66666666666666,1002.75,165.83333333333334L1002.75,170" id="edge30" class="relation" marker-start="url(#extensionStart)"></path><path d="M2437.75,111.70833333333333L2457.3333333333335,117.25694444444444C2476.9166666666665,122.80555555555554,2516.0833333333335,133.90277777777777,2535.6666666666665,143.61805555555557C2555.25,153.33333333333334,2555.25,161.66666666666666,2555.25,165.83333333333334L2555.25,170" id="edge31" class="relation" marker-start="url(#extensionStart)"></path><path d="M2437.75,106.94847020933977L2484.0833333333335,113.29039184111649C2530.4166666666665,119.63231347289319,2623.0833333333335,132.3161567364466,2669.4166666666665,142.82474503488996C2715.75,153.33333333333334,2715.75,161.66666666666666,2715.75,165.83333333333334L2715.75,170" id="edge32" class="relation" marker-start="url(#extensionStart)"></path><path d="M1004,19.03846153846154L1083.875,25.865384615384617C1163.75,32.69230769230769,1323.5,46.34615384615385,1403.375,57.33974358974359C1483.25,68.33333333333333,1483.25,76.66666666666667,1483.25,80.83333333333333L1483.25,85" id="edge33" class="relation" marker-start="url(#extensionStart)"></path><path d="M2437.75,105.40789473684211L2511.5,112.00657894736842C2585.25,118.60526315789474,2732.75,131.80263157894737,2806.5,142.56798245614036C2880.25,153.33333333333334,2880.25,161.66666666666666,2880.25,165.83333333333334L2880.25,170" id="edge34" class="relation" marker-start="url(#extensionStart)"></path><path d="M1517.25,111.17867867867868L1539.3333333333333,116.81556556556556C1561.4166666666667,122.45245245245246,1605.5833333333333,133.72622622622623,1627.6666666666667,143.52977977977977C1649.75,153.33333333333334,1649.75,161.66666666666666,1649.75,165.83333333333334L1649.75,170" id="edge35" class="relation" marker-start="url(#extensionStart)"></path><path d="M2437.75,104.69769291964997L2537.0833333333335,111.4147440997083C2636.4166666666665,118.13179527976665,2835.0833333333335,131.56589763988333,2934.4166666666665,142.44961548660834C3033.75,153.33333333333334,3033.75,161.66666666666666,3033.75,165.83333333333334L3033.75,170" id="edge36" class="relation" marker-start="url(#extensionStart)"></path><path d="M1004,18.03901708648934L1237.5416666666667,25.03251423874112C1471.0833333333333,32.02601139099289,1938.1666666666667,46.013005695496446,2171.7083333333335,57.173169514414894C2405.25,68.33333333333333,2405.25,76.66666666666667,2405.25,80.83333333333333L2405.25,85" id="edge37" class="relation" marker-start="url(#extensionStart)"></path><path d="M1004,17.789937464468448L1440.75,24.82494788705704C1877.5,31.859958309645634,2751,45.92997915482281,3187.75,57.13165624407807C3624.5,68.33333333333333,3624.5,76.66666666666667,3624.5,80.83333333333333L3624.5,85" id="edge38" class="relation" marker-start="url(#extensionStart)"></path><path d="M1004,17.777828218630834L1459.9166666666667,24.814856848859026C1915.8333333333333,31.85188547908722,2827.6666666666665,45.925942739543615,3283.5833333333335,57.12963803643847C3739.5,68.33333333333333,3739.5,76.66666666666667,3739.5,80.83333333333333L3739.5,85" id="edge39" class="relation" marker-start="url(#extensionStart)"></path></svg>