<svg id="mermaid-1587378193583" width="5978.75" xmlns="http://www.w3.org/2000/svg" height="245" viewBox="-10 -10 3992.5 225"><style>#mermaid-1587378193583 .label{font-family:'trebuchet ms', verdana, arial;font-family:var(--mermaid-font-family);color:#333}#mermaid-1587378193583 .label text{fill:#333}#mermaid-1587378193583 .node rect,#mermaid-1587378193583 .node circle,#mermaid-1587378193583 .node ellipse,#mermaid-1587378193583 .node polygon,#mermaid-1587378193583 .node path{fill:#ECECFF;stroke:#9370db;stroke-width:1px}#mermaid-1587378193583 .node .label{text-align:center}#mermaid-1587378193583 .node.clickable{cursor:pointer}#mermaid-1587378193583 .arrowheadPath{fill:#333}#mermaid-1587378193583 .edgePath .path{stroke:#333;stroke-width:1.5px}#mermaid-1587378193583 .edgeLabel{background-color:#e8e8e8;text-align:center}#mermaid-1587378193583 .cluster rect{fill:#ffffde;stroke:#aa3;stroke-width:1px}#mermaid-1587378193583 .cluster text{fill:#333}#mermaid-1587378193583 div.mermaidTooltip{position:absolute;text-align:center;max-width:200px;padding:2px;font-family:'trebuchet ms', verdana, arial;font-family:var(--mermaid-font-family);font-size:12px;background:#ffffde;border:1px solid #aa3;border-radius:2px;pointer-events:none;z-index:100}#mermaid-1587378193583 .actor{stroke:#ccf;fill:#ECECFF}#mermaid-1587378193583 text.actor{fill:#000;stroke:none}#mermaid-1587378193583 .actor-line{stroke:grey}#mermaid-1587378193583 .messageLine0{stroke-width:1.5;stroke-dasharray:'2 2';stroke:#333}#mermaid-1587378193583 .messageLine1{stroke-width:1.5;stroke-dasharray:'2 2';stroke:#333}#mermaid-1587378193583 #arrowhead{fill:#333}#mermaid-1587378193583 .sequenceNumber{fill:#fff}#mermaid-1587378193583 #sequencenumber{fill:#333}#mermaid-1587378193583 #crosshead path{fill:#333 !important;stroke:#333 !important}#mermaid-1587378193583 .messageText{fill:#333;stroke:none}#mermaid-1587378193583 .labelBox{stroke:#ccf;fill:#ECECFF}#mermaid-1587378193583 .labelText{fill:#000;stroke:none}#mermaid-1587378193583 .loopText{fill:#000;stroke:none}#mermaid-1587378193583 .loopLine{stroke-width:2;stroke-dasharray:'2 2';stroke:#ccf}#mermaid-1587378193583 .note{stroke:#aa3;fill:#fff5ad}#mermaid-1587378193583 .noteText{fill:black;stroke:none;font-family:'trebuchet ms', verdana, arial;font-family:var(--mermaid-font-family);font-size:14px}#mermaid-1587378193583 .activation0{fill:#f4f4f4;stroke:#666}#mermaid-1587378193583 .activation1{fill:#f4f4f4;stroke:#666}#mermaid-1587378193583 .activation2{fill:#f4f4f4;stroke:#666}#mermaid-1587378193583 .mermaid-main-font{font-family:"trebuchet ms", verdana, arial;font-family:var(--mermaid-font-family)}#mermaid-1587378193583 .section{stroke:none;opacity:0.2}#mermaid-1587378193583 .section0{fill:rgba(102,102,255,0.49)}#mermaid-1587378193583 .section2{fill:#fff400}#mermaid-1587378193583 .section1,#mermaid-1587378193583 .section3{fill:#fff;opacity:0.2}#mermaid-1587378193583 .sectionTitle0{fill:#333}#mermaid-1587378193583 .sectionTitle1{fill:#333}#mermaid-1587378193583 .sectionTitle2{fill:#333}#mermaid-1587378193583 .sectionTitle3{fill:#333}#mermaid-1587378193583 .sectionTitle{text-anchor:start;font-size:11px;text-height:14px;font-family:'trebuchet ms', verdana, arial;font-family:var(--mermaid-font-family)}#mermaid-1587378193583 .grid .tick{stroke:#d3d3d3;opacity:0.8;shape-rendering:crispEdges}#mermaid-1587378193583 .grid .tick text{font-family:'trebuchet ms', verdana, arial;font-family:var(--mermaid-font-family)}#mermaid-1587378193583 .grid path{stroke-width:0}#mermaid-1587378193583 .today{fill:none;stroke:red;stroke-width:2px}#mermaid-1587378193583 .task{stroke-width:2}#mermaid-1587378193583 .taskText{text-anchor:middle;font-family:'trebuchet ms', verdana, arial;font-family:var(--mermaid-font-family)}#mermaid-1587378193583 .taskText:not([font-size]){font-size:11px}#mermaid-1587378193583 .taskTextOutsideRight{fill:#000;text-anchor:start;font-size:11px;font-family:'trebuchet ms', verdana, arial;font-family:var(--mermaid-font-family)}#mermaid-1587378193583 .taskTextOutsideLeft{fill:#000;text-anchor:end;font-size:11px}#mermaid-1587378193583 .task.clickable{cursor:pointer}#mermaid-1587378193583 .taskText.clickable{cursor:pointer;fill:#003163 !important;font-weight:bold}#mermaid-1587378193583 .taskTextOutsideLeft.clickable{cursor:pointer;fill:#003163 !important;font-weight:bold}#mermaid-1587378193583 .taskTextOutsideRight.clickable{cursor:pointer;fill:#003163 !important;font-weight:bold}#mermaid-1587378193583 .taskText0,#mermaid-1587378193583 .taskText1,#mermaid-1587378193583 .taskText2,#mermaid-1587378193583 .taskText3{fill:#fff}#mermaid-1587378193583 .task0,#mermaid-1587378193583 .task1,#mermaid-1587378193583 .task2,#mermaid-1587378193583 .task3{fill:#8a90dd;stroke:#534fbc}#mermaid-1587378193583 .taskTextOutside0,#mermaid-1587378193583 .taskTextOutside2{fill:#000}#mermaid-1587378193583 .taskTextOutside1,#mermaid-1587378193583 .taskTextOutside3{fill:#000}#mermaid-1587378193583 .active0,#mermaid-1587378193583 .active1,#mermaid-1587378193583 .active2,#mermaid-1587378193583 .active3{fill:#bfc7ff;stroke:#534fbc}#mermaid-1587378193583 .activeText0,#mermaid-1587378193583 .activeText1,#mermaid-1587378193583 .activeText2,#mermaid-1587378193583 .activeText3{fill:#000 !important}#mermaid-1587378193583 .done0,#mermaid-1587378193583 .done1,#mermaid-1587378193583 .done2,#mermaid-1587378193583 .done3{stroke:grey;fill:#d3d3d3;stroke-width:2}#mermaid-1587378193583 .doneText0,#mermaid-1587378193583 .doneText1,#mermaid-1587378193583 .doneText2,#mermaid-1587378193583 .doneText3{fill:#000 !important}#mermaid-1587378193583 .crit0,#mermaid-1587378193583 .crit1,#mermaid-1587378193583 .crit2,#mermaid-1587378193583 .crit3{stroke:#f88;fill:red;stroke-width:2}#mermaid-1587378193583 .activeCrit0,#mermaid-1587378193583 .activeCrit1,#mermaid-1587378193583 .activeCrit2,#mermaid-1587378193583 .activeCrit3{stroke:#f88;fill:#bfc7ff;stroke-width:2}#mermaid-1587378193583 .doneCrit0,#mermaid-1587378193583 .doneCrit1,#mermaid-1587378193583 .doneCrit2,#mermaid-1587378193583 .doneCrit3{stroke:#f88;fill:#d3d3d3;stroke-width:2;cursor:pointer;shape-rendering:crispEdges}#mermaid-1587378193583 .milestone{transform:rotate(45deg) scale(0.8, 0.8)}#mermaid-1587378193583 .milestoneText{font-style:italic}#mermaid-1587378193583 .doneCritText0,#mermaid-1587378193583 .doneCritText1,#mermaid-1587378193583 .doneCritText2,#mermaid-1587378193583 .doneCritText3{fill:#000 !important}#mermaid-1587378193583 .activeCritText0,#mermaid-1587378193583 .activeCritText1,#mermaid-1587378193583 .activeCritText2,#mermaid-1587378193583 .activeCritText3{fill:#000 !important}#mermaid-1587378193583 .titleText{text-anchor:middle;font-size:18px;fill:#000;font-family:'trebuchet ms', verdana, arial;font-family:var(--mermaid-font-family)}#mermaid-1587378193583 g.classGroup text{fill:#9370db;stroke:none;font-family:'trebuchet ms', verdana, arial;font-family:var(--mermaid-font-family);font-size:10px}#mermaid-1587378193583 g.classGroup text .title{font-weight:bolder}#mermaid-1587378193583 g.clickable{cursor:pointer}#mermaid-1587378193583 g.classGroup rect{fill:#ECECFF;stroke:#9370db}#mermaid-1587378193583 g.classGroup line{stroke:#9370db;stroke-width:1}#mermaid-1587378193583 .classLabel .box{stroke:none;stroke-width:0;fill:#ECECFF;opacity:0.5}#mermaid-1587378193583 .classLabel .label{fill:#9370db;font-size:10px}#mermaid-1587378193583 .relation{stroke:#9370db;stroke-width:1;fill:none}#mermaid-1587378193583 .dashed-line{stroke-dasharray:3}#mermaid-1587378193583 #compositionStart{fill:#9370db;stroke:#9370db;stroke-width:1}#mermaid-1587378193583 #compositionEnd{fill:#9370db;stroke:#9370db;stroke-width:1}#mermaid-1587378193583 #aggregationStart{fill:#ECECFF;stroke:#9370db;stroke-width:1}#mermaid-1587378193583 #aggregationEnd{fill:#ECECFF;stroke:#9370db;stroke-width:1}#mermaid-1587378193583 #dependencyStart{fill:#9370db;stroke:#9370db;stroke-width:1}#mermaid-1587378193583 #dependencyEnd{fill:#9370db;stroke:#9370db;stroke-width:1}#mermaid-1587378193583 #extensionStart{fill:#9370db;stroke:#9370db;stroke-width:1}#mermaid-1587378193583 #extensionEnd{fill:#9370db;stroke:#9370db;stroke-width:1}#mermaid-1587378193583 .commit-id,#mermaid-1587378193583 .commit-msg,#mermaid-1587378193583 .branch-label{fill:lightgrey;color:lightgrey;font-family:'trebuchet ms', verdana, arial;font-family:var(--mermaid-font-family)}#mermaid-1587378193583 .pieTitleText{text-anchor:middle;font-size:25px;fill:#000;font-family:'trebuchet ms', verdana, arial;font-family:var(--mermaid-font-family)}#mermaid-1587378193583 .slice{font-family:'trebuchet ms', verdana, arial;font-family:var(--mermaid-font-family)}#mermaid-1587378193583 g.stateGroup text{fill:#9370db;stroke:none;font-size:10px;font-family:'trebuchet ms', verdana, arial;font-family:var(--mermaid-font-family)}#mermaid-1587378193583 g.stateGroup text{fill:#9370db;stroke:none;font-size:10px}#mermaid-1587378193583 g.stateGroup .state-title{font-weight:bolder;fill:#000}#mermaid-1587378193583 g.stateGroup rect{fill:#ECECFF;stroke:#9370db}#mermaid-1587378193583 g.stateGroup line{stroke:#9370db;stroke-width:1}#mermaid-1587378193583 .transition{stroke:#9370db;stroke-width:1;fill:none}#mermaid-1587378193583 .stateGroup .composit{fill:white;border-bottom:1px}#mermaid-1587378193583 .stateGroup .alt-composit{fill:#e0e0e0;border-bottom:1px}#mermaid-1587378193583 .state-note{stroke:#aa3;fill:#fff5ad}#mermaid-1587378193583 .state-note text{fill:black;stroke:none;font-size:10px}#mermaid-1587378193583 .stateLabel .box{stroke:none;stroke-width:0;fill:#ECECFF;opacity:0.5}#mermaid-1587378193583 .stateLabel text{fill:#000;font-size:10px;font-weight:bold;font-family:'trebuchet ms', verdana, arial;font-family:var(--mermaid-font-family)}:root{--mermaid-font-family: '"trebuchet ms", verdana, arial';--mermaid-font-family: "Comic Sans MS", "Comic Sans", cursive}:root { --mermaid-font-family: "trebuchet ms", verdana, arial;}</style><style>#mermaid-1587378193583 {    color: rgb(0, 0, 0);    font: 16px "trebuchet ms", verdana, arial;  }</style><g></g><defs><marker id="extensionStart" class="extension" refX="0" refY="7" markerWidth="190" markerHeight="240" orient="auto"><path d="M 1,7 L18,13 V 1 Z"></path></marker></defs><defs><marker id="extensionEnd" refX="19" refY="7" markerWidth="20" markerHeight="28" orient="auto"><path d="M 1,1 V 13 L18,7 Z"></path></marker></defs><defs><marker id="compositionStart" class="extension" refX="0" refY="7" markerWidth="190" markerHeight="240" orient="auto"><path d="M 18,7 L9,13 L1,7 L9,1 Z"></path></marker></defs><defs><marker id="compositionEnd" refX="19" refY="7" markerWidth="20" markerHeight="28" orient="auto"><path d="M 18,7 L9,13 L1,7 L9,1 Z"></path></marker></defs><defs><marker id="aggregationStart" class="extension" refX="0" refY="7" markerWidth="190" markerHeight="240" orient="auto"><path d="M 18,7 L9,13 L1,7 L9,1 Z"></path></marker></defs><defs><marker id="aggregationEnd" refX="19" refY="7" markerWidth="20" markerHeight="28" orient="auto"><path d="M 18,7 L9,13 L1,7 L9,1 Z"></path></marker></defs><defs><marker id="dependencyStart" class="extension" refX="0" refY="7" markerWidth="190" markerHeight="240" orient="auto"><path d="M 5,7 L9,13 L1,7 L9,1 Z"></path></marker></defs><defs><marker id="dependencyEnd" refX="19" refY="7" markerWidth="20" markerHeight="28" orient="auto"><path d="M 18,7 L9,13 L14,7 L9,1 Z"></path></marker></defs><g id="classid-NullLiteral-0" class="classGroup " transform="translate(3223.5,170 )"><rect x="0" y="0" width="64" height="35"></rect><text y="15" x="0"><tspan class="title" x="5">NullLiteral</tspan></text><line x1="0" y1="24" y2="24" x2="64"></line><text x="5" y="34" fill="white" class="classText"></text><line x1="0" y1="29" y2="29" x2="64"></line><text x="5" y="44" fill="white" class="classText"></text></g><g id="classid-IfStatement-1" class="classGroup " transform="translate(189.5,170 )"><rect x="0" y="0" width="71" height="35"></rect><text y="15" x="0"><tspan class="title" x="5">IfStatement</tspan></text><line x1="0" y1="24" y2="24" x2="71"></line><text x="5" y="34" fill="white" class="classText"></text><line x1="0" y1="29" y2="29" x2="71"></line><text x="5" y="44" fill="white" class="classText"></text></g><g id="classid-TemplateElement-2" class="classGroup " transform="translate(3337.5,170 )"><rect x="0" y="0" width="100" height="35"></rect><text y="15" x="0"><tspan class="title" x="5">TemplateElement</tspan></text><line x1="0" y1="24" y2="24" x2="100"></line><text x="5" y="34" fill="white" class="classText"></text><line x1="0" y1="29" y2="29" x2="100"></line><text x="5" y="44" fill="white" class="classText"></text></g><g id="classid-ObjectExpression-3" class="classGroup " transform="translate(1845.5,170 )"><rect x="0" y="0" width="97" height="35"></rect><text y="15" x="0"><tspan class="title" x="5">ObjectExpression</tspan></text><line x1="0" y1="24" y2="24" x2="97"></line><text x="5" y="34" fill="white" class="classText"></text><line x1="0" y1="29" y2="29" x2="97"></line><text x="5" y="44" fill="white" class="classText"></text></g><g id="classid-StringLiteral-4" class="classGroup " transform="translate(3487.5,170 )"><rect x="0" y="0" width="74" height="35"></rect><text y="15" x="0"><tspan class="title" x="5">StringLiteral</tspan></text><line x1="0" y1="24" y2="24" x2="74"></line><text x="5" y="34" fill="white" class="classText"></text><line x1="0" y1="29" y2="29" x2="74"></line><text x="5" y="44" fill="white" class="classText"></text></g><g id="classid-ReturnStatement-5" class="classGroup " transform="translate(310.5,170 )"><rect x="0" y="0" width="100" height="35"></rect><text y="15" x="0"><tspan class="title" x="5">ReturnStatement</tspan></text><line x1="0" y1="24" y2="24" x2="100"></line><text x="5" y="34" fill="white" class="classText"></text><line x1="0" y1="29" y2="29" x2="100"></line><text x="5" y="44" fill="white" class="classText"></text></g><g id="classid-Program-6" class="classGroup " transform="translate(0,85 )"><rect x="0" y="0" width="54" height="35"></rect><text y="15" x="0"><tspan class="title" x="5">Program</tspan></text><line x1="0" y1="24" y2="24" x2="54"></line><text x="5" y="34" fill="white" class="classText"></text><line x1="0" y1="29" y2="29" x2="54"></line><text x="5" y="44" fill="white" class="classText"></text></g><g id="classid-SwitchCase-7" class="classGroup " transform="translate(104,85 )"><rect x="0" y="0" width="67" height="35"></rect><text y="15" x="0"><tspan class="title" x="5">SwitchCase</tspan></text><line x1="0" y1="24" y2="24" x2="67"></line><text x="5" y="34" fill="white" class="classText"></text><line x1="0" y1="29" y2="29" x2="67"></line><text x="5" y="44" fill="white" class="classText"></text></g><g id="classid-ExpressionStatement-8" class="classGroup " transform="translate(460.5,170 )"><rect x="0" y="0" width="119" height="35"></rect><text y="15" x="0"><tspan class="title" x="5">ExpressionStatement</tspan></text><line x1="0" y1="24" y2="24" x2="119"></line><text x="5" y="34" fill="white" class="classText"></text><line x1="0" y1="29" y2="29" x2="119"></line><text x="5" y="44" fill="white" class="classText"></text></g><g id="classid-BreakStatement-9" class="classGroup " transform="translate(629.5,170 )"><rect x="0" y="0" width="94" height="35"></rect><text y="15" x="0"><tspan class="title" x="5">BreakStatement</tspan></text><line x1="0" y1="24" y2="24" x2="94"></line><text x="5" y="34" fill="white" class="classText"></text><line x1="0" y1="29" y2="29" x2="94"></line><text x="5" y="44" fill="white" class="classText"></text></g><g id="classid-CommentLine-10" class="classGroup " transform="translate(221,85 )"><rect x="0" y="0" width="81" height="35"></rect><text y="15" x="0"><tspan class="title" x="5">CommentLine</tspan></text><line x1="0" y1="24" y2="24" x2="81"></line><text x="5" y="34" fill="white" class="classText"></text><line x1="0" y1="29" y2="29" x2="81"></line><text x="5" y="44" fill="white" class="classText"></text></g><g id="classid-ClassBody-11" class="classGroup " transform="translate(352,85 )"><rect x="0" y="0" width="60" height="35"></rect><text y="15" x="0"><tspan class="title" x="5">ClassBody</tspan></text><line x1="0" y1="24" y2="24" x2="60"></line><text x="5" y="34" fill="white" class="classText"></text><line x1="0" y1="29" y2="29" x2="60"></line><text x="5" y="44" fill="white" class="classText"></text></g><g id="classid-VariableDeclarator-12" class="classGroup " transform="translate(462,85 )"><rect x="0" y="0" width="105" height="35"></rect><text y="15" x="0"><tspan class="title" x="5">VariableDeclarator</tspan></text><line x1="0" y1="24" y2="24" x2="105"></line><text x="5" y="34" fill="white" class="classText"></text><line x1="0" y1="29" y2="29" x2="105"></line><text x="5" y="44" fill="white" class="classText"></text></g><g id="classid-BlockStatement-13" class="classGroup " transform="translate(773.5,170 )"><rect x="0" y="0" width="91" height="35"></rect><text y="15" x="0"><tspan class="title" x="5">BlockStatement</tspan></text><line x1="0" y1="24" y2="24" x2="91"></line><text x="5" y="34" fill="white" class="classText"></text><line x1="0" y1="29" y2="29" x2="91"></line><text x="5" y="44" fill="white" class="classText"></text></g><g id="classid-SwitchStatement-14" class="classGroup " transform="translate(914.5,170 )"><rect x="0" y="0" width="98" height="35"></rect><text y="15" x="0"><tspan class="title" x="5">SwitchStatement</tspan></text><line x1="0" y1="24" y2="24" x2="98"></line><text x="5" y="34" fill="white" class="classText"></text><line x1="0" y1="29" y2="29" x2="98"></line><text x="5" y="44" fill="white" class="classText"></text></g><g id="classid-File-15" class="classGroup " transform="translate(617,85 )"><rect x="0" y="0" width="27" height="35"></rect><text y="15" x="0"><tspan class="title" x="5">File</tspan></text><line x1="0" y1="24" y2="24" x2="27"></line><text x="5" y="34" fill="white" class="classText"></text><line x1="0" y1="29" y2="29" x2="27"></line><text x="5" y="44" fill="white" class="classText"></text></g><g id="classid-ArrayExpression-16" class="classGroup " transform="translate(1992.5,170 )"><rect x="0" y="0" width="94" height="35"></rect><text y="15" x="0"><tspan class="title" x="5">ArrayExpression</tspan></text><line x1="0" y1="24" y2="24" x2="94"></line><text x="5" y="34" fill="white" class="classText"></text><line x1="0" y1="29" y2="29" x2="94"></line><text x="5" y="44" fill="white" class="classText"></text></g><g id="classid-ForStatement-17" class="classGroup " transform="translate(1062.5,170 )"><rect x="0" y="0" width="80" height="35"></rect><text y="15" x="0"><tspan class="title" x="5">ForStatement</tspan></text><line x1="0" y1="24" y2="24" x2="80"></line><text x="5" y="34" fill="white" class="classText"></text><line x1="0" y1="29" y2="29" x2="80"></line><text x="5" y="44" fill="white" class="classText"></text></g><g id="classid-Statement-18" class="classGroup " transform="translate(694,85 )"><rect x="0" y="0" width="64" height="35"></rect><text y="15" x="0"><tspan class="title" x="5">Statement</tspan></text><line x1="0" y1="24" y2="24" x2="64"></line><text x="5" y="34" fill="white" class="classText"></text><line x1="0" y1="29" y2="29" x2="64"></line><text x="5" y="44" fill="white" class="classText"></text></g><g id="classid-ObjectProperty-19" class="classGroup " transform="translate(1225.75,85 )"><rect x="0" y="0" width="86" height="35"></rect><text y="15" x="0"><tspan class="title" x="5">ObjectProperty</tspan></text><line x1="0" y1="24" y2="24" x2="86"></line><text x="5" y="34" fill="white" class="classText"></text><line x1="0" y1="29" y2="29" x2="86"></line><text x="5" y="44" fill="white" class="classText"></text></g><g id="classid-ExportDefaultDeclaration-20" class="classGroup " transform="translate(1192.5,170 )"><rect x="0" y="0" width="138" height="35"></rect><text y="15" x="0"><tspan class="title" x="5">ExportDefaultDeclaration</tspan></text><line x1="0" y1="24" y2="24" x2="138"></line><text x="5" y="34" fill="white" class="classText"></text><line x1="0" y1="29" y2="29" x2="138"></line><text x="5" y="44" fill="white" class="classText"></text></g><g id="classid-Parser-21" class="classGroup " transform="translate(899.5,0 )"><rect x="0" y="0" width="43" height="35"></rect><text y="15" x="0"><tspan class="title" x="5">Parser</tspan></text><line x1="0" y1="24" y2="24" x2="43"></line><text x="5" y="34" fill="white" class="classText"></text><line x1="0" y1="29" y2="29" x2="43"></line><text x="5" y="44" fill="white" class="classText"></text></g><g id="classid-ClassDeclaration-22" class="classGroup " transform="translate(1380.5,170 )"><rect x="0" y="0" width="93" height="35"></rect><text y="15" x="0"><tspan class="title" x="5">ClassDeclaration</tspan></text><line x1="0" y1="24" y2="24" x2="93"></line><text x="5" y="34" fill="white" class="classText"></text><line x1="0" y1="29" y2="29" x2="93"></line><text x="5" y="44" fill="white" class="classText"></text></g><g id="classid-TemplateLiteral-23" class="classGroup " transform="translate(3611.5,170 )"><rect x="0" y="0" width="90" height="35"></rect><text y="15" x="0"><tspan class="title" x="5">TemplateLiteral</tspan></text><line x1="0" y1="24" y2="24" x2="90"></line><text x="5" y="34" fill="white" class="classText"></text><line x1="0" y1="29" y2="29" x2="90"></line><text x="5" y="44" fill="white" class="classText"></text></g><g id="classid-VariableDeclaration-24" class="classGroup " transform="translate(1523.5,170 )"><rect x="0" y="0" width="110" height="35"></rect><text y="15" x="0"><tspan class="title" x="5">VariableDeclaration</tspan></text><line x1="0" y1="24" y2="24" x2="110"></line><text x="5" y="34" fill="white" class="classText"></text><line x1="0" y1="29" y2="29" x2="110"></line><text x="5" y="44" fill="white" class="classText"></text></g><g id="classid-Identifier-25" class="classGroup " transform="translate(1361.75,85 )"><rect x="0" y="0" width="57" height="35"></rect><text y="15" x="0"><tspan class="title" x="5">Identifier</tspan></text><line x1="0" y1="24" y2="24" x2="57"></line><text x="5" y="34" fill="white" class="classText"></text><line x1="0" y1="29" y2="29" x2="57"></line><text x="5" y="44" fill="white" class="classText"></text></g><g id="classid-UpdateExpression-26" class="classGroup " transform="translate(2136.5,170 )"><rect x="0" y="0" width="101" height="35"></rect><text y="15" x="0"><tspan class="title" x="5">UpdateExpression</tspan></text><line x1="0" y1="24" y2="24" x2="101"></line><text x="5" y="34" fill="white" class="classText"></text><line x1="0" y1="29" y2="29" x2="101"></line><text x="5" y="44" fill="white" class="classText"></text></g><g id="classid-ConditionalExpression-27" class="classGroup " transform="translate(2287.5,170 )"><rect x="0" y="0" width="122" height="35"></rect><text y="15" x="0"><tspan class="title" x="5">ConditionalExpression</tspan></text><line x1="0" y1="24" y2="24" x2="122"></line><text x="5" y="34" fill="white" class="classText"></text><line x1="0" y1="29" y2="29" x2="122"></line><text x="5" y="44" fill="white" class="classText"></text></g><g id="classid-Declaration-28" class="classGroup " transform="translate(1501.25,85 )"><rect x="0" y="0" width="68" height="35"></rect><text y="15" x="0"><tspan class="title" x="5">Declaration</tspan></text><line x1="0" y1="24" y2="24" x2="68"></line><text x="5" y="34" fill="white" class="classText"></text><line x1="0" y1="29" y2="29" x2="68"></line><text x="5" y="44" fill="white" class="classText"></text></g><g id="classid-BinaryExpression-29" class="classGroup " transform="translate(2459.5,170 )"><rect x="0" y="0" width="99" height="35"></rect><text y="15" x="0"><tspan class="title" x="5">BinaryExpression</tspan></text><line x1="0" y1="24" y2="24" x2="99"></line><text x="5" y="34" fill="white" class="classText"></text><line x1="0" y1="29" y2="29" x2="99"></line><text x="5" y="44" fill="white" class="classText"></text></g><g id="classid-FunctionDeclaration-30" class="classGroup " transform="translate(1683.5,170 )"><rect x="0" y="0" width="112" height="35"></rect><text y="15" x="0"><tspan class="title" x="5">FunctionDeclaration</tspan></text><line x1="0" y1="24" y2="24" x2="112"></line><text x="5" y="34" fill="white" class="classText"></text><line x1="0" y1="29" y2="29" x2="112"></line><text x="5" y="44" fill="white" class="classText"></text></g><g id="classid-MemberExpression-31" class="classGroup " transform="translate(2608.5,170 )"><rect x="0" y="0" width="107" height="35"></rect><text y="15" x="0"><tspan class="title" x="5">MemberExpression</tspan></text><line x1="0" y1="24" y2="24" x2="107"></line><text x="5" y="34" fill="white" class="classText"></text><line x1="0" y1="29" y2="29" x2="107"></line><text x="5" y="44" fill="white" class="classText"></text></g><g id="classid-LogicalExpression-32" class="classGroup " transform="translate(2765.5,170 )"><rect x="0" y="0" width="100" height="35"></rect><text y="15" x="0"><tspan class="title" x="5">LogicalExpression</tspan></text><line x1="0" y1="24" y2="24" x2="100"></line><text x="5" y="34" fill="white" class="classText"></text><line x1="0" y1="29" y2="29" x2="100"></line><text x="5" y="44" fill="white" class="classText"></text></g><g id="classid-Node-33" class="classGroup " transform="translate(992.5,0 )"><rect x="0" y="0" width="36" height="35"></rect><text y="15" x="0"><tspan class="title" x="5">Node</tspan></text><line x1="0" y1="24" y2="24" x2="36"></line><text x="5" y="34" fill="white" class="classText"></text><line x1="0" y1="29" y2="29" x2="36"></line><text x="5" y="44" fill="white" class="classText"></text></g><g id="classid-BooleanLiteral-34" class="classGroup " transform="translate(3751.5,170 )"><rect x="0" y="0" width="84" height="35"></rect><text y="15" x="0"><tspan class="title" x="5">BooleanLiteral</tspan></text><line x1="0" y1="24" y2="24" x2="84"></line><text x="5" y="34" fill="white" class="classText"></text><line x1="0" y1="29" y2="29" x2="84"></line><text x="5" y="44" fill="white" class="classText"></text></g><g id="classid-Expression-35" class="classGroup " transform="translate(2476.5,85 )"><rect x="0" y="0" width="65" height="35"></rect><text y="15" x="0"><tspan class="title" x="5">Expression</tspan></text><line x1="0" y1="24" y2="24" x2="65"></line><text x="5" y="34" fill="white" class="classText"></text><line x1="0" y1="29" y2="29" x2="65"></line><text x="5" y="44" fill="white" class="classText"></text></g><g id="classid-AssignmentExpression-36" class="classGroup " transform="translate(2915.5,170 )"><rect x="0" y="0" width="125" height="35"></rect><text y="15" x="0"><tspan class="title" x="5">AssignmentExpression</tspan></text><line x1="0" y1="24" y2="24" x2="125"></line><text x="5" y="34" fill="white" class="classText"></text><line x1="0" y1="29" y2="29" x2="125"></line><text x="5" y="44" fill="white" class="classText"></text></g><g id="classid-CallExpression-37" class="classGroup " transform="translate(3090.5,170 )"><rect x="0" y="0" width="83" height="35"></rect><text y="15" x="0"><tspan class="title" x="5">CallExpression</tspan></text><line x1="0" y1="24" y2="24" x2="83"></line><text x="5" y="34" fill="white" class="classText"></text><line x1="0" y1="29" y2="29" x2="83"></line><text x="5" y="44" fill="white" class="classText"></text></g><g id="classid-Literal-38" class="classGroup " transform="translate(3647.5,85 )"><rect x="0" y="0" width="43" height="35"></rect><text y="15" x="0"><tspan class="title" x="5">Literal</tspan></text><line x1="0" y1="24" y2="24" x2="43"></line><text x="5" y="34" fill="white" class="classText"></text><line x1="0" y1="29" y2="29" x2="43"></line><text x="5" y="44" fill="white" class="classText"></text></g><g id="classid-NumericLiteral-39" class="classGroup " transform="translate(3885.5,170 )"><rect x="0" y="0" width="87" height="35"></rect><text y="15" x="0"><tspan class="title" x="5">NumericLiteral</tspan></text><line x1="0" y1="24" y2="24" x2="87"></line><text x="5" y="34" fill="white" class="classText"></text><line x1="0" y1="29" y2="29" x2="87"></line><text x="5" y="44" fill="white" class="classText"></text></g><g id="classid-ClassMethod-40" class="classGroup " transform="translate(3740.5,85 )"><rect x="0" y="0" width="73" height="35"></rect><text y="15" x="0"><tspan class="title" x="5">ClassMethod</tspan></text><line x1="0" y1="24" y2="24" x2="73"></line><text x="5" y="34" fill="white" class="classText"></text><line x1="0" y1="29" y2="29" x2="73"></line><text x="5" y="44" fill="white" class="classText"></text></g><g id="classid-CommentBlock-41" class="classGroup " transform="translate(3863.5,85 )"><rect x="0" y="0" width="87" height="35"></rect><text y="15" x="0"><tspan class="title" x="5">CommentBlock</tspan></text><line x1="0" y1="24" y2="24" x2="87"></line><text x="5" y="34" fill="white" class="classText"></text><line x1="0" y1="29" y2="29" x2="87"></line><text x="5" y="44" fill="white" class="classText"></text></g><path d="M3647.5,104.70979443772673L3582.1666666666665,111.42482869810561C3516.8333333333335,118.13986295848447,3386.1666666666665,131.56993147924223,3320.8333333333335,142.45163240628779C3255.5,153.33333333333334,3255.5,161.66666666666666,3255.5,165.83333333333334L3255.5,170" id="edge0" class="relation" marker-start="url(#extensionStart)"></path><path d="M694,105.21457085828344L615.8333333333334,111.8454757152362C537.6666666666666,118.47638057218894,381.3333333333333,131.73819028609446,303.1666666666667,142.5357618097139C225,153.33333333333334,225,161.66666666666666,225,165.83333333333334L225,170" id="edge1" class="relation" marker-start="url(#extensionStart)"></path><path d="M3647.5,105.74600355239787L3604.1666666666665,112.28833629366488C3560.8333333333335,118.83066903493192,3474.1666666666665,131.91533451746594,3430.8333333333335,142.62433392539964C3387.5,153.33333333333334,3387.5,161.66666666666666,3387.5,165.83333333333334L3387.5,170" id="edge2" class="relation" marker-start="url(#extensionStart)"></path><path d="M2476.5,104.7459349593496L2379.4166666666665,111.454945799458C2282.3333333333335,118.1639566395664,2088.1666666666665,131.5819783197832,1991.0833333333333,142.45765582655827C1894,153.33333333333334,1894,161.66666666666666,1894,165.83333333333334L1894,170" id="edge3" class="relation" marker-start="url(#extensionStart)"></path><path d="M3647.5,108.82352941176471L3627,114.8529411764706C3606.5,120.88235294117646,3565.5,132.94117647058823,3545,143.1372549019608C3524.5,153.33333333333334,3524.5,161.66666666666666,3524.5,165.83333333333334L3524.5,170" id="edge4" class="relation" marker-start="url(#extensionStart)"></path><path d="M694,106.22093023255815L638.4166666666666,112.6841085271318C582.8333333333334,119.14728682170544,471.6666666666667,132.07364341085272,416.0833333333333,142.70348837209303C360.5,153.33333333333334,360.5,161.66666666666666,360.5,165.83333333333334L360.5,170" id="edge5" class="relation" marker-start="url(#extensionStart)"></path><path d="M992.5,18.27783426537875L831.5833333333334,25.231528554482292C670.6666666666666,32.185222843585834,348.8333333333333,46.09261142179292,187.91666666666666,57.212972377563126C27,68.33333333333333,27,76.66666666666667,27,80.83333333333333L27,85" id="edge6" class="relation" marker-start="url(#extensionStart)"></path><path d="M992.5,18.376288659793815L850,25.313573883161514C707.5,32.25085910652921,422.5,46.12542955326461,280,57.22938144329897C137.5,68.33333333333333,137.5,76.66666666666667,137.5,80.83333333333333L137.5,85" id="edge7" class="relation" marker-start="url(#extensionStart)"></path><path d="M694,109.10194174757281L665,115.08495145631066C636,121.06796116504854,578,133.03398058252426,549,143.1836569579288C520,153.33333333333334,520,161.66666666666666,520,165.83333333333334L520,170" id="edge8" class="relation" marker-start="url(#extensionStart)"></path><path d="M705.6176470588235,120L700.7647058823528,124.16666666666667C695.9117647058823,128.33333333333334,686.2058823529411,136.66666666666666,681.3529411764706,145C676.5,153.33333333333334,676.5,161.66666666666666,676.5,165.83333333333334L676.5,170" id="edge9" class="relation" marker-start="url(#extensionStart)"></path><path d="M992.5,18.52136181575434L870.6666666666666,25.434468179795285C748.8333333333334,32.347574543836224,505.1666666666667,46.173787271918115,383.3333333333333,57.25356030262572C261.5,68.33333333333333,261.5,76.66666666666667,261.5,80.83333333333333L261.5,85" id="edge10" class="relation" marker-start="url(#extensionStart)"></path><path d="M992.5,18.717183770883054L890.75,25.597653142402546C789,32.47812251392204,585.5,46.239061256961016,483.75,57.28619729514717C382,68.33333333333333,382,76.66666666666667,382,80.83333333333333L382,85" id="edge11" class="relation" marker-start="url(#extensionStart)"></path><path d="M992.5,19.04233870967742L912.8333333333334,25.86861559139785C833.1666666666666,32.69489247311828,673.8333333333334,46.347446236559136,594.1666666666666,57.34038978494624C514.5,68.33333333333333,514.5,76.66666666666667,514.5,80.83333333333333L514.5,85" id="edge12" class="relation" marker-start="url(#extensionStart)"></path><path d="M758,117.1236559139785L768.1666666666666,121.76971326164875C778.3333333333334,126.415770609319,798.6666666666666,135.7078853046595,808.8333333333334,144.5206093189964C819,153.33333333333334,819,161.66666666666666,819,165.83333333333334L819,170" id="edge13" class="relation" marker-start="url(#extensionStart)"></path><path d="M758,108.22631578947369L792.25,114.35526315789474C826.5,120.48421052631579,895,132.7421052631579,929.25,143.0377192982456C963.5,153.33333333333334,963.5,161.66666666666666,963.5,165.83333333333334L963.5,170" id="edge14" class="relation" marker-start="url(#extensionStart)"></path><path d="M992.5,19.513157894736842L932.1666666666666,26.260964912280702C871.8333333333334,33.00877192982456,751.1666666666666,46.50438596491228,690.8333333333334,57.4188596491228C630.5,68.33333333333333,630.5,76.66666666666667,630.5,80.83333333333333L630.5,85" id="edge15" class="relation" marker-start="url(#extensionStart)"></path><path d="M2476.5,105.4419595314164L2403.6666666666665,112.03496627618034C2330.8333333333335,118.62797302094425,2185.1666666666665,131.81398651047212,2112.3333333333335,142.57365992190273C2039.5,153.33333333333334,2039.5,161.66666666666666,2039.5,165.83333333333334L2039.5,170" id="edge16" class="relation" marker-start="url(#extensionStart)"></path><path d="M758,106.11221779548472L815.4166666666666,112.59351482957061C872.8333333333334,119.07481186365648,987.6666666666666,132.03740593182826,1045.0833333333333,142.6853696325808C1102.5,153.33333333333334,1102.5,161.66666666666666,1102.5,165.83333333333334L1102.5,170" id="edge17" class="relation" marker-start="url(#extensionStart)"></path><path d="M992.5,20.188927943760984L948.0833333333334,26.82410661980082C903.6666666666666,33.45928529584066,814.8333333333334,46.72964264792032,770.4166666666666,57.53148799062683C726,68.33333333333333,726,76.66666666666667,726,80.83333333333333L726,85" id="edge18" class="relation" marker-start="url(#extensionStart)"></path><path d="M1028.5,20.462245885769605L1068.5416666666667,27.051871571474674C1108.5833333333333,33.641497257179736,1188.6666666666667,46.820748628589875,1228.7083333333333,57.577040980961605C1268.75,68.33333333333333,1268.75,76.66666666666667,1268.75,80.83333333333333L1268.75,85" id="edge19" class="relation" marker-start="url(#extensionStart)"></path><path d="M1501.25,107.77853881278538L1461.2916666666667,113.98211567732115C1421.3333333333333,120.18569254185691,1341.4166666666667,132.59284627092845,1301.4583333333333,142.9630898021309C1261.5,153.33333333333334,1261.5,161.66666666666666,1261.5,165.83333333333334L1261.5,170" id="edge20" class="relation" marker-start="url(#extensionStart)"></path><path d="M1501.25,115.84872979214781L1488.875,120.70727482678984C1476.5,125.56581986143188,1451.75,135.28290993071593,1439.375,144.30812163202464C1427,153.33333333333334,1427,161.66666666666666,1427,165.83333333333334L1427,170" id="edge21" class="relation" marker-start="url(#extensionStart)"></path><path d="M3663.8529411764707,120L3662.627450980392,124.16666666666667C3661.4019607843134,128.33333333333334,3658.950980392157,136.66666666666666,3657.7254901960787,145C3656.5,153.33333333333334,3656.5,161.66666666666666,3656.5,165.83333333333334L3656.5,170" id="edge22" class="relation" marker-start="url(#extensionStart)"></path><path d="M1553.0588235294117,120L1557.2990196078433,124.16666666666667C1561.5392156862745,128.33333333333334,1570.0196078431372,136.66666666666666,1574.2598039215688,145C1578.5,153.33333333333334,1578.5,161.66666666666666,1578.5,165.83333333333334L1578.5,170" id="edge23" class="relation" marker-start="url(#extensionStart)"></path><path d="M1028.5,19.514483212639895L1088.7916666666667,26.26206934386658C1149.0833333333333,33.00965547509326,1269.6666666666667,46.504827737546634,1329.9583333333333,57.41908053543998C1390.25,68.33333333333333,1390.25,76.66666666666667,1390.25,80.83333333333333L1390.25,85" id="edge24" class="relation" marker-start="url(#extensionStart)"></path><path d="M2476.5,106.78959627329192L2428.25,113.15799689440992C2380,119.52639751552795,2283.5,132.26319875776397,2235.25,142.79826604554864C2187,153.33333333333334,2187,161.66666666666666,2187,165.83333333333334L2187,170" id="edge25" class="relation" marker-start="url(#extensionStart)"></path><path d="M2476.5,111.10591900311526L2455.1666666666665,116.75493250259605C2433.8333333333335,122.40394600207685,2391.1666666666665,133.70197300103843,2369.8333333333335,143.51765316718587C2348.5,153.33333333333334,2348.5,161.66666666666666,2348.5,165.83333333333334L2348.5,170" id="edge26" class="relation" marker-start="url(#extensionStart)"></path><path d="M1028.5,18.957837065269175L1112.9583333333333,25.79819755439098C1197.4166666666667,32.63855804351278,1366.3333333333333,46.319279021756394,1450.7916666666667,57.326306177544865C1535.25,68.33333333333333,1535.25,76.66666666666667,1535.25,80.83333333333333L1535.25,85" id="edge27" class="relation" marker-start="url(#extensionStart)"></path><path d="M2509,120L2509,124.16666666666667C2509,128.33333333333334,2509,136.66666666666666,2509,145C2509,153.33333333333334,2509,161.66666666666666,2509,165.83333333333334L2509,170" id="edge28" class="relation" marker-start="url(#extensionStart)"></path><path d="M1569.25,109.57466340269278L1597.625,115.47888616891065C1626,121.38310893512852,1682.75,133.19155446756426,1711.125,143.2624439004488C1739.5,153.33333333333334,1739.5,161.66666666666666,1739.5,165.83333333333334L1739.5,170" id="edge29" class="relation" marker-start="url(#extensionStart)"></path><path d="M2541.5,111.52777777777777L2561.5833333333335,117.10648148148148C2581.6666666666665,122.68518518518518,2621.8333333333335,133.84259259259258,2641.9166666666665,143.58796296296296C2662,153.33333333333334,2662,161.66666666666666,2662,165.83333333333334L2662,170" id="edge30" class="relation" marker-start="url(#extensionStart)"></path><path d="M2541.5,107.00652528548125L2587.1666666666665,113.33877107123438C2632.8333333333335,119.67101685698749,2724.1666666666665,132.33550842849374,2769.8333333333335,142.83442088091354C2815.5,153.33333333333334,2815.5,161.66666666666666,2815.5,165.83333333333334L2815.5,170" id="edge31" class="relation" marker-start="url(#extensionStart)"></path><path d="M3690.5,109.83935742971887L3707.6666666666665,115.69946452476573C3724.8333333333335,121.55957161981257,3759.1666666666665,133.2797858099063,3776.3333333333335,143.30655957161983C3793.5,153.33333333333334,3793.5,161.66666666666666,3793.5,165.83333333333334L3793.5,170" id="edge32" class="relation" marker-start="url(#extensionStart)"></path><path d="M1028.5,18.01051051051051L1275.25,25.00875875875876C1522,32.00700700700701,2015.5,46.0035035035035,2262.25,57.16841841841842C2509,68.33333333333333,2509,76.66666666666667,2509,80.83333333333333L2509,85" id="edge33" class="relation" marker-start="url(#extensionStart)"></path><path d="M2541.5,105.44509594882729L2614.25,112.03757995735607C2687,118.63006396588486,2832.5,131.81503198294243,2905.25,142.5741826581379C2978,153.33333333333334,2978,161.66666666666666,2978,165.83333333333334L2978,170" id="edge34" class="relation" marker-start="url(#extensionStart)"></path><path d="M2541.5,104.71709470304975L2639.9166666666665,111.43091225254146C2738.3333333333335,118.14472980203317,2935.1666666666665,131.57236490101658,3033.5833333333335,142.45284911717496C3132,153.33333333333334,3132,161.66666666666666,3132,165.83333333333334L3132,170" id="edge35" class="relation" marker-start="url(#extensionStart)"></path><path d="M1028.5,17.787756253526425L1468.5833333333333,24.82313021127202C1908.6666666666667,31.858504169017618,2788.8333333333335,45.92925208450881,3228.9166666666665,57.13129270892107C3669,68.33333333333333,3669,76.66666666666667,3669,80.83333333333333L3669,85" id="edge36" class="relation" marker-start="url(#extensionStart)"></path><path d="M3690.5,106.01442307692308L3730.25,112.51201923076923C3770,119.0096153846154,3849.5,132.0048076923077,3889.25,142.66907051282053C3929,153.33333333333334,3929,161.66666666666666,3929,165.83333333333334L3929,170" id="edge37" class="relation" marker-start="url(#extensionStart)"></path><path d="M1028.5,17.776522682089283L1486.5833333333333,24.81376890174107C1944.6666666666667,31.85101512139285,2860.8333333333335,45.925507560696424,3318.9166666666665,57.12942044701489C3777,68.33333333333333,3777,76.66666666666667,3777,80.83333333333333L3777,85" id="edge38" class="relation" marker-start="url(#extensionStart)"></path><path d="M1028.5,17.764111859140343L1508.25,24.803426549283618C1988,31.842741239426896,2947.5,45.92137061971345,3427.25,57.12735197652339C3907,68.33333333333333,3907,76.66666666666667,3907,80.83333333333333L3907,85" id="edge39" class="relation" marker-start="url(#extensionStart)"></path></svg>