<svg id="mermaid-1587402295041" width="7425.5" xmlns="http://www.w3.org/2000/svg" height="330" viewBox="-10 -10 4957 310"><style>#mermaid-1587402295041 .label{font-family:'trebuchet ms', verdana, arial;font-family:var(--mermaid-font-family);color:#333}#mermaid-1587402295041 .label text{fill:#333}#mermaid-1587402295041 .node rect,#mermaid-1587402295041 .node circle,#mermaid-1587402295041 .node ellipse,#mermaid-1587402295041 .node polygon,#mermaid-1587402295041 .node path{fill:#ECECFF;stroke:#9370db;stroke-width:1px}#mermaid-1587402295041 .node .label{text-align:center}#mermaid-1587402295041 .node.clickable{cursor:pointer}#mermaid-1587402295041 .arrowheadPath{fill:#333}#mermaid-1587402295041 .edgePath .path{stroke:#333;stroke-width:1.5px}#mermaid-1587402295041 .edgeLabel{background-color:#e8e8e8;text-align:center}#mermaid-1587402295041 .cluster rect{fill:#ffffde;stroke:#aa3;stroke-width:1px}#mermaid-1587402295041 .cluster text{fill:#333}#mermaid-1587402295041 div.mermaidTooltip{position:absolute;text-align:center;max-width:200px;padding:2px;font-family:'trebuchet ms', verdana, arial;font-family:var(--mermaid-font-family);font-size:12px;background:#ffffde;border:1px solid #aa3;border-radius:2px;pointer-events:none;z-index:100}#mermaid-1587402295041 .actor{stroke:#ccf;fill:#ECECFF}#mermaid-1587402295041 text.actor{fill:#000;stroke:none}#mermaid-1587402295041 .actor-line{stroke:grey}#mermaid-1587402295041 .messageLine0{stroke-width:1.5;stroke-dasharray:'2 2';stroke:#333}#mermaid-1587402295041 .messageLine1{stroke-width:1.5;stroke-dasharray:'2 2';stroke:#333}#mermaid-1587402295041 #arrowhead{fill:#333}#mermaid-1587402295041 .sequenceNumber{fill:#fff}#mermaid-1587402295041 #sequencenumber{fill:#333}#mermaid-1587402295041 #crosshead path{fill:#333 !important;stroke:#333 !important}#mermaid-1587402295041 .messageText{fill:#333;stroke:none}#mermaid-1587402295041 .labelBox{stroke:#ccf;fill:#ECECFF}#mermaid-1587402295041 .labelText{fill:#000;stroke:none}#mermaid-1587402295041 .loopText{fill:#000;stroke:none}#mermaid-1587402295041 .loopLine{stroke-width:2;stroke-dasharray:'2 2';stroke:#ccf}#mermaid-1587402295041 .note{stroke:#aa3;fill:#fff5ad}#mermaid-1587402295041 .noteText{fill:black;stroke:none;font-family:'trebuchet ms', verdana, arial;font-family:var(--mermaid-font-family);font-size:14px}#mermaid-1587402295041 .activation0{fill:#f4f4f4;stroke:#666}#mermaid-1587402295041 .activation1{fill:#f4f4f4;stroke:#666}#mermaid-1587402295041 .activation2{fill:#f4f4f4;stroke:#666}#mermaid-1587402295041 .mermaid-main-font{font-family:"trebuchet ms", verdana, arial;font-family:var(--mermaid-font-family)}#mermaid-1587402295041 .section{stroke:none;opacity:0.2}#mermaid-1587402295041 .section0{fill:rgba(102,102,255,0.49)}#mermaid-1587402295041 .section2{fill:#fff400}#mermaid-1587402295041 .section1,#mermaid-1587402295041 .section3{fill:#fff;opacity:0.2}#mermaid-1587402295041 .sectionTitle0{fill:#333}#mermaid-1587402295041 .sectionTitle1{fill:#333}#mermaid-1587402295041 .sectionTitle2{fill:#333}#mermaid-1587402295041 .sectionTitle3{fill:#333}#mermaid-1587402295041 .sectionTitle{text-anchor:start;font-size:11px;text-height:14px;font-family:'trebuchet ms', verdana, arial;font-family:var(--mermaid-font-family)}#mermaid-1587402295041 .grid .tick{stroke:#d3d3d3;opacity:0.8;shape-rendering:crispEdges}#mermaid-1587402295041 .grid .tick text{font-family:'trebuchet ms', verdana, arial;font-family:var(--mermaid-font-family)}#mermaid-1587402295041 .grid path{stroke-width:0}#mermaid-1587402295041 .today{fill:none;stroke:red;stroke-width:2px}#mermaid-1587402295041 .task{stroke-width:2}#mermaid-1587402295041 .taskText{text-anchor:middle;font-family:'trebuchet ms', verdana, arial;font-family:var(--mermaid-font-family)}#mermaid-1587402295041 .taskText:not([font-size]){font-size:11px}#mermaid-1587402295041 .taskTextOutsideRight{fill:#000;text-anchor:start;font-size:11px;font-family:'trebuchet ms', verdana, arial;font-family:var(--mermaid-font-family)}#mermaid-1587402295041 .taskTextOutsideLeft{fill:#000;text-anchor:end;font-size:11px}#mermaid-1587402295041 .task.clickable{cursor:pointer}#mermaid-1587402295041 .taskText.clickable{cursor:pointer;fill:#003163 !important;font-weight:bold}#mermaid-1587402295041 .taskTextOutsideLeft.clickable{cursor:pointer;fill:#003163 !important;font-weight:bold}#mermaid-1587402295041 .taskTextOutsideRight.clickable{cursor:pointer;fill:#003163 !important;font-weight:bold}#mermaid-1587402295041 .taskText0,#mermaid-1587402295041 .taskText1,#mermaid-1587402295041 .taskText2,#mermaid-1587402295041 .taskText3{fill:#fff}#mermaid-1587402295041 .task0,#mermaid-1587402295041 .task1,#mermaid-1587402295041 .task2,#mermaid-1587402295041 .task3{fill:#8a90dd;stroke:#534fbc}#mermaid-1587402295041 .taskTextOutside0,#mermaid-1587402295041 .taskTextOutside2{fill:#000}#mermaid-1587402295041 .taskTextOutside1,#mermaid-1587402295041 .taskTextOutside3{fill:#000}#mermaid-1587402295041 .active0,#mermaid-1587402295041 .active1,#mermaid-1587402295041 .active2,#mermaid-1587402295041 .active3{fill:#bfc7ff;stroke:#534fbc}#mermaid-1587402295041 .activeText0,#mermaid-1587402295041 .activeText1,#mermaid-1587402295041 .activeText2,#mermaid-1587402295041 .activeText3{fill:#000 !important}#mermaid-1587402295041 .done0,#mermaid-1587402295041 .done1,#mermaid-1587402295041 .done2,#mermaid-1587402295041 .done3{stroke:grey;fill:#d3d3d3;stroke-width:2}#mermaid-1587402295041 .doneText0,#mermaid-1587402295041 .doneText1,#mermaid-1587402295041 .doneText2,#mermaid-1587402295041 .doneText3{fill:#000 !important}#mermaid-1587402295041 .crit0,#mermaid-1587402295041 .crit1,#mermaid-1587402295041 .crit2,#mermaid-1587402295041 .crit3{stroke:#f88;fill:red;stroke-width:2}#mermaid-1587402295041 .activeCrit0,#mermaid-1587402295041 .activeCrit1,#mermaid-1587402295041 .activeCrit2,#mermaid-1587402295041 .activeCrit3{stroke:#f88;fill:#bfc7ff;stroke-width:2}#mermaid-1587402295041 .doneCrit0,#mermaid-1587402295041 .doneCrit1,#mermaid-1587402295041 .doneCrit2,#mermaid-1587402295041 .doneCrit3{stroke:#f88;fill:#d3d3d3;stroke-width:2;cursor:pointer;shape-rendering:crispEdges}#mermaid-1587402295041 .milestone{transform:rotate(45deg) scale(0.8, 0.8)}#mermaid-1587402295041 .milestoneText{font-style:italic}#mermaid-1587402295041 .doneCritText0,#mermaid-1587402295041 .doneCritText1,#mermaid-1587402295041 .doneCritText2,#mermaid-1587402295041 .doneCritText3{fill:#000 !important}#mermaid-1587402295041 .activeCritText0,#mermaid-1587402295041 .activeCritText1,#mermaid-1587402295041 .activeCritText2,#mermaid-1587402295041 .activeCritText3{fill:#000 !important}#mermaid-1587402295041 .titleText{text-anchor:middle;font-size:18px;fill:#000;font-family:'trebuchet ms', verdana, arial;font-family:var(--mermaid-font-family)}#mermaid-1587402295041 g.classGroup text{fill:#9370db;stroke:none;font-family:'trebuchet ms', verdana, arial;font-family:var(--mermaid-font-family);font-size:10px}#mermaid-1587402295041 g.classGroup text .title{font-weight:bolder}#mermaid-1587402295041 g.clickable{cursor:pointer}#mermaid-1587402295041 g.classGroup rect{fill:#ECECFF;stroke:#9370db}#mermaid-1587402295041 g.classGroup line{stroke:#9370db;stroke-width:1}#mermaid-1587402295041 .classLabel .box{stroke:none;stroke-width:0;fill:#ECECFF;opacity:0.5}#mermaid-1587402295041 .classLabel .label{fill:#9370db;font-size:10px}#mermaid-1587402295041 .relation{stroke:#9370db;stroke-width:1;fill:none}#mermaid-1587402295041 .dashed-line{stroke-dasharray:3}#mermaid-1587402295041 #compositionStart{fill:#9370db;stroke:#9370db;stroke-width:1}#mermaid-1587402295041 #compositionEnd{fill:#9370db;stroke:#9370db;stroke-width:1}#mermaid-1587402295041 #aggregationStart{fill:#ECECFF;stroke:#9370db;stroke-width:1}#mermaid-1587402295041 #aggregationEnd{fill:#ECECFF;stroke:#9370db;stroke-width:1}#mermaid-1587402295041 #dependencyStart{fill:#9370db;stroke:#9370db;stroke-width:1}#mermaid-1587402295041 #dependencyEnd{fill:#9370db;stroke:#9370db;stroke-width:1}#mermaid-1587402295041 #extensionStart{fill:#9370db;stroke:#9370db;stroke-width:1}#mermaid-1587402295041 #extensionEnd{fill:#9370db;stroke:#9370db;stroke-width:1}#mermaid-1587402295041 .commit-id,#mermaid-1587402295041 .commit-msg,#mermaid-1587402295041 .branch-label{fill:lightgrey;color:lightgrey;font-family:'trebuchet ms', verdana, arial;font-family:var(--mermaid-font-family)}#mermaid-1587402295041 .pieTitleText{text-anchor:middle;font-size:25px;fill:#000;font-family:'trebuchet ms', verdana, arial;font-family:var(--mermaid-font-family)}#mermaid-1587402295041 .slice{font-family:'trebuchet ms', verdana, arial;font-family:var(--mermaid-font-family)}#mermaid-1587402295041 g.stateGroup text{fill:#9370db;stroke:none;font-size:10px;font-family:'trebuchet ms', verdana, arial;font-family:var(--mermaid-font-family)}#mermaid-1587402295041 g.stateGroup text{fill:#9370db;stroke:none;font-size:10px}#mermaid-1587402295041 g.stateGroup .state-title{font-weight:bolder;fill:#000}#mermaid-1587402295041 g.stateGroup rect{fill:#ECECFF;stroke:#9370db}#mermaid-1587402295041 g.stateGroup line{stroke:#9370db;stroke-width:1}#mermaid-1587402295041 .transition{stroke:#9370db;stroke-width:1;fill:none}#mermaid-1587402295041 .stateGroup .composit{fill:white;border-bottom:1px}#mermaid-1587402295041 .stateGroup .alt-composit{fill:#e0e0e0;border-bottom:1px}#mermaid-1587402295041 .state-note{stroke:#aa3;fill:#fff5ad}#mermaid-1587402295041 .state-note text{fill:black;stroke:none;font-size:10px}#mermaid-1587402295041 .stateLabel .box{stroke:none;stroke-width:0;fill:#ECECFF;opacity:0.5}#mermaid-1587402295041 .stateLabel text{fill:#000;font-size:10px;font-weight:bold;font-family:'trebuchet ms', verdana, arial;font-family:var(--mermaid-font-family)}:root{--mermaid-font-family: '"trebuchet ms", verdana, arial';--mermaid-font-family: "Comic Sans MS", "Comic Sans", cursive}:root { --mermaid-font-family: "trebuchet ms", verdana, arial;}</style><style>#mermaid-1587402295041 {    color: rgb(0, 0, 0);    font: 16px "trebuchet ms", verdana, arial;  }</style><g></g><defs><marker id="extensionStart" class="extension" refX="0" refY="7" markerWidth="190" markerHeight="240" orient="auto"><path d="M 1,7 L18,13 V 1 Z"></path></marker></defs><defs><marker id="extensionEnd" refX="19" refY="7" markerWidth="20" markerHeight="28" orient="auto"><path d="M 1,1 V 13 L18,7 Z"></path></marker></defs><defs><marker id="compositionStart" class="extension" refX="0" refY="7" markerWidth="190" markerHeight="240" orient="auto"><path d="M 18,7 L9,13 L1,7 L9,1 Z"></path></marker></defs><defs><marker id="compositionEnd" refX="19" refY="7" markerWidth="20" markerHeight="28" orient="auto"><path d="M 18,7 L9,13 L1,7 L9,1 Z"></path></marker></defs><defs><marker id="aggregationStart" class="extension" refX="0" refY="7" markerWidth="190" markerHeight="240" orient="auto"><path d="M 18,7 L9,13 L1,7 L9,1 Z"></path></marker></defs><defs><marker id="aggregationEnd" refX="19" refY="7" markerWidth="20" markerHeight="28" orient="auto"><path d="M 18,7 L9,13 L1,7 L9,1 Z"></path></marker></defs><defs><marker id="dependencyStart" class="extension" refX="0" refY="7" markerWidth="190" markerHeight="240" orient="auto"><path d="M 5,7 L9,13 L1,7 L9,1 Z"></path></marker></defs><defs><marker id="dependencyEnd" refX="19" refY="7" markerWidth="20" markerHeight="28" orient="auto"><path d="M 18,7 L9,13 L14,7 L9,1 Z"></path></marker></defs><g id="classid-ForOfStatement-0" class="classGroup " transform="translate(0,170 )"><rect x="0" y="0" width="92" height="35"></rect><text y="15" x="0"><tspan class="title" x="5">ForOfStatement</tspan></text><line x1="0" y1="24" y2="24" x2="92"></line><text x="5" y="34" fill="white" class="classText"></text><line x1="0" y1="29" y2="29" x2="92"></line><text x="5" y="44" fill="white" class="classText"></text></g><g id="classid-LabeledStatement-1" class="classGroup " transform="translate(142,170 )"><rect x="0" y="0" width="103" height="35"></rect><text y="15" x="0"><tspan class="title" x="5">LabeledStatement</tspan></text><line x1="0" y1="24" y2="24" x2="103"></line><text x="5" y="34" fill="white" class="classText"></text><line x1="0" y1="29" y2="29" x2="103"></line><text x="5" y="44" fill="white" class="classText"></text></g><g id="classid-Parser-2" class="classGroup " transform="translate(1370,0 )"><rect x="0" y="0" width="43" height="35"></rect><text y="15" x="0"><tspan class="title" x="5">Parser</tspan></text><line x1="0" y1="24" y2="24" x2="43"></line><text x="5" y="34" fill="white" class="classText"></text><line x1="0" y1="29" y2="29" x2="43"></line><text x="5" y="44" fill="white" class="classText"></text></g><g id="classid-CatchClause-3" class="classGroup " transform="translate(52.75,85 )"><rect x="0" y="0" width="71" height="35"></rect><text y="15" x="0"><tspan class="title" x="5">CatchClause</tspan></text><line x1="0" y1="24" y2="24" x2="71"></line><text x="5" y="34" fill="white" class="classText"></text><line x1="0" y1="29" y2="29" x2="71"></line><text x="5" y="44" fill="white" class="classText"></text></g><g id="classid-TryStatement-4" class="classGroup " transform="translate(295,170 )"><rect x="0" y="0" width="81" height="35"></rect><text y="15" x="0"><tspan class="title" x="5">TryStatement</tspan></text><line x1="0" y1="24" y2="24" x2="81"></line><text x="5" y="34" fill="white" class="classText"></text><line x1="0" y1="29" y2="29" x2="81"></line><text x="5" y="44" fill="white" class="classText"></text></g><g id="classid-RegExpLiteral-5" class="classGroup " transform="translate(4058,170 )"><rect x="0" y="0" width="80" height="35"></rect><text y="15" x="0"><tspan class="title" x="5">RegExpLiteral</tspan></text><line x1="0" y1="24" y2="24" x2="80"></line><text x="5" y="34" fill="white" class="classText"></text><line x1="0" y1="29" y2="29" x2="80"></line><text x="5" y="44" fill="white" class="classText"></text></g><g id="classid-NumericLiteral-6" class="classGroup " transform="translate(4188,170 )"><rect x="0" y="0" width="87" height="35"></rect><text y="15" x="0"><tspan class="title" x="5">NumericLiteral</tspan></text><line x1="0" y1="24" y2="24" x2="87"></line><text x="5" y="34" fill="white" class="classText"></text><line x1="0" y1="29" y2="29" x2="87"></line><text x="5" y="44" fill="white" class="classText"></text></g><g id="classid-ConditionalExpression-7" class="classGroup " transform="translate(2238,170 )"><rect x="0" y="0" width="122" height="35"></rect><text y="15" x="0"><tspan class="title" x="5">ConditionalExpression</tspan></text><line x1="0" y1="24" y2="24" x2="122"></line><text x="5" y="34" fill="white" class="classText"></text><line x1="0" y1="29" y2="29" x2="122"></line><text x="5" y="44" fill="white" class="classText"></text></g><g id="classid-ReturnStatement-8" class="classGroup " transform="translate(426,170 )"><rect x="0" y="0" width="100" height="35"></rect><text y="15" x="0"><tspan class="title" x="5">ReturnStatement</tspan></text><line x1="0" y1="24" y2="24" x2="100"></line><text x="5" y="34" fill="white" class="classText"></text><line x1="0" y1="29" y2="29" x2="100"></line><text x="5" y="44" fill="white" class="classText"></text></g><g id="classid-NullLiteral-9" class="classGroup " transform="translate(4325,170 )"><rect x="0" y="0" width="64" height="35"></rect><text y="15" x="0"><tspan class="title" x="5">NullLiteral</tspan></text><line x1="0" y1="24" y2="24" x2="64"></line><text x="5" y="34" fill="white" class="classText"></text><line x1="0" y1="29" y2="29" x2="64"></line><text x="5" y="44" fill="white" class="classText"></text></g><g id="classid-IfStatement-10" class="classGroup " transform="translate(576,170 )"><rect x="0" y="0" width="71" height="35"></rect><text y="15" x="0"><tspan class="title" x="5">IfStatement</tspan></text><line x1="0" y1="24" y2="24" x2="71"></line><text x="5" y="34" fill="white" class="classText"></text><line x1="0" y1="29" y2="29" x2="71"></line><text x="5" y="44" fill="white" class="classText"></text></g><g id="classid-TemplateElement-11" class="classGroup " transform="translate(4439,170 )"><rect x="0" y="0" width="100" height="35"></rect><text y="15" x="0"><tspan class="title" x="5">TemplateElement</tspan></text><line x1="0" y1="24" y2="24" x2="100"></line><text x="5" y="34" fill="white" class="classText"></text><line x1="0" y1="29" y2="29" x2="100"></line><text x="5" y="44" fill="white" class="classText"></text></g><g id="classid-ObjectExpression-12" class="classGroup " transform="translate(2410,170 )"><rect x="0" y="0" width="97" height="35"></rect><text y="15" x="0"><tspan class="title" x="5">ObjectExpression</tspan></text><line x1="0" y1="24" y2="24" x2="97"></line><text x="5" y="34" fill="white" class="classText"></text><line x1="0" y1="29" y2="29" x2="97"></line><text x="5" y="44" fill="white" class="classText"></text></g><g id="classid-ThisExpression-13" class="classGroup " transform="translate(2557,170 )"><rect x="0" y="0" width="86" height="35"></rect><text y="15" x="0"><tspan class="title" x="5">ThisExpression</tspan></text><line x1="0" y1="24" y2="24" x2="86"></line><text x="5" y="34" fill="white" class="classText"></text><line x1="0" y1="29" y2="29" x2="86"></line><text x="5" y="44" fill="white" class="classText"></text></g><g id="classid-ForStatement-14" class="classGroup " transform="translate(697,170 )"><rect x="0" y="0" width="80" height="35"></rect><text y="15" x="0"><tspan class="title" x="5">ForStatement</tspan></text><line x1="0" y1="24" y2="24" x2="80"></line><text x="5" y="34" fill="white" class="classText"></text><line x1="0" y1="29" y2="29" x2="80"></line><text x="5" y="44" fill="white" class="classText"></text></g><g id="classid-StringLiteral-15" class="classGroup " transform="translate(4589,170 )"><rect x="0" y="0" width="74" height="35"></rect><text y="15" x="0"><tspan class="title" x="5">StringLiteral</tspan></text><line x1="0" y1="24" y2="24" x2="74"></line><text x="5" y="34" fill="white" class="classText"></text><line x1="0" y1="29" y2="29" x2="74"></line><text x="5" y="44" fill="white" class="classText"></text></g><g id="classid-Program-16" class="classGroup " transform="translate(173.75,85 )"><rect x="0" y="0" width="54" height="35"></rect><text y="15" x="0"><tspan class="title" x="5">Program</tspan></text><line x1="0" y1="24" y2="24" x2="54"></line><text x="5" y="34" fill="white" class="classText"></text><line x1="0" y1="29" y2="29" x2="54"></line><text x="5" y="44" fill="white" class="classText"></text></g><g id="classid-SwitchCase-17" class="classGroup " transform="translate(277.75,85 )"><rect x="0" y="0" width="67" height="35"></rect><text y="15" x="0"><tspan class="title" x="5">SwitchCase</tspan></text><line x1="0" y1="24" y2="24" x2="67"></line><text x="5" y="34" fill="white" class="classText"></text><line x1="0" y1="29" y2="29" x2="67"></line><text x="5" y="44" fill="white" class="classText"></text></g><g id="classid-ExpressionStatement-18" class="classGroup " transform="translate(827,170 )"><rect x="0" y="0" width="119" height="35"></rect><text y="15" x="0"><tspan class="title" x="5">ExpressionStatement</tspan></text><line x1="0" y1="24" y2="24" x2="119"></line><text x="5" y="34" fill="white" class="classText"></text><line x1="0" y1="29" y2="29" x2="119"></line><text x="5" y="44" fill="white" class="classText"></text></g><g id="classid-ClassMethod-19" class="classGroup " transform="translate(394.75,85 )"><rect x="0" y="0" width="73" height="35"></rect><text y="15" x="0"><tspan class="title" x="5">ClassMethod</tspan></text><line x1="0" y1="24" y2="24" x2="73"></line><text x="5" y="34" fill="white" class="classText"></text><line x1="0" y1="29" y2="29" x2="73"></line><text x="5" y="44" fill="white" class="classText"></text></g><g id="classid-VariableDeclarator-20" class="classGroup " transform="translate(517.75,85 )"><rect x="0" y="0" width="105" height="35"></rect><text y="15" x="0"><tspan class="title" x="5">VariableDeclarator</tspan></text><line x1="0" y1="24" y2="24" x2="105"></line><text x="5" y="34" fill="white" class="classText"></text><line x1="0" y1="29" y2="29" x2="105"></line><text x="5" y="44" fill="white" class="classText"></text></g><g id="classid-NewExpression-21" class="classGroup " transform="translate(3922.5,255 )"><rect x="0" y="0" width="88" height="35"></rect><text y="15" x="0"><tspan class="title" x="5">NewExpression</tspan></text><line x1="0" y1="24" y2="24" x2="88"></line><text x="5" y="34" fill="white" class="classText"></text><line x1="0" y1="29" y2="29" x2="88"></line><text x="5" y="44" fill="white" class="classText"></text></g><g id="classid-BlockStatement-22" class="classGroup " transform="translate(996,170 )"><rect x="0" y="0" width="91" height="35"></rect><text y="15" x="0"><tspan class="title" x="5">BlockStatement</tspan></text><line x1="0" y1="24" y2="24" x2="91"></line><text x="5" y="34" fill="white" class="classText"></text><line x1="0" y1="29" y2="29" x2="91"></line><text x="5" y="44" fill="white" class="classText"></text></g><g id="classid-File-23" class="classGroup " transform="translate(672.75,85 )"><rect x="0" y="0" width="27" height="35"></rect><text y="15" x="0"><tspan class="title" x="5">File</tspan></text><line x1="0" y1="24" y2="24" x2="27"></line><text x="5" y="34" fill="white" class="classText"></text><line x1="0" y1="29" y2="29" x2="27"></line><text x="5" y="44" fill="white" class="classText"></text></g><g id="classid-SwitchStatement-24" class="classGroup " transform="translate(1137,170 )"><rect x="0" y="0" width="98" height="35"></rect><text y="15" x="0"><tspan class="title" x="5">SwitchStatement</tspan></text><line x1="0" y1="24" y2="24" x2="98"></line><text x="5" y="34" fill="white" class="classText"></text><line x1="0" y1="29" y2="29" x2="98"></line><text x="5" y="44" fill="white" class="classText"></text></g><g id="classid-BooleanLiteral-25" class="classGroup " transform="translate(4713,170 )"><rect x="0" y="0" width="84" height="35"></rect><text y="15" x="0"><tspan class="title" x="5">BooleanLiteral</tspan></text><line x1="0" y1="24" y2="24" x2="84"></line><text x="5" y="34" fill="white" class="classText"></text><line x1="0" y1="29" y2="29" x2="84"></line><text x="5" y="44" fill="white" class="classText"></text></g><g id="classid-ArrayExpression-26" class="classGroup " transform="translate(2693,170 )"><rect x="0" y="0" width="94" height="35"></rect><text y="15" x="0"><tspan class="title" x="5">ArrayExpression</tspan></text><line x1="0" y1="24" y2="24" x2="94"></line><text x="5" y="34" fill="white" class="classText"></text><line x1="0" y1="29" y2="29" x2="94"></line><text x="5" y="44" fill="white" class="classText"></text></g><g id="classid-Statement-27" class="classGroup " transform="translate(749.75,85 )"><rect x="0" y="0" width="64" height="35"></rect><text y="15" x="0"><tspan class="title" x="5">Statement</tspan></text><line x1="0" y1="24" y2="24" x2="64"></line><text x="5" y="34" fill="white" class="classText"></text><line x1="0" y1="29" y2="29" x2="64"></line><text x="5" y="44" fill="white" class="classText"></text></g><g id="classid-TemplateLiteral-28" class="classGroup " transform="translate(4847,170 )"><rect x="0" y="0" width="90" height="35"></rect><text y="15" x="0"><tspan class="title" x="5">TemplateLiteral</tspan></text><line x1="0" y1="24" y2="24" x2="90"></line><text x="5" y="34" fill="white" class="classText"></text><line x1="0" y1="29" y2="29" x2="90"></line><text x="5" y="44" fill="white" class="classText"></text></g><g id="classid-ObjectProperty-29" class="classGroup " transform="translate(1307,85 )"><rect x="0" y="0" width="86" height="35"></rect><text y="15" x="0"><tspan class="title" x="5">ObjectProperty</tspan></text><line x1="0" y1="24" y2="24" x2="86"></line><text x="5" y="34" fill="white" class="classText"></text><line x1="0" y1="29" y2="29" x2="86"></line><text x="5" y="44" fill="white" class="classText"></text></g><g id="classid-Identifier-30" class="classGroup " transform="translate(1518.75,85 )"><rect x="0" y="0" width="57" height="35"></rect><text y="15" x="0"><tspan class="title" x="5">Identifier</tspan></text><line x1="0" y1="24" y2="24" x2="57"></line><text x="5" y="34" fill="white" class="classText"></text><line x1="0" y1="29" y2="29" x2="57"></line><text x="5" y="44" fill="white" class="classText"></text></g><g id="classid-ExportDefaultDeclaration-31" class="classGroup " transform="translate(1585,170 )"><rect x="0" y="0" width="138" height="35"></rect><text y="15" x="0"><tspan class="title" x="5">ExportDefaultDeclaration</tspan></text><line x1="0" y1="24" y2="24" x2="138"></line><text x="5" y="34" fill="white" class="classText"></text><line x1="0" y1="29" y2="29" x2="138"></line><text x="5" y="44" fill="white" class="classText"></text></g><g id="classid-BreakStatement-32" class="classGroup " transform="translate(1285,170 )"><rect x="0" y="0" width="94" height="35"></rect><text y="15" x="0"><tspan class="title" x="5">BreakStatement</tspan></text><line x1="0" y1="24" y2="24" x2="94"></line><text x="5" y="34" fill="white" class="classText"></text><line x1="0" y1="29" y2="29" x2="94"></line><text x="5" y="44" fill="white" class="classText"></text></g><g id="classid-DoWhileStatement-33" class="classGroup " transform="translate(1429,170 )"><rect x="0" y="0" width="106" height="35"></rect><text y="15" x="0"><tspan class="title" x="5">DoWhileStatement</tspan></text><line x1="0" y1="24" y2="24" x2="106"></line><text x="5" y="34" fill="white" class="classText"></text><line x1="0" y1="29" y2="29" x2="106"></line><text x="5" y="44" fill="white" class="classText"></text></g><g id="classid-CommentLine-34" class="classGroup " transform="translate(1625.75,85 )"><rect x="0" y="0" width="81" height="35"></rect><text y="15" x="0"><tspan class="title" x="5">CommentLine</tspan></text><line x1="0" y1="24" y2="24" x2="81"></line><text x="5" y="34" fill="white" class="classText"></text><line x1="0" y1="29" y2="29" x2="81"></line><text x="5" y="44" fill="white" class="classText"></text></g><g id="classid-FunctionExpression-35" class="classGroup " transform="translate(2837,170 )"><rect x="0" y="0" width="109" height="35"></rect><text y="15" x="0"><tspan class="title" x="5">FunctionExpression</tspan></text><line x1="0" y1="24" y2="24" x2="109"></line><text x="5" y="34" fill="white" class="classText"></text><line x1="0" y1="29" y2="29" x2="109"></line><text x="5" y="44" fill="white" class="classText"></text></g><g id="classid-ClassDeclaration-36" class="classGroup " transform="translate(1773,170 )"><rect x="0" y="0" width="93" height="35"></rect><text y="15" x="0"><tspan class="title" x="5">ClassDeclaration</tspan></text><line x1="0" y1="24" y2="24" x2="93"></line><text x="5" y="34" fill="white" class="classText"></text><line x1="0" y1="29" y2="29" x2="93"></line><text x="5" y="44" fill="white" class="classText"></text></g><g id="classid-VariableDeclaration-37" class="classGroup " transform="translate(1916,170 )"><rect x="0" y="0" width="110" height="35"></rect><text y="15" x="0"><tspan class="title" x="5">VariableDeclaration</tspan></text><line x1="0" y1="24" y2="24" x2="110"></line><text x="5" y="34" fill="white" class="classText"></text><line x1="0" y1="29" y2="29" x2="110"></line><text x="5" y="44" fill="white" class="classText"></text></g><g id="classid-UpdateExpression-38" class="classGroup " transform="translate(2996,170 )"><rect x="0" y="0" width="101" height="35"></rect><text y="15" x="0"><tspan class="title" x="5">UpdateExpression</tspan></text><line x1="0" y1="24" y2="24" x2="101"></line><text x="5" y="34" fill="white" class="classText"></text><line x1="0" y1="29" y2="29" x2="101"></line><text x="5" y="44" fill="white" class="classText"></text></g><g id="classid-ClassBody-39" class="classGroup " transform="translate(1756.75,85 )"><rect x="0" y="0" width="60" height="35"></rect><text y="15" x="0"><tspan class="title" x="5">ClassBody</tspan></text><line x1="0" y1="24" y2="24" x2="60"></line><text x="5" y="34" fill="white" class="classText"></text><line x1="0" y1="29" y2="29" x2="60"></line><text x="5" y="44" fill="white" class="classText"></text></g><g id="classid-BinaryExpression-40" class="classGroup " transform="translate(3147,170 )"><rect x="0" y="0" width="99" height="35"></rect><text y="15" x="0"><tspan class="title" x="5">BinaryExpression</tspan></text><line x1="0" y1="24" y2="24" x2="99"></line><text x="5" y="34" fill="white" class="classText"></text><line x1="0" y1="29" y2="29" x2="99"></line><text x="5" y="44" fill="white" class="classText"></text></g><g id="classid-UnaryExpression-41" class="classGroup " transform="translate(3296,170 )"><rect x="0" y="0" width="97" height="35"></rect><text y="15" x="0"><tspan class="title" x="5">UnaryExpression</tspan></text><line x1="0" y1="24" y2="24" x2="97"></line><text x="5" y="34" fill="white" class="classText"></text><line x1="0" y1="29" y2="29" x2="97"></line><text x="5" y="44" fill="white" class="classText"></text></g><g id="classid-Declaration-42" class="classGroup " transform="translate(1891.75,85 )"><rect x="0" y="0" width="68" height="35"></rect><text y="15" x="0"><tspan class="title" x="5">Declaration</tspan></text><line x1="0" y1="24" y2="24" x2="68"></line><text x="5" y="34" fill="white" class="classText"></text><line x1="0" y1="29" y2="29" x2="68"></line><text x="5" y="44" fill="white" class="classText"></text></g><g id="classid-FunctionDeclaration-43" class="classGroup " transform="translate(2076,170 )"><rect x="0" y="0" width="112" height="35"></rect><text y="15" x="0"><tspan class="title" x="5">FunctionDeclaration</tspan></text><line x1="0" y1="24" y2="24" x2="112"></line><text x="5" y="34" fill="white" class="classText"></text><line x1="0" y1="29" y2="29" x2="112"></line><text x="5" y="44" fill="white" class="classText"></text></g><g id="classid-MemberExpression-44" class="classGroup " transform="translate(3443,170 )"><rect x="0" y="0" width="107" height="35"></rect><text y="15" x="0"><tspan class="title" x="5">MemberExpression</tspan></text><line x1="0" y1="24" y2="24" x2="107"></line><text x="5" y="34" fill="white" class="classText"></text><line x1="0" y1="29" y2="29" x2="107"></line><text x="5" y="44" fill="white" class="classText"></text></g><g id="classid-LogicalExpression-45" class="classGroup " transform="translate(3600,170 )"><rect x="0" y="0" width="100" height="35"></rect><text y="15" x="0"><tspan class="title" x="5">LogicalExpression</tspan></text><line x1="0" y1="24" y2="24" x2="100"></line><text x="5" y="34" fill="white" class="classText"></text><line x1="0" y1="29" y2="29" x2="100"></line><text x="5" y="44" fill="white" class="classText"></text></g><g id="classid-Node-46" class="classGroup " transform="translate(1463,0 )"><rect x="0" y="0" width="36" height="35"></rect><text y="15" x="0"><tspan class="title" x="5">Node</tspan></text><line x1="0" y1="24" y2="24" x2="36"></line><text x="5" y="34" fill="white" class="classText"></text><line x1="0" y1="29" y2="29" x2="36"></line><text x="5" y="44" fill="white" class="classText"></text></g><g id="classid-Expression-47" class="classGroup " transform="translate(3105.5,85 )"><rect x="0" y="0" width="65" height="35"></rect><text y="15" x="0"><tspan class="title" x="5">Expression</tspan></text><line x1="0" y1="24" y2="24" x2="65"></line><text x="5" y="34" fill="white" class="classText"></text><line x1="0" y1="29" y2="29" x2="65"></line><text x="5" y="44" fill="white" class="classText"></text></g><g id="classid-AssignmentExpression-48" class="classGroup " transform="translate(3750,170 )"><rect x="0" y="0" width="125" height="35"></rect><text y="15" x="0"><tspan class="title" x="5">AssignmentExpression</tspan></text><line x1="0" y1="24" y2="24" x2="125"></line><text x="5" y="34" fill="white" class="classText"></text><line x1="0" y1="29" y2="29" x2="125"></line><text x="5" y="44" fill="white" class="classText"></text></g><g id="classid-CallExpression-49" class="classGroup " transform="translate(3925,170 )"><rect x="0" y="0" width="83" height="35"></rect><text y="15" x="0"><tspan class="title" x="5">CallExpression</tspan></text><line x1="0" y1="24" y2="24" x2="83"></line><text x="5" y="34" fill="white" class="classText"></text><line x1="0" y1="29" y2="29" x2="83"></line><text x="5" y="44" fill="white" class="classText"></text></g><g id="classid-Literal-50" class="classGroup " transform="translate(4543.25,85 )"><rect x="0" y="0" width="43" height="35"></rect><text y="15" x="0"><tspan class="title" x="5">Literal</tspan></text><line x1="0" y1="24" y2="24" x2="43"></line><text x="5" y="34" fill="white" class="classText"></text><line x1="0" y1="29" y2="29" x2="43"></line><text x="5" y="44" fill="white" class="classText"></text></g><g id="classid-CommentBlock-51" class="classGroup " transform="translate(4636.25,85 )"><rect x="0" y="0" width="87" height="35"></rect><text y="15" x="0"><tspan class="title" x="5">CommentBlock</tspan></text><line x1="0" y1="24" y2="24" x2="87"></line><text x="5" y="34" fill="white" class="classText"></text><line x1="0" y1="29" y2="29" x2="87"></line><text x="5" y="44" fill="white" class="classText"></text></g><g id="classid-UnknownNode-52" class="classGroup " transform="translate(4773.25,85 )"><rect x="0" y="0" width="86" height="35"></rect><text y="15" x="0"><tspan class="title" x="5">UnknownNode</tspan></text><line x1="0" y1="24" y2="24" x2="86"></line><text x="5" y="34" fill="white" class="classText"></text><line x1="0" y1="29" y2="29" x2="86"></line><text x="5" y="44" fill="white" class="classText"></text></g><path d="M749.75,104.3484539585457L632.4583333333334,111.12371163212141C515.1666666666666,117.89896930569712,280.5833333333333,131.44948465284855,163.29166666666666,142.39140899309095C46,153.33333333333334,46,161.66666666666666,46,165.83333333333334L46,170" id="edge0" class="relation" marker-start="url(#extensionStart)"></path><path d="M749.75,104.81194220144496L657.0416666666666,111.50995183453746C564.3333333333334,118.20796146762997,378.9166666666667,131.60398073381498,286.2083333333333,142.46865703357415C193.5,153.33333333333334,193.5,161.66666666666666,193.5,165.83333333333334L193.5,170" id="edge1" class="relation" marker-start="url(#extensionStart)"></path><path d="M1463,18.049273021001614L1233.875,25.04106085083468C1004.75,32.03284868066774,546.5,46.01642434033388,317.375,57.17487883683361C88.25,68.33333333333333,88.25,76.66666666666667,88.25,80.83333333333333L88.25,85" id="edge2" class="relation" marker-start="url(#extensionStart)"></path><path d="M749.75,105.54761904761905L680.7083333333334,112.12301587301589C611.6666666666666,118.6984126984127,473.5833333333333,131.84920634920636,404.5416666666667,142.59126984126985C335.5,153.33333333333334,335.5,161.66666666666666,335.5,165.83333333333334L335.5,170" id="edge3" class="relation" marker-start="url(#extensionStart)"></path><path d="M4543.25,104.45768612747723L4469.041666666667,111.21473843956436C4394.833333333333,117.9717907516515,4246.416666666667,131.48589537582575,4172.208333333333,142.40961435457953C4098,153.33333333333334,4098,161.66666666666666,4098,165.83333333333334L4098,170" id="edge4" class="relation" marker-start="url(#extensionStart)"></path><path d="M4543.25,105.24193548387096L4491.291666666667,111.86827956989247C4439.333333333333,118.49462365591398,4335.416666666667,131.747311827957,4283.458333333333,142.54032258064515C4231.5,153.33333333333334,4231.5,161.66666666666666,4231.5,165.83333333333334L4231.5,170" id="edge5" class="relation" marker-start="url(#extensionStart)"></path><path d="M3105.5,104.14630512514898L2971.0833333333335,110.95525427095748C2836.6666666666665,117.764203416766,2567.8333333333335,131.38210170838298,2433.4166666666665,142.35771752085816C2299,153.33333333333334,2299,161.66666666666666,2299,165.83333333333334L2299,170" id="edge6" class="relation" marker-start="url(#extensionStart)"></path><path d="M749.75,106.94807849550286L704.125,113.29006541291905C658.5,119.63205233033523,567.25,132.3160261651676,521.625,142.82467974925046C476,153.33333333333334,476,161.66666666666666,476,165.83333333333334L476,170" id="edge7" class="relation" marker-start="url(#extensionStart)"></path><path d="M4543.25,106.89831528279181L4512.208333333333,113.24859606899317C4481.166666666667,119.59887685519455,4419.083333333333,132.29943842759727,4388.041666666667,142.8163858804653C4357,153.33333333333334,4357,161.66666666666666,4357,165.83333333333334L4357,170" id="edge8" class="relation" marker-start="url(#extensionStart)"></path><path d="M749.75,110.48825256975037L726.7083333333334,116.24021047479198C703.6666666666666,121.99216837983359,657.5833333333334,133.4960841899168,634.5416666666666,143.41470876162506C611.5,153.33333333333334,611.5,161.66666666666666,611.5,165.83333333333334L611.5,170" id="edge9" class="relation" marker-start="url(#extensionStart)"></path><path d="M4543.25,114.56270627062706L4534.208333333333,119.63558855885589C4525.166666666667,124.70847084708471,4507.083333333333,134.85423542354235,4498.041666666667,144.09378437843785C4489,153.33333333333334,4489,161.66666666666666,4489,165.83333333333334L4489,170" id="edge10" class="relation" marker-start="url(#extensionStart)"></path><path d="M3105.5,104.532744665195L2997.6666666666665,111.27728722099583C2889.8333333333335,118.02182977679666,2674.1666666666665,131.51091488839833,2566.3333333333335,142.42212411086584C2458.5,153.33333333333334,2458.5,161.66666666666666,2458.5,165.83333333333334L2458.5,170" id="edge11" class="relation" marker-start="url(#extensionStart)"></path><path d="M3105.5,105.06737918215613L3021.25,111.72281598513011C2937,118.37825278810408,2768.5,131.68912639405204,2684.25,142.5112298636927C2600,153.33333333333334,2600,161.66666666666666,2600,165.83333333333334L2600,170" id="edge12" class="relation" marker-start="url(#extensionStart)"></path><path d="M763.3235294117648,120L758.9362745098039,124.16666666666667C754.5490196078432,128.33333333333334,745.7745098039217,136.66666666666666,741.3872549019608,145C737,153.33333333333334,737,161.66666666666666,737,165.83333333333334L737,170" id="edge13" class="relation" marker-start="url(#extensionStart)"></path><path d="M4586.25,117.41836734693878L4592.875,122.01530612244898C4599.5,126.6122448979592,4612.75,135.8061224489796,4619.375,144.56972789115648C4626,153.33333333333334,4626,161.66666666666666,4626,165.83333333333334L4626,170" id="edge14" class="relation" marker-start="url(#extensionStart)"></path><path d="M1463,18.097539543057998L1252.625,25.08128295254833C1042.25,32.065026362038665,621.5,46.03251318101933,411.125,57.182923257176334C200.75,68.33333333333333,200.75,76.66666666666667,200.75,80.83333333333333L200.75,85" id="edge15" class="relation" marker-start="url(#extensionStart)"></path><path d="M1463,18.153985894421886L1271.0416666666667,25.128321578684904C1079.0833333333333,32.10265726294792,695.1666666666666,46.05132863147396,503.2083333333333,57.192330982403654C311.25,68.33333333333333,311.25,76.66666666666667,311.25,80.83333333333333L311.25,85" id="edge16" class="relation" marker-start="url(#extensionStart)"></path><path d="M813.75,115.48329355608593L825.875,120.40274463007161C838,125.32219570405728,862.25,135.16109785202863,874.375,144.247215592681C886.5,153.33333333333334,886.5,161.66666666666666,886.5,165.83333333333334L886.5,170" id="edge17" class="relation" marker-start="url(#extensionStart)"></path><path d="M1463,18.228744939271255L1291.0416666666667,25.190620782726047C1119.0833333333333,32.152496626180834,775.1666666666666,46.07624831309042,603.2083333333334,57.20479082321188C431.25,68.33333333333333,431.25,76.66666666666667,431.25,80.83333333333333L431.25,85" id="edge18" class="relation" marker-start="url(#extensionStart)"></path><path d="M1463,18.33996706011529L1314.2083333333333,25.283305883429406C1165.4166666666667,32.22664470674352,867.8333333333334,46.113322353371764,719.0416666666666,57.22332784335254C570.25,68.33333333333333,570.25,76.66666666666667,570.25,80.83333333333333L570.25,85" id="edge19" class="relation" marker-start="url(#extensionStart)"></path><path d="M3966.5,205L3966.5,209.16666666666666C3966.5,213.33333333333334,3966.5,221.66666666666666,3966.5,230C3966.5,238.33333333333334,3966.5,246.66666666666666,3966.5,250.83333333333334L3966.5,255" id="edge20" class="relation" marker-start="url(#extensionStart)"></path><path d="M813.75,107.73580365736285L851.7083333333334,113.94650304780237C889.6666666666666,120.1572024382419,965.5833333333334,132.57860121912094,1003.5416666666666,142.95596727622714C1041.5,153.33333333333334,1041.5,161.66666666666666,1041.5,165.83333333333334L1041.5,170" id="edge21" class="relation" marker-start="url(#extensionStart)"></path><path d="M1463,18.462566844919785L1333.5416666666667,25.38547237076649C1204.0833333333333,32.30837789661319,945.1666666666666,46.1541889483066,815.7083333333334,57.24376114081996C686.25,68.33333333333333,686.25,76.66666666666667,686.25,80.83333333333333L686.25,85" id="edge22" class="relation" marker-start="url(#extensionStart)"></path><path d="M813.75,105.86425479282622L875.7916666666666,112.38687899402184C937.8333333333334,118.90950319521748,1061.9166666666667,131.95475159760875,1123.9583333333333,142.64404246547102C1186,153.33333333333334,1186,161.66666666666666,1186,165.83333333333334L1186,170" id="edge23" class="relation" marker-start="url(#extensionStart)"></path><path d="M4586.25,107.30289093298292L4614.375,113.58574244415244C4642.5,119.86859395532194,4698.75,132.43429697766098,4726.875,142.88381515549716C4755,153.33333333333334,4755,161.66666666666666,4755,165.83333333333334L4755,170" id="edge24" class="relation" marker-start="url(#extensionStart)"></path><path d="M3105.5,105.97047738693468L3044.5833333333335,112.47539782244557C2983.6666666666665,118.98031825795645,2861.8333333333335,131.99015912897823,2800.9166666666665,142.66174623115577C2740,153.33333333333334,2740,161.66666666666666,2740,165.83333333333334L2740,170" id="edge25" class="relation" marker-start="url(#extensionStart)"></path><path d="M1463,18.594029317125493L1349.4583333333333,25.495024430937907C1235.9166666666667,32.396019544750324,1008.8333333333334,46.198009772375165,895.2916666666666,57.26567155285425C781.75,68.33333333333333,781.75,76.66666666666667,781.75,80.83333333333333L781.75,85" id="edge26" class="relation" marker-start="url(#extensionStart)"></path><path d="M4586.25,105.29220779220779L4637.208333333333,111.91017316017316C4688.166666666667,118.52813852813853,4790.083333333333,131.76406926406926,4841.041666666667,142.5487012987013C4892,153.33333333333334,4892,161.66666666666666,4892,165.83333333333334L4892,170" id="edge27" class="relation" marker-start="url(#extensionStart)"></path><path d="M1463,23.33969465648855L1444.1666666666667,29.449745547073793C1425.3333333333333,35.55979643765903,1387.6666666666667,47.779898218829516,1368.8333333333333,58.05661577608143C1350,68.33333333333333,1350,76.66666666666667,1350,80.83333333333333L1350,85" id="edge28" class="relation" marker-start="url(#extensionStart)"></path><path d="M1499,29.047169811320757L1507.0416666666667,34.2059748427673C1515.0833333333333,39.36477987421384,1531.1666666666667,49.682389937106926,1539.2083333333333,59.00786163522013C1547.25,68.33333333333333,1547.25,76.66666666666667,1547.25,80.83333333333333L1547.25,85" id="edge29" class="relation" marker-start="url(#extensionStart)"></path><path d="M1891.75,107.81738730450782L1852.125,114.01448942042317C1812.5,120.21159153633853,1733.25,132.60579576816926,1693.625,142.9695645507513C1654,153.33333333333334,1654,161.66666666666666,1654,165.83333333333334L1654,170" id="edge30" class="relation" marker-start="url(#extensionStart)"></path><path d="M813.75,104.97160381644707L900.125,111.64300318037256C986.5,118.31440254429805,1159.25,131.65720127214902,1245.625,142.49526730274118C1332,153.33333333333334,1332,161.66666666666666,1332,165.83333333333334L1332,170" id="edge31" class="relation" marker-start="url(#extensionStart)"></path><path d="M813.75,104.44216351303106L925.125,111.20180292752589C1036.5,117.9614423420207,1259.25,131.48072117101034,1370.625,142.40702725217184C1482,153.33333333333334,1482,161.66666666666666,1482,165.83333333333334L1482,170" id="edge32" class="relation" marker-start="url(#extensionStart)"></path><path d="M1499,21.629554655870447L1526.875,28.024628879892038C1554.75,34.41970310391363,1610.5,47.20985155195681,1638.375,57.77159244264507C1666.25,68.33333333333333,1666.25,76.66666666666667,1666.25,80.83333333333333L1666.25,85" id="edge33" class="relation" marker-start="url(#extensionStart)"></path><path d="M3105.5,108.10344827586206L3069.8333333333335,114.25287356321839C3034.1666666666665,120.40229885057471,2962.8333333333335,132.70114942528735,2927.1666666666665,143.01724137931035C2891.5,153.33333333333334,2891.5,161.66666666666666,2891.5,165.83333333333334L2891.5,170" id="edge34" class="relation" marker-start="url(#extensionStart)"></path><path d="M1891.75,116.1L1879.7083333333333,120.91666666666667C1867.6666666666667,125.73333333333333,1843.5833333333333,135.36666666666667,1831.5416666666667,144.35C1819.5,153.33333333333334,1819.5,161.66666666666666,1819.5,165.83333333333334L1819.5,170" id="edge35" class="relation" marker-start="url(#extensionStart)"></path><path d="M1944.3823529411766,120L1948.8186274509806,124.16666666666667C1953.2549019607843,128.33333333333334,1962.1274509803923,136.66666666666666,1966.563725490196,145C1971,153.33333333333334,1971,161.66666666666666,1971,165.83333333333334L1971,170" id="edge36" class="relation" marker-start="url(#extensionStart)"></path><path d="M3105.5,117.59562841530055L3095.6666666666665,122.16302367941712C3085.8333333333335,126.7304189435337,3066.1666666666665,135.86520947176686,3056.3333333333335,144.5992714025501C3046.5,153.33333333333334,3046.5,161.66666666666666,3046.5,165.83333333333334L3046.5,170" id="edge37" class="relation" marker-start="url(#extensionStart)"></path><path d="M1499,20.00204415372036L1546.9583333333333,26.668370128100303C1594.9166666666667,33.334696102480244,1690.8333333333333,46.66734805124012,1738.7916666666667,57.50034069228673C1786.75,68.33333333333333,1786.75,76.66666666666667,1786.75,80.83333333333333L1786.75,85" id="edge38" class="relation" marker-start="url(#extensionStart)"></path><path d="M3162.0882352941176,120L3167.8235294117644,124.16666666666667C3173.5588235294113,128.33333333333334,3185.029411764706,136.66666666666666,3190.764705882353,145C3196.5,153.33333333333334,3196.5,161.66666666666666,3196.5,165.83333333333334L3196.5,170" id="edge39" class="relation" marker-start="url(#extensionStart)"></path><path d="M3170.5,109.18886198547216L3199.5,115.15738498789347C3228.5,121.12590799031477,3286.5,133.0629539951574,3315.5,143.19814366424535C3344.5,153.33333333333334,3344.5,161.66666666666666,3344.5,165.83333333333334L3344.5,170" id="edge40" class="relation" marker-start="url(#extensionStart)"></path><path d="M1499,19.22006745362563L1570.125,26.01672287802136C1641.25,32.813378302417085,1783.5,46.406689151208546,1854.625,57.37001124227094C1925.75,68.33333333333333,1925.75,76.66666666666667,1925.75,80.83333333333333L1925.75,85" id="edge41" class="relation" marker-start="url(#extensionStart)"></path><path d="M1959.75,109.5060606060606L1988.4583333333333,115.42171717171716C2017.1666666666667,121.33737373737374,2074.5833333333335,133.16868686868688,2103.2916666666665,143.2510101010101C2132,153.33333333333334,2132,161.66666666666666,2132,165.83333333333334L2132,170" id="edge42" class="relation" marker-start="url(#extensionStart)"></path><path d="M3170.5,106.35285913528591L3224.8333333333335,112.79404927940493C3279.1666666666665,119.23523942352394,3387.8333333333335,132.117619711762,3442.1666666666665,142.72547652254767C3496.5,153.33333333333334,3496.5,161.66666666666666,3496.5,165.83333333333334L3496.5,170" id="edge43" class="relation" marker-start="url(#extensionStart)"></path><path d="M3170.5,105.19775390625L3250.4166666666665,111.83146158854167C3330.3333333333335,118.46516927083333,3490.1666666666665,131.73258463541666,3570.0833333333335,142.532958984375C3650,153.33333333333334,3650,161.66666666666666,3650,165.83333333333334L3650,170" id="edge44" class="relation" marker-start="url(#extensionStart)"></path><path d="M1499,17.961677730838865L1772.1666666666667,24.96806477569905C2045.3333333333333,31.974451820559242,2591.6666666666665,45.98722591027962,2864.8333333333335,57.160279621806474C3138,68.33333333333333,3138,76.66666666666667,3138,80.83333333333333L3138,85" id="edge45" class="relation" marker-start="url(#extensionStart)"></path><path d="M3170.5,104.54781319495923L3277.5,111.28984432913269C3384.5,118.03187546330616,3598.5,131.51593773165308,3705.5,142.4246355324932C3812.5,153.33333333333334,3812.5,161.66666666666666,3812.5,165.83333333333334L3812.5,170" id="edge46" class="relation" marker-start="url(#extensionStart)"></path><path d="M3170.5,104.1671695835848L3303.1666666666665,110.97264131965399C3435.8333333333335,117.77811305572318,3701.1666666666665,131.38905652786158,3833.8333333333335,142.36119493059746C3966.5,153.33333333333334,3966.5,161.66666666666666,3966.5,165.83333333333334L3966.5,170" id="edge47" class="relation" marker-start="url(#extensionStart)"></path><path d="M1499,17.748074584515606L2009.9583333333333,24.790062153763007C2520.9166666666665,31.832049723010403,3542.8333333333335,45.91602486150521,4053.7916666666665,57.12467909741927C4564.75,68.33333333333333,4564.75,76.66666666666667,4564.75,80.83333333333333L4564.75,85" id="edge48" class="relation" marker-start="url(#extensionStart)"></path><path d="M1499,17.73915592028136L2029.125,24.7826299335678C2559.25,31.826103946854243,3619.5,45.913051973427116,4149.625,57.12319265338022C4679.75,68.33333333333333,4679.75,76.66666666666667,4679.75,80.83333333333333L4679.75,85" id="edge49" class="relation" marker-start="url(#extensionStart)"></path><path d="M1499,17.729368113334832L2051.875,24.774473427779025C2604.75,31.819578742223218,3710.5,45.90978937111161,4263.375,57.12156135222247C4816.25,68.33333333333333,4816.25,76.66666666666667,4816.25,80.83333333333333L4816.25,85" id="edge50" class="relation" marker-start="url(#extensionStart)"></path></svg>