<svg id="mermaid-1587216057320" width="3764" xmlns="http://www.w3.org/2000/svg" height="245" viewBox="-10 -10 2516 225"><style>#mermaid-1587216057320 .label{font-family:'trebuchet ms', verdana, arial;font-family:var(--mermaid-font-family);color:#333}#mermaid-1587216057320 .label text{fill:#333}#mermaid-1587216057320 .node rect,#mermaid-1587216057320 .node circle,#mermaid-1587216057320 .node ellipse,#mermaid-1587216057320 .node polygon,#mermaid-1587216057320 .node path{fill:#ECECFF;stroke:#9370db;stroke-width:1px}#mermaid-1587216057320 .node .label{text-align:center}#mermaid-1587216057320 .node.clickable{cursor:pointer}#mermaid-1587216057320 .arrowheadPath{fill:#333}#mermaid-1587216057320 .edgePath .path{stroke:#333;stroke-width:1.5px}#mermaid-1587216057320 .edgeLabel{background-color:#e8e8e8;text-align:center}#mermaid-1587216057320 .cluster rect{fill:#ffffde;stroke:#aa3;stroke-width:1px}#mermaid-1587216057320 .cluster text{fill:#333}#mermaid-1587216057320 div.mermaidTooltip{position:absolute;text-align:center;max-width:200px;padding:2px;font-family:'trebuchet ms', verdana, arial;font-family:var(--mermaid-font-family);font-size:12px;background:#ffffde;border:1px solid #aa3;border-radius:2px;pointer-events:none;z-index:100}#mermaid-1587216057320 .actor{stroke:#ccf;fill:#ECECFF}#mermaid-1587216057320 text.actor{fill:#000;stroke:none}#mermaid-1587216057320 .actor-line{stroke:grey}#mermaid-1587216057320 .messageLine0{stroke-width:1.5;stroke-dasharray:'2 2';stroke:#333}#mermaid-1587216057320 .messageLine1{stroke-width:1.5;stroke-dasharray:'2 2';stroke:#333}#mermaid-1587216057320 #arrowhead{fill:#333}#mermaid-1587216057320 .sequenceNumber{fill:#fff}#mermaid-1587216057320 #sequencenumber{fill:#333}#mermaid-1587216057320 #crosshead path{fill:#333 !important;stroke:#333 !important}#mermaid-1587216057320 .messageText{fill:#333;stroke:none}#mermaid-1587216057320 .labelBox{stroke:#ccf;fill:#ECECFF}#mermaid-1587216057320 .labelText{fill:#000;stroke:none}#mermaid-1587216057320 .loopText{fill:#000;stroke:none}#mermaid-1587216057320 .loopLine{stroke-width:2;stroke-dasharray:'2 2';stroke:#ccf}#mermaid-1587216057320 .note{stroke:#aa3;fill:#fff5ad}#mermaid-1587216057320 .noteText{fill:black;stroke:none;font-family:'trebuchet ms', verdana, arial;font-family:var(--mermaid-font-family);font-size:14px}#mermaid-1587216057320 .activation0{fill:#f4f4f4;stroke:#666}#mermaid-1587216057320 .activation1{fill:#f4f4f4;stroke:#666}#mermaid-1587216057320 .activation2{fill:#f4f4f4;stroke:#666}#mermaid-1587216057320 .mermaid-main-font{font-family:"trebuchet ms", verdana, arial;font-family:var(--mermaid-font-family)}#mermaid-1587216057320 .section{stroke:none;opacity:0.2}#mermaid-1587216057320 .section0{fill:rgba(102,102,255,0.49)}#mermaid-1587216057320 .section2{fill:#fff400}#mermaid-1587216057320 .section1,#mermaid-1587216057320 .section3{fill:#fff;opacity:0.2}#mermaid-1587216057320 .sectionTitle0{fill:#333}#mermaid-1587216057320 .sectionTitle1{fill:#333}#mermaid-1587216057320 .sectionTitle2{fill:#333}#mermaid-1587216057320 .sectionTitle3{fill:#333}#mermaid-1587216057320 .sectionTitle{text-anchor:start;font-size:11px;text-height:14px;font-family:'trebuchet ms', verdana, arial;font-family:var(--mermaid-font-family)}#mermaid-1587216057320 .grid .tick{stroke:#d3d3d3;opacity:0.8;shape-rendering:crispEdges}#mermaid-1587216057320 .grid .tick text{font-family:'trebuchet ms', verdana, arial;font-family:var(--mermaid-font-family)}#mermaid-1587216057320 .grid path{stroke-width:0}#mermaid-1587216057320 .today{fill:none;stroke:red;stroke-width:2px}#mermaid-1587216057320 .task{stroke-width:2}#mermaid-1587216057320 .taskText{text-anchor:middle;font-family:'trebuchet ms', verdana, arial;font-family:var(--mermaid-font-family)}#mermaid-1587216057320 .taskText:not([font-size]){font-size:11px}#mermaid-1587216057320 .taskTextOutsideRight{fill:#000;text-anchor:start;font-size:11px;font-family:'trebuchet ms', verdana, arial;font-family:var(--mermaid-font-family)}#mermaid-1587216057320 .taskTextOutsideLeft{fill:#000;text-anchor:end;font-size:11px}#mermaid-1587216057320 .task.clickable{cursor:pointer}#mermaid-1587216057320 .taskText.clickable{cursor:pointer;fill:#003163 !important;font-weight:bold}#mermaid-1587216057320 .taskTextOutsideLeft.clickable{cursor:pointer;fill:#003163 !important;font-weight:bold}#mermaid-1587216057320 .taskTextOutsideRight.clickable{cursor:pointer;fill:#003163 !important;font-weight:bold}#mermaid-1587216057320 .taskText0,#mermaid-1587216057320 .taskText1,#mermaid-1587216057320 .taskText2,#mermaid-1587216057320 .taskText3{fill:#fff}#mermaid-1587216057320 .task0,#mermaid-1587216057320 .task1,#mermaid-1587216057320 .task2,#mermaid-1587216057320 .task3{fill:#8a90dd;stroke:#534fbc}#mermaid-1587216057320 .taskTextOutside0,#mermaid-1587216057320 .taskTextOutside2{fill:#000}#mermaid-1587216057320 .taskTextOutside1,#mermaid-1587216057320 .taskTextOutside3{fill:#000}#mermaid-1587216057320 .active0,#mermaid-1587216057320 .active1,#mermaid-1587216057320 .active2,#mermaid-1587216057320 .active3{fill:#bfc7ff;stroke:#534fbc}#mermaid-1587216057320 .activeText0,#mermaid-1587216057320 .activeText1,#mermaid-1587216057320 .activeText2,#mermaid-1587216057320 .activeText3{fill:#000 !important}#mermaid-1587216057320 .done0,#mermaid-1587216057320 .done1,#mermaid-1587216057320 .done2,#mermaid-1587216057320 .done3{stroke:grey;fill:#d3d3d3;stroke-width:2}#mermaid-1587216057320 .doneText0,#mermaid-1587216057320 .doneText1,#mermaid-1587216057320 .doneText2,#mermaid-1587216057320 .doneText3{fill:#000 !important}#mermaid-1587216057320 .crit0,#mermaid-1587216057320 .crit1,#mermaid-1587216057320 .crit2,#mermaid-1587216057320 .crit3{stroke:#f88;fill:red;stroke-width:2}#mermaid-1587216057320 .activeCrit0,#mermaid-1587216057320 .activeCrit1,#mermaid-1587216057320 .activeCrit2,#mermaid-1587216057320 .activeCrit3{stroke:#f88;fill:#bfc7ff;stroke-width:2}#mermaid-1587216057320 .doneCrit0,#mermaid-1587216057320 .doneCrit1,#mermaid-1587216057320 .doneCrit2,#mermaid-1587216057320 .doneCrit3{stroke:#f88;fill:#d3d3d3;stroke-width:2;cursor:pointer;shape-rendering:crispEdges}#mermaid-1587216057320 .milestone{transform:rotate(45deg) scale(0.8, 0.8)}#mermaid-1587216057320 .milestoneText{font-style:italic}#mermaid-1587216057320 .doneCritText0,#mermaid-1587216057320 .doneCritText1,#mermaid-1587216057320 .doneCritText2,#mermaid-1587216057320 .doneCritText3{fill:#000 !important}#mermaid-1587216057320 .activeCritText0,#mermaid-1587216057320 .activeCritText1,#mermaid-1587216057320 .activeCritText2,#mermaid-1587216057320 .activeCritText3{fill:#000 !important}#mermaid-1587216057320 .titleText{text-anchor:middle;font-size:18px;fill:#000;font-family:'trebuchet ms', verdana, arial;font-family:var(--mermaid-font-family)}#mermaid-1587216057320 g.classGroup text{fill:#9370db;stroke:none;font-family:'trebuchet ms', verdana, arial;font-family:var(--mermaid-font-family);font-size:10px}#mermaid-1587216057320 g.classGroup text .title{font-weight:bolder}#mermaid-1587216057320 g.clickable{cursor:pointer}#mermaid-1587216057320 g.classGroup rect{fill:#ECECFF;stroke:#9370db}#mermaid-1587216057320 g.classGroup line{stroke:#9370db;stroke-width:1}#mermaid-1587216057320 .classLabel .box{stroke:none;stroke-width:0;fill:#ECECFF;opacity:0.5}#mermaid-1587216057320 .classLabel .label{fill:#9370db;font-size:10px}#mermaid-1587216057320 .relation{stroke:#9370db;stroke-width:1;fill:none}#mermaid-1587216057320 .dashed-line{stroke-dasharray:3}#mermaid-1587216057320 #compositionStart{fill:#9370db;stroke:#9370db;stroke-width:1}#mermaid-1587216057320 #compositionEnd{fill:#9370db;stroke:#9370db;stroke-width:1}#mermaid-1587216057320 #aggregationStart{fill:#ECECFF;stroke:#9370db;stroke-width:1}#mermaid-1587216057320 #aggregationEnd{fill:#ECECFF;stroke:#9370db;stroke-width:1}#mermaid-1587216057320 #dependencyStart{fill:#9370db;stroke:#9370db;stroke-width:1}#mermaid-1587216057320 #dependencyEnd{fill:#9370db;stroke:#9370db;stroke-width:1}#mermaid-1587216057320 #extensionStart{fill:#9370db;stroke:#9370db;stroke-width:1}#mermaid-1587216057320 #extensionEnd{fill:#9370db;stroke:#9370db;stroke-width:1}#mermaid-1587216057320 .commit-id,#mermaid-1587216057320 .commit-msg,#mermaid-1587216057320 .branch-label{fill:lightgrey;color:lightgrey;font-family:'trebuchet ms', verdana, arial;font-family:var(--mermaid-font-family)}#mermaid-1587216057320 .pieTitleText{text-anchor:middle;font-size:25px;fill:#000;font-family:'trebuchet ms', verdana, arial;font-family:var(--mermaid-font-family)}#mermaid-1587216057320 .slice{font-family:'trebuchet ms', verdana, arial;font-family:var(--mermaid-font-family)}#mermaid-1587216057320 g.stateGroup text{fill:#9370db;stroke:none;font-size:10px;font-family:'trebuchet ms', verdana, arial;font-family:var(--mermaid-font-family)}#mermaid-1587216057320 g.stateGroup text{fill:#9370db;stroke:none;font-size:10px}#mermaid-1587216057320 g.stateGroup .state-title{font-weight:bolder;fill:#000}#mermaid-1587216057320 g.stateGroup rect{fill:#ECECFF;stroke:#9370db}#mermaid-1587216057320 g.stateGroup line{stroke:#9370db;stroke-width:1}#mermaid-1587216057320 .transition{stroke:#9370db;stroke-width:1;fill:none}#mermaid-1587216057320 .stateGroup .composit{fill:white;border-bottom:1px}#mermaid-1587216057320 .stateGroup .alt-composit{fill:#e0e0e0;border-bottom:1px}#mermaid-1587216057320 .state-note{stroke:#aa3;fill:#fff5ad}#mermaid-1587216057320 .state-note text{fill:black;stroke:none;font-size:10px}#mermaid-1587216057320 .stateLabel .box{stroke:none;stroke-width:0;fill:#ECECFF;opacity:0.5}#mermaid-1587216057320 .stateLabel text{fill:#000;font-size:10px;font-weight:bold;font-family:'trebuchet ms', verdana, arial;font-family:var(--mermaid-font-family)}:root{--mermaid-font-family: '"trebuchet ms", verdana, arial';--mermaid-font-family: "Comic Sans MS", "Comic Sans", cursive}:root { --mermaid-font-family: "trebuchet ms", verdana, arial;}</style><style>#mermaid-1587216057320 {    color: rgb(0, 0, 0);    font: 16px "trebuchet ms", verdana, arial;  }</style><g></g><defs><marker id="extensionStart" class="extension" refX="0" refY="7" markerWidth="190" markerHeight="240" orient="auto"><path d="M 1,7 L18,13 V 1 Z"></path></marker></defs><defs><marker id="extensionEnd" refX="19" refY="7" markerWidth="20" markerHeight="28" orient="auto"><path d="M 1,1 V 13 L18,7 Z"></path></marker></defs><defs><marker id="compositionStart" class="extension" refX="0" refY="7" markerWidth="190" markerHeight="240" orient="auto"><path d="M 18,7 L9,13 L1,7 L9,1 Z"></path></marker></defs><defs><marker id="compositionEnd" refX="19" refY="7" markerWidth="20" markerHeight="28" orient="auto"><path d="M 18,7 L9,13 L1,7 L9,1 Z"></path></marker></defs><defs><marker id="aggregationStart" class="extension" refX="0" refY="7" markerWidth="190" markerHeight="240" orient="auto"><path d="M 18,7 L9,13 L1,7 L9,1 Z"></path></marker></defs><defs><marker id="aggregationEnd" refX="19" refY="7" markerWidth="20" markerHeight="28" orient="auto"><path d="M 18,7 L9,13 L1,7 L9,1 Z"></path></marker></defs><defs><marker id="dependencyStart" class="extension" refX="0" refY="7" markerWidth="190" markerHeight="240" orient="auto"><path d="M 5,7 L9,13 L1,7 L9,1 Z"></path></marker></defs><defs><marker id="dependencyEnd" refX="19" refY="7" markerWidth="20" markerHeight="28" orient="auto"><path d="M 18,7 L9,13 L14,7 L9,1 Z"></path></marker></defs><g id="classid-NumericLiteral-0" class="classGroup " transform="translate(0,170 )"><rect x="0" y="0" width="87" height="35"></rect><text y="15" x="0"><tspan class="title" x="5">NumericLiteral</tspan></text><line x1="0" y1="24" y2="24" x2="87"></line><text x="5" y="34" fill="white" class="classText"></text><line x1="0" y1="29" y2="29" x2="87"></line><text x="5" y="44" fill="white" class="classText"></text></g><g id="classid-Literal-1" class="classGroup " transform="translate(132,85 )"><rect x="0" y="0" width="43" height="35"></rect><text y="15" x="0"><tspan class="title" x="5">Literal</tspan></text><line x1="0" y1="24" y2="24" x2="43"></line><text x="5" y="34" fill="white" class="classText"></text><line x1="0" y1="29" y2="29" x2="43"></line><text x="5" y="44" fill="white" class="classText"></text></g><g id="classid-BreakStatement-2" class="classGroup " transform="translate(1664,170 )"><rect x="0" y="0" width="94" height="35"></rect><text y="15" x="0"><tspan class="title" x="5">BreakStatement</tspan></text><line x1="0" y1="24" y2="24" x2="94"></line><text x="5" y="34" fill="white" class="classText"></text><line x1="0" y1="29" y2="29" x2="94"></line><text x="5" y="44" fill="white" class="classText"></text></g><g id="classid-Declaration-3" class="classGroup " transform="translate(407.25,85 )"><rect x="0" y="0" width="68" height="35"></rect><text y="15" x="0"><tspan class="title" x="5">Declaration</tspan></text><line x1="0" y1="24" y2="24" x2="68"></line><text x="5" y="34" fill="white" class="classText"></text><line x1="0" y1="29" y2="29" x2="68"></line><text x="5" y="44" fill="white" class="classText"></text></g><g id="classid-BinaryExpression-4" class="classGroup " transform="translate(583,170 )"><rect x="0" y="0" width="99" height="35"></rect><text y="15" x="0"><tspan class="title" x="5">BinaryExpression</tspan></text><line x1="0" y1="24" y2="24" x2="99"></line><text x="5" y="34" fill="white" class="classText"></text><line x1="0" y1="29" y2="29" x2="99"></line><text x="5" y="44" fill="white" class="classText"></text></g><g id="classid-ConditionalExpression-5" class="classGroup " transform="translate(732,170 )"><rect x="0" y="0" width="122" height="35"></rect><text y="15" x="0"><tspan class="title" x="5">ConditionalExpression</tspan></text><line x1="0" y1="24" y2="24" x2="122"></line><text x="5" y="34" fill="white" class="classText"></text><line x1="0" y1="29" y2="29" x2="122"></line><text x="5" y="44" fill="white" class="classText"></text></g><g id="classid-AssignmentExpression-6" class="classGroup " transform="translate(904,170 )"><rect x="0" y="0" width="125" height="35"></rect><text y="15" x="0"><tspan class="title" x="5">AssignmentExpression</tspan></text><line x1="0" y1="24" y2="24" x2="125"></line><text x="5" y="34" fill="white" class="classText"></text><line x1="0" y1="29" y2="29" x2="125"></line><text x="5" y="44" fill="white" class="classText"></text></g><g id="classid-CallExpression-7" class="classGroup " transform="translate(1079,170 )"><rect x="0" y="0" width="83" height="35"></rect><text y="15" x="0"><tspan class="title" x="5">CallExpression</tspan></text><line x1="0" y1="24" y2="24" x2="83"></line><text x="5" y="34" fill="white" class="classText"></text><line x1="0" y1="29" y2="29" x2="83"></line><text x="5" y="44" fill="white" class="classText"></text></g><g id="classid-Expression-8" class="classGroup " transform="translate(1088,85 )"><rect x="0" y="0" width="65" height="35"></rect><text y="15" x="0"><tspan class="title" x="5">Expression</tspan></text><line x1="0" y1="24" y2="24" x2="65"></line><text x="5" y="34" fill="white" class="classText"></text><line x1="0" y1="29" y2="29" x2="65"></line><text x="5" y="44" fill="white" class="classText"></text></g><g id="classid-ForStatement-9" class="classGroup " transform="translate(1808,170 )"><rect x="0" y="0" width="80" height="35"></rect><text y="15" x="0"><tspan class="title" x="5">ForStatement</tspan></text><line x1="0" y1="24" y2="24" x2="80"></line><text x="5" y="34" fill="white" class="classText"></text><line x1="0" y1="29" y2="29" x2="80"></line><text x="5" y="44" fill="white" class="classText"></text></g><g id="classid-ArrayExpression-10" class="classGroup " transform="translate(1212,170 )"><rect x="0" y="0" width="94" height="35"></rect><text y="15" x="0"><tspan class="title" x="5">ArrayExpression</tspan></text><line x1="0" y1="24" y2="24" x2="94"></line><text x="5" y="34" fill="white" class="classText"></text><line x1="0" y1="29" y2="29" x2="94"></line><text x="5" y="44" fill="white" class="classText"></text></g><g id="classid-VariableDeclaration-11" class="classGroup " transform="translate(261,170 )"><rect x="0" y="0" width="110" height="35"></rect><text y="15" x="0"><tspan class="title" x="5">VariableDeclaration</tspan></text><line x1="0" y1="24" y2="24" x2="110"></line><text x="5" y="34" fill="white" class="classText"></text><line x1="0" y1="29" y2="29" x2="110"></line><text x="5" y="44" fill="white" class="classText"></text></g><g id="classid-UpdateExpression-12" class="classGroup " transform="translate(1356,170 )"><rect x="0" y="0" width="101" height="35"></rect><text y="15" x="0"><tspan class="title" x="5">UpdateExpression</tspan></text><line x1="0" y1="24" y2="24" x2="101"></line><text x="5" y="34" fill="white" class="classText"></text><line x1="0" y1="29" y2="29" x2="101"></line><text x="5" y="44" fill="white" class="classText"></text></g><g id="classid-Identifier-13" class="classGroup " transform="translate(1300,85 )"><rect x="0" y="0" width="57" height="35"></rect><text y="15" x="0"><tspan class="title" x="5">Identifier</tspan></text><line x1="0" y1="24" y2="24" x2="57"></line><text x="5" y="34" fill="white" class="classText"></text><line x1="0" y1="29" y2="29" x2="57"></line><text x="5" y="44" fill="white" class="classText"></text></g><g id="classid-BlockStatement-14" class="classGroup " transform="translate(1938,170 )"><rect x="0" y="0" width="91" height="35"></rect><text y="15" x="0"><tspan class="title" x="5">BlockStatement</tspan></text><line x1="0" y1="24" y2="24" x2="91"></line><text x="5" y="34" fill="white" class="classText"></text><line x1="0" y1="29" y2="29" x2="91"></line><text x="5" y="44" fill="white" class="classText"></text></g><g id="classid-VariableDeclarator-15" class="classGroup " transform="translate(1570.75,85 )"><rect x="0" y="0" width="105" height="35"></rect><text y="15" x="0"><tspan class="title" x="5">VariableDeclarator</tspan></text><line x1="0" y1="24" y2="24" x2="105"></line><text x="5" y="34" fill="white" class="classText"></text><line x1="0" y1="29" y2="29" x2="105"></line><text x="5" y="44" fill="white" class="classText"></text></g><g id="classid-SwitchStatement-16" class="classGroup " transform="translate(2079,170 )"><rect x="0" y="0" width="98" height="35"></rect><text y="15" x="0"><tspan class="title" x="5">SwitchStatement</tspan></text><line x1="0" y1="24" y2="24" x2="98"></line><text x="5" y="34" fill="white" class="classText"></text><line x1="0" y1="29" y2="29" x2="98"></line><text x="5" y="44" fill="white" class="classText"></text></g><g id="classid-File-17" class="classGroup " transform="translate(1725.75,85 )"><rect x="0" y="0" width="27" height="35"></rect><text y="15" x="0"><tspan class="title" x="5">File</tspan></text><line x1="0" y1="24" y2="24" x2="27"></line><text x="5" y="34" fill="white" class="classText"></text><line x1="0" y1="29" y2="29" x2="27"></line><text x="5" y="44" fill="white" class="classText"></text></g><g id="classid-FunctionDeclaration-18" class="classGroup " transform="translate(421,170 )"><rect x="0" y="0" width="112" height="35"></rect><text y="15" x="0"><tspan class="title" x="5">FunctionDeclaration</tspan></text><line x1="0" y1="24" y2="24" x2="112"></line><text x="5" y="34" fill="white" class="classText"></text><line x1="0" y1="29" y2="29" x2="112"></line><text x="5" y="44" fill="white" class="classText"></text></g><g id="classid-MemberExpression-19" class="classGroup " transform="translate(1507,170 )"><rect x="0" y="0" width="107" height="35"></rect><text y="15" x="0"><tspan class="title" x="5">MemberExpression</tspan></text><line x1="0" y1="24" y2="24" x2="107"></line><text x="5" y="34" fill="white" class="classText"></text><line x1="0" y1="29" y2="29" x2="107"></line><text x="5" y="44" fill="white" class="classText"></text></g><g id="classid-ExpressionStatement-20" class="classGroup " transform="translate(2227,170 )"><rect x="0" y="0" width="119" height="35"></rect><text y="15" x="0"><tspan class="title" x="5">ExpressionStatement</tspan></text><line x1="0" y1="24" y2="24" x2="119"></line><text x="5" y="34" fill="white" class="classText"></text><line x1="0" y1="29" y2="29" x2="119"></line><text x="5" y="44" fill="white" class="classText"></text></g><g id="classid-Program-21" class="classGroup " transform="translate(1802.75,85 )"><rect x="0" y="0" width="54" height="35"></rect><text y="15" x="0"><tspan class="title" x="5">Program</tspan></text><line x1="0" y1="24" y2="24" x2="54"></line><text x="5" y="34" fill="white" class="classText"></text><line x1="0" y1="29" y2="29" x2="54"></line><text x="5" y="44" fill="white" class="classText"></text></g><g id="classid-SwitchCase-22" class="classGroup " transform="translate(1906.75,85 )"><rect x="0" y="0" width="67" height="35"></rect><text y="15" x="0"><tspan class="title" x="5">SwitchCase</tspan></text><line x1="0" y1="24" y2="24" x2="67"></line><text x="5" y="34" fill="white" class="classText"></text><line x1="0" y1="29" y2="29" x2="67"></line><text x="5" y="44" fill="white" class="classText"></text></g><g id="classid-Parser-23" class="classGroup " transform="translate(1512.25,0 )"><rect x="0" y="0" width="43" height="35"></rect><text y="15" x="0"><tspan class="title" x="5">Parser</tspan></text><line x1="0" y1="24" y2="24" x2="43"></line><text x="5" y="34" fill="white" class="classText"></text><line x1="0" y1="29" y2="29" x2="43"></line><text x="5" y="44" fill="white" class="classText"></text></g><g id="classid-StringLiteral-24" class="classGroup " transform="translate(137,170 )"><rect x="0" y="0" width="74" height="35"></rect><text y="15" x="0"><tspan class="title" x="5">StringLiteral</tspan></text><line x1="0" y1="24" y2="24" x2="74"></line><text x="5" y="34" fill="white" class="classText"></text><line x1="0" y1="29" y2="29" x2="74"></line><text x="5" y="44" fill="white" class="classText"></text></g><g id="classid-ReturnStatement-25" class="classGroup " transform="translate(2396,170 )"><rect x="0" y="0" width="100" height="35"></rect><text y="15" x="0"><tspan class="title" x="5">ReturnStatement</tspan></text><line x1="0" y1="24" y2="24" x2="100"></line><text x="5" y="34" fill="white" class="classText"></text><line x1="0" y1="29" y2="29" x2="100"></line><text x="5" y="44" fill="white" class="classText"></text></g><g id="classid-Node-26" class="classGroup " transform="translate(1605.25,0 )"><rect x="0" y="0" width="36" height="35"></rect><text y="15" x="0"><tspan class="title" x="5">Node</tspan></text><line x1="0" y1="24" y2="24" x2="36"></line><text x="5" y="34" fill="white" class="classText"></text><line x1="0" y1="29" y2="29" x2="36"></line><text x="5" y="44" fill="white" class="classText"></text></g><g id="classid-Statement-27" class="classGroup " transform="translate(2023.75,85 )"><rect x="0" y="0" width="64" height="35"></rect><text y="15" x="0"><tspan class="title" x="5">Statement</tspan></text><line x1="0" y1="24" y2="24" x2="64"></line><text x="5" y="34" fill="white" class="classText"></text><line x1="0" y1="29" y2="29" x2="64"></line><text x="5" y="44" fill="white" class="classText"></text></g><path d="M132,110.80681818181819L117.25,116.50568181818183C102.5,122.20454545454545,73,133.60227272727272,58.25,143.46780303030303C43.5,153.33333333333334,43.5,161.66666666666666,43.5,165.83333333333334L43.5,170" id="edge0" class="relation" marker-start="url(#extensionStart)"></path><path d="M1605.25,18.02049668310937L1363.2916666666667,25.01708056925781C1121.3333333333333,32.01366445540625,637.4166666666666,46.00683222770312,395.4583333333333,57.170082780518236C153.5,68.33333333333333,153.5,76.66666666666667,153.5,80.83333333333333L153.5,85" id="edge1" class="relation" marker-start="url(#extensionStart)"></path><path d="M2023.75,106.44488759970993L1971.625,112.87073966642494C1919.5,119.29659173313996,1815.25,132.14829586656998,1763.125,142.74081459995165C1711,153.33333333333334,1711,161.66666666666666,1711,165.83333333333334L1711,170" id="edge2" class="relation" marker-start="url(#extensionStart)"></path><path d="M1605.25,18.14720812182741L1411.25,25.12267343485618C1217.25,32.09813874788494,829.25,46.04906937394247,635.25,57.1912013536379C441.25,68.33333333333333,441.25,76.66666666666667,441.25,80.83333333333333L441.25,85" id="edge3" class="relation" marker-start="url(#extensionStart)"></path><path d="M1088,105.33043032786885L1012.0833333333334,111.94202527322405C936.1666666666666,118.55362021857923,784.3333333333334,131.7768101092896,708.4166666666666,142.55507172131146C632.5,153.33333333333334,632.5,161.66666666666666,632.5,165.83333333333334L632.5,170" id="edge4" class="relation" marker-start="url(#extensionStart)"></path><path d="M1088,106.7175572519084L1038.8333333333333,113.09796437659033C989.6666666666666,119.47837150127226,891.3333333333334,132.23918575063612,842.1666666666666,142.78625954198472C793,153.33333333333334,793,161.66666666666666,793,165.83333333333334L793,170" id="edge5" class="relation" marker-start="url(#extensionStart)"></path><path d="M1088,111.46915584415585L1067.75,117.05762987012987C1047.5,122.64610389610391,1007,133.82305194805195,986.75,143.57819264069263C966.5,153.33333333333334,966.5,161.66666666666666,966.5,165.83333333333334L966.5,170" id="edge6" class="relation" marker-start="url(#extensionStart)"></path><path d="M1120.5,120L1120.5,124.16666666666667C1120.5,128.33333333333334,1120.5,136.66666666666666,1120.5,145C1120.5,153.33333333333334,1120.5,161.66666666666666,1120.5,165.83333333333334L1120.5,170" id="edge7" class="relation" marker-start="url(#extensionStart)"></path><path d="M1605.25,19.021631029338636L1524.4583333333333,25.85135919111553C1443.6666666666667,32.681087352892426,1282.0833333333333,46.34054367644621,1201.2916666666667,57.33693850488978C1120.5,68.33333333333333,1120.5,76.66666666666667,1120.5,80.83333333333333L1120.5,85" id="edge8" class="relation" marker-start="url(#extensionStart)"></path><path d="M2023.75,109.04632972322503L1994.4583333333333,115.03860810268752C1965.1666666666667,121.03088648215002,1906.5833333333333,133.01544324107502,1877.2916666666667,143.17438828720415C1848,153.33333333333334,1848,161.66666666666666,1848,165.83333333333334L1848,170" id="edge9" class="relation" marker-start="url(#extensionStart)"></path><path d="M1153,112.47292418772562L1170.6666666666667,117.89410348977135C1188.3333333333333,123.31528279181708,1223.6666666666667,134.15764139590854,1241.3333333333333,143.74548736462094C1259,153.33333333333334,1259,161.66666666666666,1259,165.83333333333334L1259,170" id="edge10" class="relation" marker-start="url(#extensionStart)"></path><path d="M407.25,114.03692614770459L392.0416666666667,119.1974384564205C376.8333333333333,124.35795076513641,346.4166666666667,134.6789753825682,331.2083333333333,144.00615435795075C316,153.33333333333334,316,161.66666666666666,316,165.83333333333334L316,170" id="edge11" class="relation" marker-start="url(#extensionStart)"></path><path d="M1153,107.32954545454545L1195.25,113.60795454545455C1237.5,119.88636363636363,1322,132.4431818181818,1364.25,142.8882575757576C1406.5,153.33333333333334,1406.5,161.66666666666666,1406.5,165.83333333333334L1406.5,170" id="edge12" class="relation" marker-start="url(#extensionStart)"></path><path d="M1605.25,20.095419847328245L1559.125,26.746183206106867C1513,33.396946564885496,1420.75,46.69847328244274,1374.625,57.51590330788804C1328.5,68.33333333333333,1328.5,76.66666666666667,1328.5,80.83333333333333L1328.5,85" id="edge13" class="relation" marker-start="url(#extensionStart)"></path><path d="M2026,120L2018.9166666666667,124.16666666666667C2011.8333333333333,128.33333333333334,1997.6666666666667,136.66666666666666,1990.5833333333333,145C1983.5,153.33333333333334,1983.5,161.66666666666666,1983.5,165.83333333333334L1983.5,170" id="edge14" class="relation" marker-start="url(#extensionStart)"></path><path d="M1623.25,35L1623.25,39.166666666666664C1623.25,43.333333333333336,1623.25,51.666666666666664,1623.25,60C1623.25,68.33333333333333,1623.25,76.66666666666667,1623.25,80.83333333333333L1623.25,85" id="edge15" class="relation" marker-start="url(#extensionStart)"></path><path d="M2085.5,120L2092.5833333333335,124.16666666666667C2099.6666666666665,128.33333333333334,2113.8333333333335,136.66666666666666,2120.9166666666665,145C2128,153.33333333333334,2128,161.66666666666666,2128,165.83333333333334L2128,170" id="edge16" class="relation" marker-start="url(#extensionStart)"></path><path d="M1641.25,24.094827586206897L1657.5833333333333,30.079022988505745C1673.9166666666667,36.0632183908046,1706.5833333333333,48.0316091954023,1722.9166666666667,58.18247126436782C1739.25,68.33333333333333,1739.25,76.66666666666667,1739.25,80.83333333333333L1739.25,85" id="edge17" class="relation" marker-start="url(#extensionStart)"></path><path d="M455.97058823529414,120L459.47549019607845,124.16666666666667C462.98039215686276,128.33333333333334,469.9901960784314,136.66666666666666,473.4950980392157,145C477,153.33333333333334,477,161.66666666666666,477,165.83333333333334L477,170" id="edge18" class="relation" marker-start="url(#extensionStart)"></path><path d="M1153,105.63920454545455L1220.9166666666667,112.19933712121212C1288.8333333333333,118.7594696969697,1424.6666666666667,131.87973484848484,1492.5833333333333,142.6065340909091C1560.5,153.33333333333334,1560.5,161.66666666666666,1560.5,165.83333333333334L1560.5,170" id="edge19" class="relation" marker-start="url(#extensionStart)"></path><path d="M2087.75,108.39382448537378L2120.875,114.49485373781148C2154,120.5958829902492,2220.25,132.7979414951246,2253.375,143.06563741422897C2286.5,153.33333333333334,2286.5,161.66666666666666,2286.5,165.83333333333334L2286.5,170" id="edge20" class="relation" marker-start="url(#extensionStart)"></path><path d="M1641.25,21.2046004842615L1672.6666666666667,27.670500403551255C1704.0833333333333,34.136400322841006,1766.9166666666667,47.0682001614205,1798.3333333333333,57.70076674737692C1829.75,68.33333333333333,1829.75,76.66666666666667,1829.75,80.83333333333333L1829.75,85" id="edge21" class="relation" marker-start="url(#extensionStart)"></path><path d="M1641.25,19.913249211356465L1691.0833333333333,26.594374342797053C1740.9166666666667,33.27549947423764,1840.5833333333333,46.63774973711882,1890.4166666666667,57.485541535226076C1940.25,68.33333333333333,1940.25,76.66666666666667,1940.25,80.83333333333333L1940.25,85" id="edge22" class="relation" marker-start="url(#extensionStart)"></path><path d="M161.94117647058823,120L163.95098039215688,124.16666666666667C165.9607843137255,128.33333333333334,169.98039215686273,136.66666666666666,171.99019607843138,145C174,153.33333333333334,174,161.66666666666666,174,165.83333333333334L174,170" id="edge23" class="relation" marker-start="url(#extensionStart)"></path><path d="M2087.75,105.98494554772581L2147.4583333333335,112.48745462310484C2207.1666666666665,118.98996369848389,2326.5833333333335,131.99498184924195,2386.2916666666665,142.66415759128765C2446,153.33333333333334,2446,161.66666666666666,2446,165.83333333333334L2446,170" id="edge24" class="relation" marker-start="url(#extensionStart)"></path><path d="M1641.25,19.26878612716763L1710.3333333333333,26.057321772639693C1779.4166666666667,32.845857418111756,1917.5833333333333,46.422928709055874,1986.6666666666667,57.378131021194605C2055.75,68.33333333333333,2055.75,76.66666666666667,2055.75,80.83333333333333L2055.75,85" id="edge25" class="relation" marker-start="url(#extensionStart)"></path></svg>