<svg id="mermaid-1587243966965" width="3680.75" xmlns="http://www.w3.org/2000/svg" height="245" viewBox="-10 -10 2460.5 225"><style>#mermaid-1587243966965 .label{font-family:'trebuchet ms', verdana, arial;font-family:var(--mermaid-font-family);color:#333}#mermaid-1587243966965 .label text{fill:#333}#mermaid-1587243966965 .node rect,#mermaid-1587243966965 .node circle,#mermaid-1587243966965 .node ellipse,#mermaid-1587243966965 .node polygon,#mermaid-1587243966965 .node path{fill:#ECECFF;stroke:#9370db;stroke-width:1px}#mermaid-1587243966965 .node .label{text-align:center}#mermaid-1587243966965 .node.clickable{cursor:pointer}#mermaid-1587243966965 .arrowheadPath{fill:#333}#mermaid-1587243966965 .edgePath .path{stroke:#333;stroke-width:1.5px}#mermaid-1587243966965 .edgeLabel{background-color:#e8e8e8;text-align:center}#mermaid-1587243966965 .cluster rect{fill:#ffffde;stroke:#aa3;stroke-width:1px}#mermaid-1587243966965 .cluster text{fill:#333}#mermaid-1587243966965 div.mermaidTooltip{position:absolute;text-align:center;max-width:200px;padding:2px;font-family:'trebuchet ms', verdana, arial;font-family:var(--mermaid-font-family);font-size:12px;background:#ffffde;border:1px solid #aa3;border-radius:2px;pointer-events:none;z-index:100}#mermaid-1587243966965 .actor{stroke:#ccf;fill:#ECECFF}#mermaid-1587243966965 text.actor{fill:#000;stroke:none}#mermaid-1587243966965 .actor-line{stroke:grey}#mermaid-1587243966965 .messageLine0{stroke-width:1.5;stroke-dasharray:'2 2';stroke:#333}#mermaid-1587243966965 .messageLine1{stroke-width:1.5;stroke-dasharray:'2 2';stroke:#333}#mermaid-1587243966965 #arrowhead{fill:#333}#mermaid-1587243966965 .sequenceNumber{fill:#fff}#mermaid-1587243966965 #sequencenumber{fill:#333}#mermaid-1587243966965 #crosshead path{fill:#333 !important;stroke:#333 !important}#mermaid-1587243966965 .messageText{fill:#333;stroke:none}#mermaid-1587243966965 .labelBox{stroke:#ccf;fill:#ECECFF}#mermaid-1587243966965 .labelText{fill:#000;stroke:none}#mermaid-1587243966965 .loopText{fill:#000;stroke:none}#mermaid-1587243966965 .loopLine{stroke-width:2;stroke-dasharray:'2 2';stroke:#ccf}#mermaid-1587243966965 .note{stroke:#aa3;fill:#fff5ad}#mermaid-1587243966965 .noteText{fill:black;stroke:none;font-family:'trebuchet ms', verdana, arial;font-family:var(--mermaid-font-family);font-size:14px}#mermaid-1587243966965 .activation0{fill:#f4f4f4;stroke:#666}#mermaid-1587243966965 .activation1{fill:#f4f4f4;stroke:#666}#mermaid-1587243966965 .activation2{fill:#f4f4f4;stroke:#666}#mermaid-1587243966965 .mermaid-main-font{font-family:"trebuchet ms", verdana, arial;font-family:var(--mermaid-font-family)}#mermaid-1587243966965 .section{stroke:none;opacity:0.2}#mermaid-1587243966965 .section0{fill:rgba(102,102,255,0.49)}#mermaid-1587243966965 .section2{fill:#fff400}#mermaid-1587243966965 .section1,#mermaid-1587243966965 .section3{fill:#fff;opacity:0.2}#mermaid-1587243966965 .sectionTitle0{fill:#333}#mermaid-1587243966965 .sectionTitle1{fill:#333}#mermaid-1587243966965 .sectionTitle2{fill:#333}#mermaid-1587243966965 .sectionTitle3{fill:#333}#mermaid-1587243966965 .sectionTitle{text-anchor:start;font-size:11px;text-height:14px;font-family:'trebuchet ms', verdana, arial;font-family:var(--mermaid-font-family)}#mermaid-1587243966965 .grid .tick{stroke:#d3d3d3;opacity:0.8;shape-rendering:crispEdges}#mermaid-1587243966965 .grid .tick text{font-family:'trebuchet ms', verdana, arial;font-family:var(--mermaid-font-family)}#mermaid-1587243966965 .grid path{stroke-width:0}#mermaid-1587243966965 .today{fill:none;stroke:red;stroke-width:2px}#mermaid-1587243966965 .task{stroke-width:2}#mermaid-1587243966965 .taskText{text-anchor:middle;font-family:'trebuchet ms', verdana, arial;font-family:var(--mermaid-font-family)}#mermaid-1587243966965 .taskText:not([font-size]){font-size:11px}#mermaid-1587243966965 .taskTextOutsideRight{fill:#000;text-anchor:start;font-size:11px;font-family:'trebuchet ms', verdana, arial;font-family:var(--mermaid-font-family)}#mermaid-1587243966965 .taskTextOutsideLeft{fill:#000;text-anchor:end;font-size:11px}#mermaid-1587243966965 .task.clickable{cursor:pointer}#mermaid-1587243966965 .taskText.clickable{cursor:pointer;fill:#003163 !important;font-weight:bold}#mermaid-1587243966965 .taskTextOutsideLeft.clickable{cursor:pointer;fill:#003163 !important;font-weight:bold}#mermaid-1587243966965 .taskTextOutsideRight.clickable{cursor:pointer;fill:#003163 !important;font-weight:bold}#mermaid-1587243966965 .taskText0,#mermaid-1587243966965 .taskText1,#mermaid-1587243966965 .taskText2,#mermaid-1587243966965 .taskText3{fill:#fff}#mermaid-1587243966965 .task0,#mermaid-1587243966965 .task1,#mermaid-1587243966965 .task2,#mermaid-1587243966965 .task3{fill:#8a90dd;stroke:#534fbc}#mermaid-1587243966965 .taskTextOutside0,#mermaid-1587243966965 .taskTextOutside2{fill:#000}#mermaid-1587243966965 .taskTextOutside1,#mermaid-1587243966965 .taskTextOutside3{fill:#000}#mermaid-1587243966965 .active0,#mermaid-1587243966965 .active1,#mermaid-1587243966965 .active2,#mermaid-1587243966965 .active3{fill:#bfc7ff;stroke:#534fbc}#mermaid-1587243966965 .activeText0,#mermaid-1587243966965 .activeText1,#mermaid-1587243966965 .activeText2,#mermaid-1587243966965 .activeText3{fill:#000 !important}#mermaid-1587243966965 .done0,#mermaid-1587243966965 .done1,#mermaid-1587243966965 .done2,#mermaid-1587243966965 .done3{stroke:grey;fill:#d3d3d3;stroke-width:2}#mermaid-1587243966965 .doneText0,#mermaid-1587243966965 .doneText1,#mermaid-1587243966965 .doneText2,#mermaid-1587243966965 .doneText3{fill:#000 !important}#mermaid-1587243966965 .crit0,#mermaid-1587243966965 .crit1,#mermaid-1587243966965 .crit2,#mermaid-1587243966965 .crit3{stroke:#f88;fill:red;stroke-width:2}#mermaid-1587243966965 .activeCrit0,#mermaid-1587243966965 .activeCrit1,#mermaid-1587243966965 .activeCrit2,#mermaid-1587243966965 .activeCrit3{stroke:#f88;fill:#bfc7ff;stroke-width:2}#mermaid-1587243966965 .doneCrit0,#mermaid-1587243966965 .doneCrit1,#mermaid-1587243966965 .doneCrit2,#mermaid-1587243966965 .doneCrit3{stroke:#f88;fill:#d3d3d3;stroke-width:2;cursor:pointer;shape-rendering:crispEdges}#mermaid-1587243966965 .milestone{transform:rotate(45deg) scale(0.8, 0.8)}#mermaid-1587243966965 .milestoneText{font-style:italic}#mermaid-1587243966965 .doneCritText0,#mermaid-1587243966965 .doneCritText1,#mermaid-1587243966965 .doneCritText2,#mermaid-1587243966965 .doneCritText3{fill:#000 !important}#mermaid-1587243966965 .activeCritText0,#mermaid-1587243966965 .activeCritText1,#mermaid-1587243966965 .activeCritText2,#mermaid-1587243966965 .activeCritText3{fill:#000 !important}#mermaid-1587243966965 .titleText{text-anchor:middle;font-size:18px;fill:#000;font-family:'trebuchet ms', verdana, arial;font-family:var(--mermaid-font-family)}#mermaid-1587243966965 g.classGroup text{fill:#9370db;stroke:none;font-family:'trebuchet ms', verdana, arial;font-family:var(--mermaid-font-family);font-size:10px}#mermaid-1587243966965 g.classGroup text .title{font-weight:bolder}#mermaid-1587243966965 g.clickable{cursor:pointer}#mermaid-1587243966965 g.classGroup rect{fill:#ECECFF;stroke:#9370db}#mermaid-1587243966965 g.classGroup line{stroke:#9370db;stroke-width:1}#mermaid-1587243966965 .classLabel .box{stroke:none;stroke-width:0;fill:#ECECFF;opacity:0.5}#mermaid-1587243966965 .classLabel .label{fill:#9370db;font-size:10px}#mermaid-1587243966965 .relation{stroke:#9370db;stroke-width:1;fill:none}#mermaid-1587243966965 .dashed-line{stroke-dasharray:3}#mermaid-1587243966965 #compositionStart{fill:#9370db;stroke:#9370db;stroke-width:1}#mermaid-1587243966965 #compositionEnd{fill:#9370db;stroke:#9370db;stroke-width:1}#mermaid-1587243966965 #aggregationStart{fill:#ECECFF;stroke:#9370db;stroke-width:1}#mermaid-1587243966965 #aggregationEnd{fill:#ECECFF;stroke:#9370db;stroke-width:1}#mermaid-1587243966965 #dependencyStart{fill:#9370db;stroke:#9370db;stroke-width:1}#mermaid-1587243966965 #dependencyEnd{fill:#9370db;stroke:#9370db;stroke-width:1}#mermaid-1587243966965 #extensionStart{fill:#9370db;stroke:#9370db;stroke-width:1}#mermaid-1587243966965 #extensionEnd{fill:#9370db;stroke:#9370db;stroke-width:1}#mermaid-1587243966965 .commit-id,#mermaid-1587243966965 .commit-msg,#mermaid-1587243966965 .branch-label{fill:lightgrey;color:lightgrey;font-family:'trebuchet ms', verdana, arial;font-family:var(--mermaid-font-family)}#mermaid-1587243966965 .pieTitleText{text-anchor:middle;font-size:25px;fill:#000;font-family:'trebuchet ms', verdana, arial;font-family:var(--mermaid-font-family)}#mermaid-1587243966965 .slice{font-family:'trebuchet ms', verdana, arial;font-family:var(--mermaid-font-family)}#mermaid-1587243966965 g.stateGroup text{fill:#9370db;stroke:none;font-size:10px;font-family:'trebuchet ms', verdana, arial;font-family:var(--mermaid-font-family)}#mermaid-1587243966965 g.stateGroup text{fill:#9370db;stroke:none;font-size:10px}#mermaid-1587243966965 g.stateGroup .state-title{font-weight:bolder;fill:#000}#mermaid-1587243966965 g.stateGroup rect{fill:#ECECFF;stroke:#9370db}#mermaid-1587243966965 g.stateGroup line{stroke:#9370db;stroke-width:1}#mermaid-1587243966965 .transition{stroke:#9370db;stroke-width:1;fill:none}#mermaid-1587243966965 .stateGroup .composit{fill:white;border-bottom:1px}#mermaid-1587243966965 .stateGroup .alt-composit{fill:#e0e0e0;border-bottom:1px}#mermaid-1587243966965 .state-note{stroke:#aa3;fill:#fff5ad}#mermaid-1587243966965 .state-note text{fill:black;stroke:none;font-size:10px}#mermaid-1587243966965 .stateLabel .box{stroke:none;stroke-width:0;fill:#ECECFF;opacity:0.5}#mermaid-1587243966965 .stateLabel text{fill:#000;font-size:10px;font-weight:bold;font-family:'trebuchet ms', verdana, arial;font-family:var(--mermaid-font-family)}:root{--mermaid-font-family: '"trebuchet ms", verdana, arial';--mermaid-font-family: "Comic Sans MS", "Comic Sans", cursive}:root { --mermaid-font-family: "trebuchet ms", verdana, arial;}</style><style>#mermaid-1587243966965 {    color: rgb(0, 0, 0);    font: 16px "trebuchet ms", verdana, arial;  }</style><g></g><defs><marker id="extensionStart" class="extension" refX="0" refY="7" markerWidth="190" markerHeight="240" orient="auto"><path d="M 1,7 L18,13 V 1 Z"></path></marker></defs><defs><marker id="extensionEnd" refX="19" refY="7" markerWidth="20" markerHeight="28" orient="auto"><path d="M 1,1 V 13 L18,7 Z"></path></marker></defs><defs><marker id="compositionStart" class="extension" refX="0" refY="7" markerWidth="190" markerHeight="240" orient="auto"><path d="M 18,7 L9,13 L1,7 L9,1 Z"></path></marker></defs><defs><marker id="compositionEnd" refX="19" refY="7" markerWidth="20" markerHeight="28" orient="auto"><path d="M 18,7 L9,13 L1,7 L9,1 Z"></path></marker></defs><defs><marker id="aggregationStart" class="extension" refX="0" refY="7" markerWidth="190" markerHeight="240" orient="auto"><path d="M 18,7 L9,13 L1,7 L9,1 Z"></path></marker></defs><defs><marker id="aggregationEnd" refX="19" refY="7" markerWidth="20" markerHeight="28" orient="auto"><path d="M 18,7 L9,13 L1,7 L9,1 Z"></path></marker></defs><defs><marker id="dependencyStart" class="extension" refX="0" refY="7" markerWidth="190" markerHeight="240" orient="auto"><path d="M 5,7 L9,13 L1,7 L9,1 Z"></path></marker></defs><defs><marker id="dependencyEnd" refX="19" refY="7" markerWidth="20" markerHeight="28" orient="auto"><path d="M 18,7 L9,13 L14,7 L9,1 Z"></path></marker></defs><g id="classid-TestResult-0" class="classGroup " transform="translate(243.25,0 )"><rect x="0" y="0" width="64" height="35"></rect><text y="15" x="0"><tspan class="title" x="5">TestResult</tspan></text><line x1="0" y1="24" y2="24" x2="64"></line><text x="5" y="34" fill="white" class="classText"></text><line x1="0" y1="29" y2="29" x2="64"></line><text x="5" y="44" fill="white" class="classText"></text></g><g id="classid-BreakStatement-1" class="classGroup " transform="translate(1608.5,170 )"><rect x="0" y="0" width="94" height="35"></rect><text y="15" x="0"><tspan class="title" x="5">BreakStatement</tspan></text><line x1="0" y1="24" y2="24" x2="94"></line><text x="5" y="34" fill="white" class="classText"></text><line x1="0" y1="29" y2="29" x2="94"></line><text x="5" y="44" fill="white" class="classText"></text></g><g id="classid-NumericLiteral-2" class="classGroup " transform="translate(441.5,170 )"><rect x="0" y="0" width="87" height="35"></rect><text y="15" x="0"><tspan class="title" x="5">NumericLiteral</tspan></text><line x1="0" y1="24" y2="24" x2="87"></line><text x="5" y="34" fill="white" class="classText"></text><line x1="0" y1="29" y2="29" x2="87"></line><text x="5" y="44" fill="white" class="classText"></text></g><g id="classid-StringLiteral-3" class="classGroup " transform="translate(578.5,170 )"><rect x="0" y="0" width="74" height="35"></rect><text y="15" x="0"><tspan class="title" x="5">StringLiteral</tspan></text><line x1="0" y1="24" y2="24" x2="74"></line><text x="5" y="34" fill="white" class="classText"></text><line x1="0" y1="29" y2="29" x2="74"></line><text x="5" y="44" fill="white" class="classText"></text></g><g id="classid-ReturnStatement-4" class="classGroup " transform="translate(1752.5,170 )"><rect x="0" y="0" width="100" height="35"></rect><text y="15" x="0"><tspan class="title" x="5">ReturnStatement</tspan></text><line x1="0" y1="24" y2="24" x2="100"></line><text x="5" y="34" fill="white" class="classText"></text><line x1="0" y1="29" y2="29" x2="100"></line><text x="5" y="44" fill="white" class="classText"></text></g><g id="classid-ExpressionStatement-5" class="classGroup " transform="translate(1902.5,170 )"><rect x="0" y="0" width="119" height="35"></rect><text y="15" x="0"><tspan class="title" x="5">ExpressionStatement</tspan></text><line x1="0" y1="24" y2="24" x2="119"></line><text x="5" y="34" fill="white" class="classText"></text><line x1="0" y1="29" y2="29" x2="119"></line><text x="5" y="44" fill="white" class="classText"></text></g><g id="classid-SwitchCase-6" class="classGroup " transform="translate(0,85 )"><rect x="0" y="0" width="67" height="35"></rect><text y="15" x="0"><tspan class="title" x="5">SwitchCase</tspan></text><line x1="0" y1="24" y2="24" x2="67"></line><text x="5" y="34" fill="white" class="classText"></text><line x1="0" y1="29" y2="29" x2="67"></line><text x="5" y="44" fill="white" class="classText"></text></g><g id="classid-Program-7" class="classGroup " transform="translate(117,85 )"><rect x="0" y="0" width="54" height="35"></rect><text y="15" x="0"><tspan class="title" x="5">Program</tspan></text><line x1="0" y1="24" y2="24" x2="54"></line><text x="5" y="34" fill="white" class="classText"></text><line x1="0" y1="29" y2="29" x2="54"></line><text x="5" y="44" fill="white" class="classText"></text></g><g id="classid-ConditionalExpression-8" class="classGroup " transform="translate(702.5,170 )"><rect x="0" y="0" width="122" height="35"></rect><text y="15" x="0"><tspan class="title" x="5">ConditionalExpression</tspan></text><line x1="0" y1="24" y2="24" x2="122"></line><text x="5" y="34" fill="white" class="classText"></text><line x1="0" y1="29" y2="29" x2="122"></line><text x="5" y="44" fill="white" class="classText"></text></g><g id="classid-BinaryExpression-9" class="classGroup " transform="translate(874.5,170 )"><rect x="0" y="0" width="99" height="35"></rect><text y="15" x="0"><tspan class="title" x="5">BinaryExpression</tspan></text><line x1="0" y1="24" y2="24" x2="99"></line><text x="5" y="34" fill="white" class="classText"></text><line x1="0" y1="29" y2="29" x2="99"></line><text x="5" y="44" fill="white" class="classText"></text></g><g id="classid-Declaration-10" class="classGroup " transform="translate(221,85 )"><rect x="0" y="0" width="68" height="35"></rect><text y="15" x="0"><tspan class="title" x="5">Declaration</tspan></text><line x1="0" y1="24" y2="24" x2="68"></line><text x="5" y="34" fill="white" class="classText"></text><line x1="0" y1="29" y2="29" x2="68"></line><text x="5" y="44" fill="white" class="classText"></text></g><g id="classid-SwitchStatement-11" class="classGroup " transform="translate(2071.5,170 )"><rect x="0" y="0" width="98" height="35"></rect><text y="15" x="0"><tspan class="title" x="5">SwitchStatement</tspan></text><line x1="0" y1="24" y2="24" x2="98"></line><text x="5" y="34" fill="white" class="classText"></text><line x1="0" y1="29" y2="29" x2="98"></line><text x="5" y="44" fill="white" class="classText"></text></g><g id="classid-File-12" class="classGroup " transform="translate(403,85 )"><rect x="0" y="0" width="27" height="35"></rect><text y="15" x="0"><tspan class="title" x="5">File</tspan></text><line x1="0" y1="24" y2="24" x2="27"></line><text x="5" y="34" fill="white" class="classText"></text><line x1="0" y1="29" y2="29" x2="27"></line><text x="5" y="44" fill="white" class="classText"></text></g><g id="classid-ForStatement-13" class="classGroup " transform="translate(2219.5,170 )"><rect x="0" y="0" width="80" height="35"></rect><text y="15" x="0"><tspan class="title" x="5">ForStatement</tspan></text><line x1="0" y1="24" y2="24" x2="80"></line><text x="5" y="34" fill="white" class="classText"></text><line x1="0" y1="29" y2="29" x2="80"></line><text x="5" y="44" fill="white" class="classText"></text></g><g id="classid-ArrayExpression-14" class="classGroup " transform="translate(1023.5,170 )"><rect x="0" y="0" width="94" height="35"></rect><text y="15" x="0"><tspan class="title" x="5">ArrayExpression</tspan></text><line x1="0" y1="24" y2="24" x2="94"></line><text x="5" y="34" fill="white" class="classText"></text><line x1="0" y1="29" y2="29" x2="94"></line><text x="5" y="44" fill="white" class="classText"></text></g><g id="classid-Literal-15" class="classGroup " transform="translate(528.75,85 )"><rect x="0" y="0" width="43" height="35"></rect><text y="15" x="0"><tspan class="title" x="5">Literal</tspan></text><line x1="0" y1="24" y2="24" x2="43"></line><text x="5" y="34" fill="white" class="classText"></text><line x1="0" y1="29" y2="29" x2="43"></line><text x="5" y="44" fill="white" class="classText"></text></g><g id="classid-UpdateExpression-16" class="classGroup " transform="translate(1167.5,170 )"><rect x="0" y="0" width="101" height="35"></rect><text y="15" x="0"><tspan class="title" x="5">UpdateExpression</tspan></text><line x1="0" y1="24" y2="24" x2="101"></line><text x="5" y="34" fill="white" class="classText"></text><line x1="0" y1="29" y2="29" x2="101"></line><text x="5" y="44" fill="white" class="classText"></text></g><g id="classid-VariableDeclaration-17" class="classGroup " transform="translate(119.5,170 )"><rect x="0" y="0" width="110" height="35"></rect><text y="15" x="0"><tspan class="title" x="5">VariableDeclaration</tspan></text><line x1="0" y1="24" y2="24" x2="110"></line><text x="5" y="34" fill="white" class="classText"></text><line x1="0" y1="29" y2="29" x2="110"></line><text x="5" y="44" fill="white" class="classText"></text></g><g id="classid-Identifier-18" class="classGroup " transform="translate(731.5,85 )"><rect x="0" y="0" width="57" height="35"></rect><text y="15" x="0"><tspan class="title" x="5">Identifier</tspan></text><line x1="0" y1="24" y2="24" x2="57"></line><text x="5" y="34" fill="white" class="classText"></text><line x1="0" y1="29" y2="29" x2="57"></line><text x="5" y="44" fill="white" class="classText"></text></g><g id="classid-CallExpression-19" class="classGroup " transform="translate(1318.5,170 )"><rect x="0" y="0" width="83" height="35"></rect><text y="15" x="0"><tspan class="title" x="5">CallExpression</tspan></text><line x1="0" y1="24" y2="24" x2="83"></line><text x="5" y="34" fill="white" class="classText"></text><line x1="0" y1="29" y2="29" x2="83"></line><text x="5" y="44" fill="white" class="classText"></text></g><g id="classid-AssignmentExpression-20" class="classGroup " transform="translate(357.25,0 )"><rect x="0" y="0" width="125" height="35"></rect><text y="15" x="0"><tspan class="title" x="5">AssignmentExpression</tspan></text><line x1="0" y1="24" y2="24" x2="125"></line><text x="5" y="34" fill="white" class="classText"></text><line x1="0" y1="29" y2="29" x2="125"></line><text x="5" y="44" fill="white" class="classText"></text></g><g id="classid-VariableDeclarator-21" class="classGroup " transform="translate(838.5,85 )"><rect x="0" y="0" width="105" height="35"></rect><text y="15" x="0"><tspan class="title" x="5">VariableDeclarator</tspan></text><line x1="0" y1="24" y2="24" x2="105"></line><text x="5" y="34" fill="white" class="classText"></text><line x1="0" y1="29" y2="29" x2="105"></line><text x="5" y="44" fill="white" class="classText"></text></g><g id="classid-BlockStatement-22" class="classGroup " transform="translate(2349.5,170 )"><rect x="0" y="0" width="91" height="35"></rect><text y="15" x="0"><tspan class="title" x="5">BlockStatement</tspan></text><line x1="0" y1="24" y2="24" x2="91"></line><text x="5" y="34" fill="white" class="classText"></text><line x1="0" y1="29" y2="29" x2="91"></line><text x="5" y="44" fill="white" class="classText"></text></g><g id="classid-Expression-23" class="classGroup " transform="translate(1146.25,85 )"><rect x="0" y="0" width="65" height="35"></rect><text y="15" x="0"><tspan class="title" x="5">Expression</tspan></text><line x1="0" y1="24" y2="24" x2="65"></line><text x="5" y="34" fill="white" class="classText"></text><line x1="0" y1="29" y2="29" x2="65"></line><text x="5" y="44" fill="white" class="classText"></text></g><g id="classid-Node-24" class="classGroup " transform="translate(532.25,0 )"><rect x="0" y="0" width="36" height="35"></rect><text y="15" x="0"><tspan class="title" x="5">Node</tspan></text><line x1="0" y1="24" y2="24" x2="36"></line><text x="5" y="34" fill="white" class="classText"></text><line x1="0" y1="29" y2="29" x2="36"></line><text x="5" y="44" fill="white" class="classText"></text></g><g id="classid-MemberExpression-25" class="classGroup " transform="translate(1451.5,170 )"><rect x="0" y="0" width="107" height="35"></rect><text y="15" x="0"><tspan class="title" x="5">MemberExpression</tspan></text><line x1="0" y1="24" y2="24" x2="107"></line><text x="5" y="34" fill="white" class="classText"></text><line x1="0" y1="29" y2="29" x2="107"></line><text x="5" y="44" fill="white" class="classText"></text></g><g id="classid-FunctionDeclaration-26" class="classGroup " transform="translate(279.5,170 )"><rect x="0" y="0" width="112" height="35"></rect><text y="15" x="0"><tspan class="title" x="5">FunctionDeclaration</tspan></text><line x1="0" y1="24" y2="24" x2="112"></line><text x="5" y="34" fill="white" class="classText"></text><line x1="0" y1="29" y2="29" x2="112"></line><text x="5" y="44" fill="white" class="classText"></text></g><g id="classid-Parser-27" class="classGroup " transform="translate(618.25,0 )"><rect x="0" y="0" width="43" height="35"></rect><text y="15" x="0"><tspan class="title" x="5">Parser</tspan></text><line x1="0" y1="24" y2="24" x2="43"></line><text x="5" y="34" fill="white" class="classText"></text><line x1="0" y1="29" y2="29" x2="43"></line><text x="5" y="44" fill="white" class="classText"></text></g><g id="classid-Statement-28" class="classGroup " transform="translate(2038.5,85 )"><rect x="0" y="0" width="64" height="35"></rect><text y="15" x="0"><tspan class="title" x="5">Statement</tspan></text><line x1="0" y1="24" y2="24" x2="64"></line><text x="5" y="34" fill="white" class="classText"></text><line x1="0" y1="29" y2="29" x2="64"></line><text x="5" y="44" fill="white" class="classText"></text></g><path d="M2038.5,105.77710843373494L1974.6666666666667,112.31425702811244C1910.8333333333333,118.85140562248996,1783.1666666666667,131.92570281124497,1719.3333333333333,142.62951807228916C1655.5,153.33333333333334,1655.5,161.66666666666666,1655.5,165.83333333333334L1655.5,170" id="edge0" class="relation" marker-start="url(#extensionStart)"></path><path d="M528.75,116.50383141762453L521.4583333333334,121.25319284802043C514.1666666666666,126.00255427841635,499.5833333333333,135.50127713920816,492.2916666666667,144.41730523627075C485,153.33333333333334,485,161.66666666666666,485,165.83333333333334L485,170" id="edge1" class="relation" marker-start="url(#extensionStart)"></path><path d="M571.75,116.50383141762453L579.0416666666666,121.25319284802043C586.3333333333334,126.00255427841635,600.9166666666666,135.50127713920816,608.2083333333334,144.41730523627075C615.5,153.33333333333334,615.5,161.66666666666666,615.5,165.83333333333334L615.5,170" id="edge2" class="relation" marker-start="url(#extensionStart)"></path><path d="M2038.5,107.57462686567165L1999.1666666666667,113.81218905472637C1959.8333333333333,120.04975124378109,1881.1666666666667,132.52487562189054,1841.8333333333333,142.92910447761196C1802.5,153.33333333333334,1802.5,161.66666666666666,1802.5,165.83333333333334L1802.5,170" id="edge3" class="relation" marker-start="url(#extensionStart)"></path><path d="M2038.5,115.03456221198157L2025.75,120.02880184331798C2013,125.02304147465436,1987.5,135.01152073732717,1974.75,144.17242703533026C1962,153.33333333333334,1962,161.66666666666666,1962,165.83333333333334L1962,170" id="edge4" class="relation" marker-start="url(#extensionStart)"></path><path d="M532.25,18.980406386066765L449.125,25.817005321722302C366,32.65360425737784,199.75,46.32680212868892,116.625,57.33006773101113C33.5,68.33333333333333,33.5,76.66666666666667,33.5,80.83333333333333L33.5,85" id="edge5" class="relation" marker-start="url(#extensionStart)"></path><path d="M532.25,19.383076923076924L467.5416666666667,26.152564102564103C402.8333333333333,32.922051282051285,273.4166666666667,46.461025641025635,208.70833333333334,57.39717948717949C144,68.33333333333333,144,76.66666666666667,144,80.83333333333333L144,85" id="edge6" class="relation" marker-start="url(#extensionStart)"></path><path d="M1146.25,105.82630945213727L1082.4583333333333,112.35525787678107C1018.6666666666666,118.88420630142484,891.0833333333334,131.94210315071243,827.2916666666666,142.63771824202288C763.5,153.33333333333334,763.5,161.66666666666666,763.5,165.83333333333334L763.5,170" id="edge7" class="relation" marker-start="url(#extensionStart)"></path><path d="M1146.25,107.92198233562316L1109.2083333333333,114.10165194635262C1072.1666666666667,120.28132155708211,998.0833333333334,132.64066077854105,961.0416666666666,142.9869970559372C924,153.33333333333334,924,161.66666666666666,924,165.83333333333334L924,170" id="edge8" class="relation" marker-start="url(#extensionStart)"></path><path d="M532.25,20.091024555461473L486.0416666666667,26.74252046288456C439.8333333333333,33.39401637030765,347.4166666666667,46.69700818515383,301.2083333333333,57.515170759243574C255,68.33333333333333,255,76.66666666666667,255,80.83333333333333L255,85" id="edge9" class="relation" marker-start="url(#extensionStart)"></path><path d="M2091.0882352941176,120L2095.9901960784314,124.16666666666667C2100.892156862745,128.33333333333334,2110.6960784313724,136.66666666666666,2115.598039215686,145C2120.5,153.33333333333334,2120.5,161.66666666666666,2120.5,165.83333333333334L2120.5,170" id="edge10" class="relation" marker-start="url(#extensionStart)"></path><path d="M532.25,23.2196261682243L512.9583333333334,29.349688473520246C493.6666666666667,35.4797507788162,455.0833333333333,47.7398753894081,435.7916666666667,58.03660436137071C416.5,68.33333333333333,416.5,76.66666666666667,416.5,80.83333333333333L416.5,85" id="edge11" class="relation" marker-start="url(#extensionStart)"></path><path d="M2102.5,109.69576719576719L2128.6666666666665,115.57980599647266C2154.8333333333335,121.46384479717813,2207.1666666666665,133.23192239858906,2233.3333333333335,143.2826278659612C2259.5,153.33333333333334,2259.5,161.66666666666666,2259.5,165.83333333333334L2259.5,170" id="edge12" class="relation" marker-start="url(#extensionStart)"></path><path d="M1146.25,115.25981524249423L1133.625,120.21651270207853C1121,125.17321016166282,1095.75,135.08660508083142,1083.125,144.20996920708237C1070.5,153.33333333333334,1070.5,161.66666666666666,1070.5,165.83333333333334L1070.5,170" id="edge13" class="relation" marker-start="url(#extensionStart)"></path><path d="M550.25,35L550.25,39.166666666666664C550.25,43.333333333333336,550.25,51.666666666666664,550.25,60C550.25,68.33333333333333,550.25,76.66666666666667,550.25,80.83333333333333L550.25,85" id="edge14" class="relation" marker-start="url(#extensionStart)"></path><path d="M1194.9117647058824,120L1198.7598039215688,124.16666666666667C1202.607843137255,128.33333333333334,1210.3039215686274,136.66666666666666,1214.1519607843138,145C1218,153.33333333333334,1218,161.66666666666666,1218,165.83333333333334L1218,170" id="edge15" class="relation" marker-start="url(#extensionStart)"></path><path d="M221.85294117647058,120L213.9607843137255,124.16666666666667C206.06862745098042,128.33333333333334,190.2843137254902,136.66666666666666,182.3921568627451,145C174.5,153.33333333333334,174.5,161.66666666666666,174.5,165.83333333333334L174.5,170" id="edge16" class="relation" marker-start="url(#extensionStart)"></path><path d="M568.25,21.14719904648391L600.2083333333334,27.622665872069927C632.1666666666666,34.098132697655934,696.0833333333334,47.04906634882797,728.0416666666666,57.69119984108065C760,68.33333333333333,760,76.66666666666667,760,80.83333333333333L760,85" id="edge17" class="relation" marker-start="url(#extensionStart)"></path><path d="M1211.25,110.12068965517241L1236.0416666666667,115.93390804597702C1260.8333333333333,121.74712643678161,1310.4166666666667,133.3735632183908,1335.2083333333333,143.35344827586206C1360,153.33333333333334,1360,161.66666666666666,1360,165.83333333333334L1360,170" id="edge18" class="relation" marker-start="url(#extensionStart)"></path><path d="M568.25,19.745047688921495L622.0416666666666,26.45420640743458C675.8333333333334,33.163365125947664,783.4166666666666,46.58168256297383,837.2083333333334,57.457507948153584C891,68.33333333333333,891,76.66666666666667,891,80.83333333333333L891,85" id="edge19" class="relation" marker-start="url(#extensionStart)"></path><path d="M2102.5,106.69106317411402L2151.25,113.07588597842835C2200,119.46070878274269,2297.5,132.23035439137132,2346.25,142.78184386235233C2395,153.33333333333334,2395,161.66666666666666,2395,165.83333333333334L2395,170" id="edge20" class="relation" marker-start="url(#extensionStart)"></path><path d="M568.25,18.717183770883054L670,25.597653142402546C771.75,32.47812251392204,975.25,46.239061256961016,1077,57.28619729514717C1178.75,68.33333333333333,1178.75,76.66666666666667,1178.75,80.83333333333333L1178.75,85" id="edge21" class="relation" marker-start="url(#extensionStart)"></path><path d="M1211.25,106.73371647509579L1260.2083333333333,113.11143039591316C1309.1666666666667,119.48914431673052,1407.0833333333333,132.24457215836526,1456.0416666666667,142.7889527458493C1505,153.33333333333334,1505,161.66666666666666,1505,165.83333333333334L1505,170" id="edge22" class="relation" marker-start="url(#extensionStart)"></path><path d="M288.1470588235294,120L296.0392156862745,124.16666666666667C303.9313725490196,128.33333333333334,319.7156862745098,136.66666666666666,327.60784313725486,145C335.5,153.33333333333334,335.5,161.66666666666666,335.5,165.83333333333334L335.5,170" id="edge23" class="relation" marker-start="url(#extensionStart)"></path><path d="M568.25,18.00320670942279L818.625,25.002672257852325C1069,32.00213780628186,1569.75,46.001068903140926,1820.125,57.16720111823713C2070.5,68.33333333333333,2070.5,76.66666666666667,2070.5,80.83333333333333L2070.5,85" id="edge24" class="relation" marker-start="url(#extensionStart)"></path></svg>